{
.appVersion = "118";
DisplayStrings = (
"the/space quick/space brown/space fox/space jukemps/space over/space the/space lazy/space dog\012\012ABCDEFGHIJLMNOPQRSTUVWXYZ\012abcdefghijklmnopqrstuvwxyz",
"/quoteleft",
"/quotedblbase",
";",
":",
",",
".",
"?",
"¡",
"!",
"¿",
"·",
"/bullet *#///backslash (){}[]-/endash/emdash _/quotesinglbase/quotedblbase/quotedblleft/quotedblright/quoteleft/quoteright «»/guilsinglleft/guilsinglright \"'",
".,:;/ellipsis !¡?¿·",
"0123456789/fraction",
u,
"AÁÂÄÀÅÃÆBCÇDÐEÉÊËFGHIÎÏÌJKLMNÑOÓÔÖÒØÕ/OE PÞQRSTUÚÛÜÙVW/Wacute/Wcircumflex/Wdieresis/Wgrave XYÝ/Ycircumflex/Ydieresis/Ygrave Zaáâäàåãæbcçdðeéêëèfghiíîïìjklmnñoóôöòøõ/oe pþqrsßtuúûüùvw/wacute/wcircumflex/wdieresis/wgrave xyý/ycircumflex/ydieresis/ygrave z/a.001/g.001",
G
);
copyright = "Copyright © 2022 by Florian Hannich.";
date = "2024-06-22 14:22:07 +0000";
designer = "Florian Hannich";
designerURL = "https://florianhannich.com";
familyName = Base;
featurePrefixes = (
{
automatic = 1;
code = "languagesystem DFLT dflt;\012";
name = Languagesystems;
}
);
fontMaster = (
{
alignmentZones = (
"{716, 15}",
"{517, 13}",
"{0, -15}",
"{-166, -16}"
);
ascender = 775;
capHeight = 715;
custom = Demi;
descender = -166;
horizontalStems = (
62,
68
);
id = "BDC5E74B-1A26-4A4F-8F6D-86B4D4C65685";
name = DemiBold;
verticalStems = (
74,
81
);
weight = Bold;
weightValue = 600;
widthValue = 5;
xHeight = 510;
}
);
glyphs = (
{
glyphname = A;
lastChange = "2024-06-23 12:29:22 +0000";
layers = (
{
hints = (
{
horizontal = 1;
place = "{-1, 21}";
target = up;
type = BottomGhost;
},
{
horizontal = 1;
place = "{212, 87}";
type = Stem;
},
{
place = "{-11, 624}";
type = Stem;
}
);
layerId = "BDC5E74B-1A26-4A4F-8F6D-86B4D4C65685";
paths = (
{
closed = 1;
nodes = (
"260 710 LINE",
"0 -1 LINE",
"108 -1 LINE",
"184 212 LINE",
"440 212 LINE",
"515 -1 LINE",
"624 -1 LINE",
"363 710 LINE"
);
},
{
closed = 1;
nodes = (
"277 461 LINE SMOOTH",
"286 487 OFFCURVE",
"300 527 OFFCURVE",
"312 565 CURVE",
"324 527 OFFCURVE",
"337 487 OFFCURVE",
"347 461 CURVE SMOOTH",
"406 299 LINE",
"217 299 LINE"
);
}
);
width = 624;
}
);
note = A;
unicode = 0041;
},
{
glyphname = Aacute;
lastChange = "2024-06-23 12:29:18 +0000";
layers = (
{
hints = (
{
horizontal = 1;
place = "{-1, 21}";
target = up;
type = BottomGhost;
},
{
horizontal = 1;
place = "{212, 87}";
type = Stem;
},
{
horizontal = 1;
place = "{775, 113}";
type = Stem;
},
{
place = "{-11, 624}";
type = Stem;
}
);
layerId = "BDC5E74B-1A26-4A4F-8F6D-86B4D4C65685";
paths = (
{
closed = 1;
nodes = (
"345 809 LINE SMOOTH",
"381 844 OFFCURVE",
"423 888 OFFCURVE",
"423 888 CURVE SMOOTH",
"310 888 LINE SMOOTH",
"310 888 OFFCURVE",
"268 852 OFFCURVE",
"237 822 CURVE SMOOTH",
"188 775 LINE",
"310 775 LINE"
);
},
{
closed = 1;
nodes = (
"249 710 LINE",
"-11 -1 LINE",
"97 -1 LINE",
"173 212 LINE",
"429 212 LINE",
"504 -1 LINE",
"613 -1 LINE",
"352 710 LINE"
);
},
{
closed = 1;
nodes = (
"266 461 LINE SMOOTH",
"275 487 OFFCURVE",
"289 527 OFFCURVE",
"301 565 CURVE",
"313 527 OFFCURVE",
"326 487 OFFCURVE",
"336 461 CURVE SMOOTH",
"395 299 LINE",
"206 299 LINE"
);
}
);
width = 602;
}
);
leftKerningGroup = A;
leftMetricsKey = A;
note = Aacute;
rightKerningGroup = A;
rightMetricsKey = A;
unicode = 00C1;
},
{
glyphname = Acircumflex;
lastChange = "2024-06-23 12:29:18 +0000";
layers = (
{
hints = (
{
horizontal = 1;
place = "{-1, 21}";
target = up;
type = BottomGhost;
},
{
horizontal = 1;
place = "{212, 87}";
type = Stem;
},
{
horizontal = 1;
place = "{775, 113}";
type = Stem;
},
{
place = "{-11, 624}";
type = Stem;
},
{
horizontal = 1;
place = "{823, 65}";
type = Stem;
}
);
layerId = "BDC5E74B-1A26-4A4F-8F6D-86B4D4C65685";
paths = (
{
closed = 1;
nodes = (
"333 775 LINE",
"425 775 LINE",
"353 888 LINE",
"253 888 LINE",
"182 775 LINE",
"272 775 LINE",
"303 823 LINE"
);
},
{
closed = 1;
nodes = (
"249 710 LINE",
"-11 -1 LINE",
"97 -1 LINE",
"173 212 LINE",
"429 212 LINE",
"504 -1 LINE",
"613 -1 LINE",
"352 710 LINE"
);
},
{
closed = 1;
nodes = (
"266 461 LINE SMOOTH",
"275 487 OFFCURVE",
"289 527 OFFCURVE",
"301 565 CURVE",
"313 527 OFFCURVE",
"326 487 OFFCURVE",
"336 461 CURVE SMOOTH",
"395 299 LINE",
"206 299 LINE"
);
}
);
width = 602;
}
);
leftKerningGroup = A;
leftMetricsKey = A;
note = Acircumflex;
rightKerningGroup = A;
rightMetricsKey = A;
unicode = 00C2;
},
{
glyphname = Adieresis;
lastChange = "2024-06-23 12:29:18 +0000";
layers = (
{
hints = (
{
horizontal = 1;
place = "{-1, 21}";
target = up;
type = BottomGhost;
},
{
horizontal = 1;
place = "{212, 87}";
type = Stem;
},
{
horizontal = 1;
place = "{757, 129}";
type = Stem;
},
{
place = "{152, 130}";
type = Stem;
},
{
place = "{341, 130}";
type = Stem;
}
);
layerId = "BDC5E74B-1A26-4A4F-8F6D-86B4D4C65685";
paths = (
{
closed = 1;
nodes = (
"254 757 OFFCURVE",
"282 784 OFFCURVE",
"282 821 CURVE SMOOTH",
"282 858 OFFCURVE",
"254 886 OFFCURVE",
"217 886 CURVE SMOOTH",
"181 886 OFFCURVE",
"152 858 OFFCURVE",
"152 821 CURVE SMOOTH",
"152 784 OFFCURVE",
"181 757 OFFCURVE",
"217 757 CURVE SMOOTH"
);
},
{
closed = 1;
nodes = (
"443 757 OFFCURVE",
"471 784 OFFCURVE",
"471 821 CURVE SMOOTH",
"471 858 OFFCURVE",
"443 886 OFFCURVE",
"406 886 CURVE SMOOTH",
"370 886 OFFCURVE",
"341 858 OFFCURVE",
"341 821 CURVE SMOOTH",
"341 784 OFFCURVE",
"370 757 OFFCURVE",
"406 757 CURVE SMOOTH"
);
},
{
closed = 1;
nodes = (
"249 710 LINE",
"-11 -1 LINE",
"97 -1 LINE",
"173 212 LINE",
"429 212 LINE",
"504 -1 LINE",
"613 -1 LINE",
"352 710 LINE"
);
},
{
closed = 1;
nodes = (
"266 461 LINE SMOOTH",
"275 487 OFFCURVE",
"289 527 OFFCURVE",
"301 565 CURVE",
"313 527 OFFCURVE",
"326 487 OFFCURVE",
"336 461 CURVE SMOOTH",
"395 299 LINE",
"206 299 LINE"
);
}
);
width = 602;
}
);
leftKerningGroup = A;
leftMetricsKey = A;
note = Adieresis;
rightKerningGroup = A;
rightMetricsKey = A;
unicode = 00C4;
},
{
glyphname = Agrave;
lastChange = "2024-06-23 12:29:18 +0000";
layers = (
{
hints = (
{
horizontal = 1;
place = "{-1, 21}";
target = up;
type = BottomGhost;
},
{
horizontal = 1;
place = "{212, 87}";
type = Stem;
},
{
horizontal = 1;
place = "{774, 113}";
type = Stem;
},
{
place = "{-11, 624}";
type = Stem;
}
);
layerId = "BDC5E74B-1A26-4A4F-8F6D-86B4D4C65685";
paths = (
{
closed = 1;
nodes = (
"314 774 LINE",
"436 774 LINE",
"387 821 LINE SMOOTH",
"356 851 OFFCURVE",
"314 887 OFFCURVE",
"314 887 CURVE SMOOTH",
"201 887 LINE SMOOTH",
"201 887 OFFCURVE",
"243 843 OFFCURVE",
"279 808 CURVE SMOOTH"
);
},
{
closed = 1;
nodes = (
"249 710 LINE",
"-11 -1 LINE",
"97 -1 LINE",
"173 212 LINE",
"429 212 LINE",
"504 -1 LINE",
"613 -1 LINE",
"352 710 LINE"
);
},
{
closed = 1;
nodes = (
"266 461 LINE SMOOTH",
"275 487 OFFCURVE",
"289 527 OFFCURVE",
"301 565 CURVE",
"313 527 OFFCURVE",
"326 487 OFFCURVE",
"336 461 CURVE SMOOTH",
"395 299 LINE",
"206 299 LINE"
);
}
);
width = 602;
}
);
leftKerningGroup = A;
leftMetricsKey = A;
note = Agrave;
rightKerningGroup = A;
rightMetricsKey = A;
unicode = 00C0;
},
{
glyphname = Aring;
lastChange = "2024-06-23 12:29:18 +0000";
layers = (
{
hints = (
{
horizontal = 1;
place = "{-1, 21}";
target = up;
type = BottomGhost;
},
{
horizontal = 1;
place = "{212, 87}";
type = Stem;
},
{
horizontal = 1;
place = "{769, 46}";
type = Stem;
},
{
horizontal = 1;
place = "{858, 45}";
type = Stem;
},
{
place = "{227, 53}";
type = Stem;
},
{
place = "{324, 53}";
type = Stem;
}
);
layerId = "BDC5E74B-1A26-4A4F-8F6D-86B4D4C65685";
paths = (
{
closed = 1;
nodes = (
"344 769 OFFCURVE",
"377 798 OFFCURVE",
"377 836 CURVE SMOOTH",
"377 874 OFFCURVE",
"344 903 OFFCURVE",
"302 903 CURVE SMOOTH",
"260 903 OFFCURVE",
"227 874 OFFCURVE",
"227 836 CURVE SMOOTH",
"227 798 OFFCURVE",
"260 769 OFFCURVE",
"302 769 CURVE SMOOTH"
);
},
{
closed = 1;
nodes = (
"316 858 OFFCURVE",
"324 851 OFFCURVE",
"324 836 CURVE SMOOTH",
"324 822 OFFCURVE",
"316 815 OFFCURVE",
"302 815 CURVE SMOOTH",
"288 815 OFFCURVE",
"280 822 OFFCURVE",
"280 836 CURVE SMOOTH",
"280 851 OFFCURVE",
"288 858 OFFCURVE",
"302 858 CURVE SMOOTH"
);
},
{
closed = 1;
nodes = (
"249 710 LINE",
"-11 -1 LINE",
"97 -1 LINE",
"173 212 LINE",
"429 212 LINE",
"504 -1 LINE",
"613 -1 LINE",
"352 710 LINE"
);
},
{
closed = 1;
nodes = (
"266 461 LINE SMOOTH",
"275 487 OFFCURVE",
"289 527 OFFCURVE",
"301 565 CURVE",
"313 527 OFFCURVE",
"326 487 OFFCURVE",
"336 461 CURVE SMOOTH",
"395 299 LINE",
"206 299 LINE"
);
}
);
width = 602;
}
);
leftKerningGroup = A;
leftMetricsKey = A;
note = Aring;
rightKerningGroup = A;
rightMetricsKey = A;
unicode = 00C5;
},
{
glyphname = Atilde;
lastChange = "2024-06-23 12:29:18 +0000";
layers = (
{
hints = (
{
horizontal = 1;
place = "{-1, 21}";
target = up;
type = BottomGhost;
},
{
horizontal = 1;
place = "{212, 87}";
type = Stem;
},
{
place = "{-11, 624}";
type = Stem;
}
);
layerId = "BDC5E74B-1A26-4A4F-8F6D-86B4D4C65685";
paths = (
{
closed = 1;
nodes = (
"249 710 LINE",
"-11 -1 LINE",
"97 -1 LINE",
"173 212 LINE",
"429 212 LINE",
"504 -1 LINE",
"613 -1 LINE",
"352 710 LINE"
);
},
{
closed = 1;
nodes = (
"266 461 LINE SMOOTH",
"275 487 OFFCURVE",
"289 527 OFFCURVE",
"301 565 CURVE",
"313 527 OFFCURVE",
"326 487 OFFCURVE",
"336 461 CURVE SMOOTH",
"395 299 LINE",
"206 299 LINE"
);
}
);
width = 602;
}
);
leftKerningGroup = A;
leftMetricsKey = A;
note = Atilde;
rightKerningGroup = A;
rightMetricsKey = A;
unicode = 00C3;
},
{
glyphname = AE;
lastChange = "2024-06-23 12:29:28 +0000";
layers = (
{
hints = (
{
horizontal = 1;
place = "{0, 86}";
type = Stem;
},
{
horizontal = 1;
place = "{314, 87}";
type = Stem;
},
{
horizontal = 1;
place = "{624, 86}";
type = Stem;
},
{
place = "{372, 112}";
type = Stem;
},
{
horizontal = 1;
place = "{212, 87}";
type = Stem;
},
{
horizontal = 1;
place = "{625, 85}";
type = Stem;
}
);
layerId = "BDC5E74B-1A26-4A4F-8F6D-86B4D4C65685";
paths = (
{
closed = 1;
nodes = (
"577 86 LINE",
"495 85 LINE",
"495 315 LINE",
"577 314 LINE",
"840 314 LINE",
"840 401 LINE",
"577 401 LINE",
"495 400 LINE",
"495 624 LINE",
"577 624 LINE",
"850 624 LINE",
"850 710 LINE",
"260 710 LINE",
"0 -1 LINE",
"108 -1 LINE",
"184 212 LINE",
"383 212 LINE",
"383 0 LINE",
"859 0 LINE",
"859 86 LINE"
);
},
{
closed = 1;
nodes = (
"277 461 LINE SMOOTH",
"290 496 OFFCURVE",
"315 574 OFFCURVE",
"331 625 CURVE",
"383 625 LINE",
"383 299 LINE",
"217 299 LINE"
);
}
);
width = 888;
}
);
leftKerningGroup = A;
leftMetricsKey = A;
note = AE;
rightKerningGroup = E;
rightMetricsKey = E;
unicode = 00C6;
},
{
glyphname = B;
lastChange = "2024-06-23 12:29:38 +0000";
layers = (
{
hints = (
{
horizontal = 1;
place = "{-1, 89}";
type = Stem;
},
{
horizontal = 1;
place = "{330, 90}";
type = Stem;
},
{
horizontal = 1;
place = "{621, 89}";
type = Stem;
},
{
place = "{60, 112}";
type = Stem;
},
{
place = "{497, 111}";
type = Stem;
},
{
place = "{471, 112}";
type = Stem;
}
);
layerId = "BDC5E74B-1A26-4A4F-8F6D-86B4D4C65685";
paths = (
{
closed = 1;
nodes = (
"397 -1 LINE SMOOTH",
"522 -1 OFFCURVE",
"608 85 OFFCURVE",
"608 210 CURVE SMOOTH",
"608 291 OFFCURVE",
"567 350 OFFCURVE",
"491 378 CURVE",
"550 406 OFFCURVE",
"583 457 OFFCURVE",
"583 523 CURVE SMOOTH",
"583 633 OFFCURVE",
"505 710 OFFCURVE",
"393 710 CURVE SMOOTH",
"60 710 LINE",
"60 -1 LINE"
);
},
{
closed = 1;
nodes = (
"172 620 LINE",
"376 621 LINE SMOOTH",
"433 621 OFFCURVE",
"471 580 OFFCURVE",
"471 520 CURVE SMOOTH",
"471 463 OFFCURVE",
"427 420 OFFCURVE",
"368 420 CURVE SMOOTH",
"172 420 LINE"
);
},
{
closed = 1;
nodes = (
"172 330 LINE",
"375 330 LINE SMOOTH",
"444 330 OFFCURVE",
"497 277 OFFCURVE",
"497 209 CURVE SMOOTH",
"497 137 OFFCURVE",
"452 88 OFFCURVE",
"384 88 CURVE SMOOTH",
"172 88 LINE"
);
}
);
width = 636;
}
);
leftKerningGroup = N;
leftMetricsKey = N;
note = B;
rightKerningGroup = N;
unicode = 0042;
},
{
glyphname = C;
lastChange = "2024-06-23 12:29:45 +0000";
layers = (
{
hints = (
{
horizontal = 1;
place = "{-16, 91}";
type = Stem;
},
{
horizontal = 1;
place = "{635, 91}";
type = Stem;
},
{
place = "{28, 115}";
type = Stem;
}
);
layerId = "BDC5E74B-1A26-4A4F-8F6D-86B4D4C65685";
paths = (
{
closed = 1;
nodes = (
"546 -16 OFFCURVE",
"666 87 OFFCURVE",
"691 252 CURVE",
"576 252 LINE",
"560 139 OFFCURVE",
"489 75 OFFCURVE",
"383 75 CURVE SMOOTH",
"242 75 OFFCURVE",
"147 188 OFFCURVE",
"147 353 CURVE SMOOTH",
"147 521 OFFCURVE",
"241 635 OFFCURVE",
"381 635 CURVE SMOOTH",
"480 635 OFFCURVE",
"551 577 OFFCURVE",
"570 478 CURVE",
"690 478 LINE",
"658 632 OFFCURVE",
"540 726 OFFCURVE",
"379 726 CURVE SMOOTH",
"176 726 OFFCURVE",
"32 571 OFFCURVE",
"32 354 CURVE SMOOTH",
"32 138 OFFCURVE",
"176 -16 OFFCURVE",
"379 -16 CURVE SMOOTH"
);
}
);
width = 723;
}
);
leftKerningGroup = O;
leftMetricsKey = O;
note = C;
rightKerningGroup = O;
rightMetricsKey = O;
unicode = 0043;
},
{
glyphname = Ccedilla;
lastChange = "2024-06-23 12:29:45 +0000";
layers = (
{
hints = (
{
horizontal = 1;
place = "{-16, 91}";
type = Stem;
},
{
horizontal = 1;
place = "{635, 91}";
type = Stem;
},
{
place = "{28, 115}";
type = Stem;
}
);
layerId = "BDC5E74B-1A26-4A4F-8F6D-86B4D4C65685";
paths = (
{
closed = 1;
nodes = (
"546 -16 OFFCURVE",
"666 87 OFFCURVE",
"691 252 CURVE",
"576 252 LINE",
"560 139 OFFCURVE",
"489 75 OFFCURVE",
"383 75 CURVE SMOOTH",
"242 75 OFFCURVE",
"147 188 OFFCURVE",
"147 353 CURVE SMOOTH",
"147 521 OFFCURVE",
"241 635 OFFCURVE",
"381 635 CURVE SMOOTH",
"480 635 OFFCURVE",
"551 577 OFFCURVE",
"570 478 CURVE",
"690 478 LINE",
"658 632 OFFCURVE",
"540 726 OFFCURVE",
"379 726 CURVE SMOOTH",
"176 726 OFFCURVE",
"32 571 OFFCURVE",
"32 354 CURVE SMOOTH",
"32 138 OFFCURVE",
"176 -16 OFFCURVE",
"379 -16 CURVE SMOOTH"
);
}
);
width = 723;
}
);
leftKerningGroup = O;
leftMetricsKey = O;
note = Ccedilla;
rightKerningGroup = O;
rightMetricsKey = O;
unicode = 00C7;
},
{
glyphname = D;
lastChange = "2024-06-23 12:29:52 +0000";
layers = (
{
hints = (
{
horizontal = 1;
place = "{-1, 89}";
type = Stem;
},
{
horizontal = 1;
place = "{621, 90}";
type = Stem;
},
{
place = "{60, 112}";
type = Stem;
},
{
place = "{553, 114}";
type = Stem;
}
);
layerId = "BDC5E74B-1A26-4A4F-8F6D-86B4D4C65685";
paths = (
{
closed = 1;
nodes = (
"335 -1 LINE SMOOTH",
"530 -1 OFFCURVE",
"667 147 OFFCURVE",
"667 355 CURVE SMOOTH",
"667 565 OFFCURVE",
"531 712 OFFCURVE",
"335 711 CURVE SMOOTH",
"60 710 LINE",
"60 -1 LINE"
);
},
{
closed = 1;
nodes = (
"172 621 LINE",
"329 621 LINE SMOOTH",
"462 621 OFFCURVE",
"553 511 OFFCURVE",
"553 354 CURVE SMOOTH",
"553 200 OFFCURVE",
"461 88 OFFCURVE",
"332 88 CURVE SMOOTH",
"172 88 LINE"
);
}
);
width = 699;
}
);
leftKerningGroup = D;
leftMetricsKey = D;
note = D;
rightKerningGroup = O;
rightMetricsKey = O;
unicode = 0044;
},
{
glyphname = Eth;
lastChange = "2024-06-23 12:29:52 +0000";
layers = (
{
hints = (
{
horizontal = 1;
place = "{-1, 89}";
type = Stem;
},
{
horizontal = 1;
place = "{312, 87}";
type = Stem;
},
{
horizontal = 1;
place = "{621, 90}";
type = Stem;
},
{
place = "{60, 112}";
type = Stem;
},
{
place = "{553, 114}";
type = Stem;
}
);
layerId = "BDC5E74B-1A26-4A4F-8F6D-86B4D4C65685";
paths = (
{
closed = 1;
nodes = (
"113 710 LINE",
"113 399 LINE",
"60 399 LINE",
"60 312 LINE",
"113 312 LINE",
"113 -1 LINE",
"388 -1 LINE SMOOTH",
"583 -1 OFFCURVE",
"720 147 OFFCURVE",
"720 355 CURVE SMOOTH",
"720 565 OFFCURVE",
"584 712 OFFCURVE",
"388 711 CURVE SMOOTH"
);
},
{
closed = 1;
nodes = (
"225 88 LINE",
"225 312 LINE",
"361 312 LINE",
"361 399 LINE",
"225 399 LINE",
"225 621 LINE",
"382 621 LINE SMOOTH",
"515 621 OFFCURVE",
"606 511 OFFCURVE",
"606 354 CURVE SMOOTH",
"606 200 OFFCURVE",
"514 88 OFFCURVE",
"385 88 CURVE SMOOTH"
);
}
);
width = 752;
}
);
leftKerningGroup = D;
leftMetricsKey = D;
note = Eth;
rightKerningGroup = O;
rightMetricsKey = O;
unicode = 00D0;
},
{
glyphname = E;
lastChange = "2024-06-23 12:29:59 +0000";
layers = (
{
hints = (
{
horizontal = 1;
place = "{0, 86}";
type = Stem;
},
{
horizontal = 1;
place = "{314, 87}";
type = Stem;
},
{
horizontal = 1;
place = "{624, 86}";
type = Stem;
},
{
place = "{60, 112}";
type = Stem;
}
);
layerId = "BDC5E74B-1A26-4A4F-8F6D-86B4D4C65685";
paths = (
{
closed = 1;
nodes = (
"536 0 LINE",
"536 86 LINE",
"254 86 LINE",
"172 85 LINE",
"172 315 LINE",
"254 314 LINE",
"517 314 LINE",
"517 401 LINE",
"254 401 LINE",
"172 400 LINE",
"172 624 LINE",
"254 624 LINE",
"527 624 LINE",
"527 710 LINE",
"60 710 LINE",
"60 0 LINE"
);
}
);
width = 597;
}
);
leftKerningGroup = N;
leftMetricsKey = N;
note = E;
rightKerningGroup = N;
rightMetricsKey = N;
unicode = 0045;
},
{
glyphname = Eacute;
lastChange = "2024-06-23 12:29:59 +0000";
layers = (
{
hints = (
{
horizontal = 1;
place = "{0, 86}";
type = Stem;
},
{
horizontal = 1;
place = "{314, 87}";
type = Stem;
},
{
horizontal = 1;
place = "{624, 151}";
type = Stem;
},
{
place = "{60, 112}";
type = Stem;
},
{
horizontal = 1;
place = "{624, 86}";
type = Stem;
}
);
layerId = "BDC5E74B-1A26-4A4F-8F6D-86B4D4C65685";
paths = (
{
closed = 1;
nodes = (
"194 775 LINE",
"243 822 LINE SMOOTH",
"274 852 OFFCURVE",
"316 888 OFFCURVE",
"316 888 CURVE",
"429 888 LINE",
"429 888 OFFCURVE",
"387 844 OFFCURVE",
"351 809 CURVE SMOOTH",
"316 775 LINE"
);
},
{
closed = 1;
nodes = (
"536 0 LINE",
"536 86 LINE",
"254 86 LINE",
"172 85 LINE",
"172 315 LINE",
"254 314 LINE",
"517 314 LINE",
"517 401 LINE",
"254 401 LINE",
"172 400 LINE",
"172 624 LINE",
"254 624 LINE",
"527 624 LINE",
"527 710 LINE",
"60 710 LINE",
"60 0 LINE"
);
}
);
width = 597;
}
);
leftKerningGroup = N;
leftMetricsKey = N;
note = Eacute;
rightKerningGroup = N;
rightMetricsKey = N;
unicode = 00C9;
},
{
glyphname = Ecircumflex;
lastChange = "2024-06-23 12:29:59 +0000";
layers = (
{
hints = (
{
horizontal = 1;
place = "{0, 86}";
type = Stem;
},
{
horizontal = 1;
place = "{314, 87}";
type = Stem;
},
{
horizontal = 1;
place = "{624, 86}";
type = Stem;
},
{
horizontal = 1;
place = "{775, 113}";
type = Stem;
},
{
place = "{60, 112}";
type = Stem;
},
{
horizontal = 1;
place = "{823, 65}";
type = Stem;
}
);
layerId = "BDC5E74B-1A26-4A4F-8F6D-86B4D4C65685";
paths = (
{
closed = 1;
nodes = (
"248 888 LINE",
"177 775 LINE",
"267 775 LINE",
"298 823 LINE",
"328 775 LINE",
"420 775 LINE",
"348 888 LINE"
);
},
{
closed = 1;
nodes = (
"536 0 LINE",
"536 86 LINE",
"254 86 LINE",
"172 85 LINE",
"172 315 LINE",
"254 314 LINE",
"517 314 LINE",
"517 401 LINE",
"254 401 LINE",
"172 400 LINE",
"172 624 LINE",
"254 624 LINE",
"527 624 LINE",
"527 710 LINE",
"60 710 LINE",
"60 0 LINE"
);
}
);
width = 597;
}
);
leftKerningGroup = N;
leftMetricsKey = N;
note = Ecircumflex;
rightKerningGroup = N;
rightMetricsKey = N;
unicode = 00CA;
},
{
glyphname = Edieresis;
lastChange = "2024-06-23 12:29:59 +0000";
layers = (
{
hints = (
{
horizontal = 1;
place = "{0, 86}";
type = Stem;
},
{
horizontal = 1;
place = "{314, 87}";
type = Stem;
},
{
horizontal = 1;
place = "{624, 86}";
type = Stem;
},
{
horizontal = 1;
place = "{767, 129}";
type = Stem;
},
{
place = "{136, 130}";
type = Stem;
},
{
place = "{325, 130}";
type = Stem;
},
{
place = "{60, 112}";
type = Stem;
}
);
layerId = "BDC5E74B-1A26-4A4F-8F6D-86B4D4C65685";
paths = (
{
closed = 1;
nodes = (
"136 794 OFFCURVE",
"165 767 OFFCURVE",
"201 767 CURVE SMOOTH",
"238 767 OFFCURVE",
"266 794 OFFCURVE",
"266 831 CURVE SMOOTH",
"266 868 OFFCURVE",
"238 896 OFFCURVE",
"201 896 CURVE SMOOTH",
"165 896 OFFCURVE",
"136 868 OFFCURVE",
"136 831 CURVE SMOOTH"
);
},
{
closed = 1;
nodes = (
"325 794 OFFCURVE",
"354 767 OFFCURVE",
"390 767 CURVE SMOOTH",
"427 767 OFFCURVE",
"455 794 OFFCURVE",
"455 831 CURVE SMOOTH",
"455 868 OFFCURVE",
"427 896 OFFCURVE",
"390 896 CURVE SMOOTH",
"354 896 OFFCURVE",
"325 868 OFFCURVE",
"325 831 CURVE SMOOTH"
);
},
{
closed = 1;
nodes = (
"536 0 LINE",
"536 86 LINE",
"254 86 LINE",
"172 85 LINE",
"172 315 LINE",
"254 314 LINE",
"517 314 LINE",
"517 401 LINE",
"254 401 LINE",
"172 400 LINE",
"172 624 LINE",
"254 624 LINE",
"527 624 LINE",
"527 710 LINE",
"60 710 LINE",
"60 0 LINE"
);
}
);
width = 597;
}
);
leftKerningGroup = N;
leftMetricsKey = N;
note = Edieresis;
rightKerningGroup = N;
rightMetricsKey = N;
unicode = 00CB;
},
{
glyphname = F;
lastChange = "2024-06-22 14:15:31 +0000";
layers = (
{
hints = (
{
horizontal = 1;
place = "{-1, 21}";
target = up;
type = BottomGhost;
},
{
horizontal = 1;
place = "{315, 87}";
type = Stem;
},
{
horizontal = 1;
place = "{624, 86}";
type = Stem;
},
{
place = "{60, 112}";
type = Stem;
}
);
layerId = "BDC5E74B-1A26-4A4F-8F6D-86B4D4C65685";
paths = (
{
closed = 1;
nodes = (
"172 -1 LINE",
"172 315 LINE",
"488 315 LINE",
"488 402 LINE",
"254 402 LINE SMOOTH",
"232 402 OFFCURVE",
"193 401 OFFCURVE",
"172 400 CURVE",
"172 625 LINE",
"254 624 LINE",
"527 624 LINE",
"527 710 LINE",
"60 710 LINE",
"60 -1 LINE"
);
}
);
width = 555;
}
);
note = F;
rightKerningGroup = F;
unicode = 0046;
},
{
glyphname = G;
lastChange = "2024-06-23 12:29:04 +0000";
layers = (
{
hints = (
{
horizontal = 1;
place = "{-16, 91}";
type = Stem;
},
{
horizontal = 1;
place = "{294, 86}";
type = Stem;
},
{
horizontal = 1;
place = "{634, 91}";
type = Stem;
},
{
place = "{28, 115}";
type = Stem;
},
{
place = "{599, 98}";
type = Stem;
},
{
horizontal = 1;
place = "{-1, 21}";
target = up;
type = BottomGhost;
}
);
layerId = "BDC5E74B-1A26-4A4F-8F6D-86B4D4C65685";
paths = (
{
closed = 1;
nodes = (
"464 -16 OFFCURVE",
"555 28 OFFCURVE",
"603 143 CURVE",
"603 -1 LINE",
"701 -1 LINE",
"701 380 LINE",
"376 380 LINE",
"376 294 LINE",
"504 294 LINE SMOOTH",
"527 294 OFFCURVE",
"558 295 OFFCURVE",
"578 296 CURVE",
"582 296 LINE",
"566 165 OFFCURVE",
"483 75 OFFCURVE",
"379 75 CURVE SMOOTH",
"244 75 OFFCURVE",
"147 192 OFFCURVE",
"147 353 CURVE SMOOTH",
"147 517 OFFCURVE",
"243 634 OFFCURVE",
"379 634 CURVE SMOOTH",
"477 634 OFFCURVE",
"540 582 OFFCURVE",
"570 478 CURVE",
"686 478 LINE",
"649 635 OFFCURVE",
"536 725 OFFCURVE",
"379 725 CURVE SMOOTH",
"176 725 OFFCURVE",
"32 570 OFFCURVE",
"32 354 CURVE SMOOTH",
"32 136 OFFCURVE",
"169 -16 OFFCURVE",
"370 -16 CURVE SMOOTH"
);
}
);
width = 762;
}
);
leftKerningGroup = O;
leftMetricsKey = O;
note = G;
rightKerningGroup = N;
rightMetricsKey = N;
unicode = 0047;
},
{
glyphname = H;
lastChange = "2024-06-23 12:28:55 +0000";
layers = (
{
hints = (
{
horizontal = 1;
place = "{-1, 21}";
target = up;
type = BottomGhost;
},
{
horizontal = 1;
place = "{322, 86}";
type = Stem;
},
{
place = "{72, 112}";
type = Stem;
},
{
place = "{535, 111}";
type = Stem;
}
);
layerId = "BDC5E74B-1A26-4A4F-8F6D-86B4D4C65685";
paths = (
{
closed = 1;
nodes = (
"634 -1 LINE",
"634 710 LINE",
"523 710 LINE",
"523 407 LINE",
"505 408 OFFCURVE",
"476 408 OFFCURVE",
"453 408 CURVE SMOOTH",
"245 408 LINE SMOOTH",
"222 408 OFFCURVE",
"190 408 OFFCURVE",
"172 407 CURVE",
"172 710 LINE",
"60 710 LINE",
"60 -1 LINE",
"172 -1 LINE",
"172 323 LINE",
"190 323 OFFCURVE",
"222 322 OFFCURVE",
"245 322 CURVE SMOOTH",
"453 322 LINE SMOOTH",
"476 322 OFFCURVE",
"505 323 OFFCURVE",
"523 323 CURVE",
"523 -1 LINE"
);
}
);
width = 695;
}
);
leftKerningGroup = N;
leftMetricsKey = N;
note = H;
rightKerningGroup = N;
rightMetricsKey = N;
unicode = 0048;
},
{
glyphname = I;
lastChange = "2024-06-23 12:28:47 +0000";
layers = (
{
hints = (
{
horizontal = 1;
place = "{-1, 21}";
target = up;
type = BottomGhost;
},
{
place = "{60, 112}";
type = Stem;
}
);
layerId = "BDC5E74B-1A26-4A4F-8F6D-86B4D4C65685";
paths = (
{
closed = 1;
nodes = (
"172 -1 LINE",
"172 710 LINE",
"60 710 LINE",
"60 -1 LINE"
);
}
);
width = 233;
}
);
leftKerningGroup = N;
leftMetricsKey = N;
note = I;
rightKerningGroup = N;
rightMetricsKey = N;
unicode = 0049;
},
{
glyphname = Icircumflex;
lastChange = "2024-06-23 12:28:47 +0000";
layers = (
{
hints = (
{
horizontal = 1;
place = "{-1, 21}";
target = up;
type = BottomGhost;
},
{
horizontal = 1;
place = "{775, 113}";
type = Stem;
},
{
place = "{60, 112}";
type = Stem;
},
{
horizontal = 1;
place = "{823, 65}";
type = Stem;
}
);
layerId = "BDC5E74B-1A26-4A4F-8F6D-86B4D4C65685";
paths = (
{
closed = 1;
nodes = (
"131 888 LINE",
"60 775 LINE",
"150 775 LINE",
"181 823 LINE",
"211 775 LINE",
"303 775 LINE",
"231 888 LINE"
);
},
{
closed = 1;
nodes = (
"234 -1 LINE",
"234 710 LINE",
"122 710 LINE",
"122 -1 LINE"
);
}
);
width = 364;
}
);
leftKerningGroup = N;
leftMetricsKey = N;
note = Icircumflex;
rightKerningGroup = N;
rightMetricsKey = N;
unicode = 00CE;
},
{
glyphname = Idieresis;
lastChange = "2024-06-23 12:28:47 +0000";
layers = (
{
hints = (
{
horizontal = 1;
place = "{-1, 21}";
target = up;
type = BottomGhost;
},
{
horizontal = 1;
place = "{767, 129}";
type = Stem;
},
{
place = "{-46, 130}";
type = Stem;
},
{
place = "{143, 130}";
type = Stem;
},
{
place = "{60, 112}";
type = Stem;
}
);
layerId = "BDC5E74B-1A26-4A4F-8F6D-86B4D4C65685";
paths = (
{
closed = 1;
nodes = (
"60 794 OFFCURVE",
"89 767 OFFCURVE",
"125 767 CURVE SMOOTH",
"162 767 OFFCURVE",
"190 794 OFFCURVE",
"190 831 CURVE SMOOTH",
"190 868 OFFCURVE",
"162 896 OFFCURVE",
"125 896 CURVE SMOOTH",
"89 896 OFFCURVE",
"60 868 OFFCURVE",
"60 831 CURVE SMOOTH"
);
},
{
closed = 1;
nodes = (
"249 794 OFFCURVE",
"278 767 OFFCURVE",
"314 767 CURVE SMOOTH",
"351 767 OFFCURVE",
"379 794 OFFCURVE",
"379 831 CURVE SMOOTH",
"379 868 OFFCURVE",
"351 896 OFFCURVE",
"314 896 CURVE SMOOTH",
"278 896 OFFCURVE",
"249 868 OFFCURVE",
"249 831 CURVE SMOOTH"
);
},
{
closed = 1;
nodes = (
"278 -1 LINE",
"278 710 LINE",
"166 710 LINE",
"166 -1 LINE"
);
}
);
width = 440;
}
);
leftKerningGroup = N;
leftMetricsKey = N;
note = Idieresis;
rightKerningGroup = N;
rightMetricsKey = N;
unicode = 00CF;
},
{
glyphname = Igrave;
lastChange = "2024-06-22 14:15:31 +0000";
layers = (
{
hints = (
{
horizontal = 1;
place = "{-1, 21}";
target = up;
type = BottomGhost;
},
{
place = "{60, 112}";
type = Stem;
}
);
layerId = "BDC5E74B-1A26-4A4F-8F6D-86B4D4C65685";
paths = (
{
closed = 1;
nodes = (
"73 809 LINE SMOOTH",
"37 844 OFFCURVE",
"-5 888 OFFCURVE",
"-5 888 CURVE",
"108 888 LINE",
"108 888 OFFCURVE",
"150 852 OFFCURVE",
"181 822 CURVE SMOOTH",
"230 775 LINE",
"108 775 LINE"
);
},
{
closed = 1;
nodes = (
"172 -1 LINE",
"172 710 LINE",
"60 710 LINE",
"60 -1 LINE"
);
}
);
width = 232;
}
);
note = Igrave;
unicode = 00CC;
},
{
glyphname = J;
lastChange = "2024-06-23 12:30:13 +0000";
layers = (
{
hints = (
{
horizontal = 1;
place = "{-16, 84}";
type = Stem;
},
{
place = "{-8, 112}";
type = Stem;
},
{
place = "{314, 111}";
type = Stem;
}
);
layerId = "BDC5E74B-1A26-4A4F-8F6D-86B4D4C65685";
paths = (
{
closed = 1;
nodes = (
"353 -16 OFFCURVE",
"433 68 OFFCURVE",
"433 212 CURVE SMOOTH",
"434 710 LINE",
"322 710 LINE",
"322 200 LINE SMOOTH",
"322 110 OFFCURVE",
"289 68 OFFCURVE",
"218 68 CURVE SMOOTH",
"145 68 OFFCURVE",
"109 113 OFFCURVE",
"112 202 CURVE",
"0 202 LINE",
"-4 70 OFFCURVE",
"84 -16 OFFCURVE",
"218 -16 CURVE SMOOTH"
);
}
);
width = 495;
}
);
leftKerningGroup = N;
note = J;
rightKerningGroup = N;
rightMetricsKey = N;
unicode = 004A;
},
{
glyphname = K;
lastChange = "2024-06-23 12:30:21 +0000";
layers = (
{
hints = (
{
horizontal = 1;
place = "{-1, 21}";
target = up;
type = BottomGhost;
},
{
place = "{61, 112}";
type = Stem;
},
{
horizontal = 1;
place = "{0, 21}";
target = up;
type = BottomGhost;
},
{
place = "{61, 111}";
type = Stem;
}
);
layerId = "BDC5E74B-1A26-4A4F-8F6D-86B4D4C65685";
paths = (
{
closed = 1;
nodes = (
"172 -1 LINE",
"172 249 LINE",
"275 355 LINE",
"533 0 LINE",
"655 0 LINE",
"344 425 LINE",
"624 711 LINE",
"489 711 LINE",
"171 388 LINE",
"172 712 LINE",
"61 712 LINE",
"60 -1 LINE"
);
}
);
width = 635;
}
);
leftKerningGroup = N;
leftMetricsKey = N;
note = K;
unicode = 004B;
},
{
glyphname = L;
lastChange = "2024-06-23 14:07:02 +0000";
layers = (
{
hints = (
{
horizontal = 1;
place = "{-1, 90}";
type = Stem;
},
{
place = "{60, 112}";
type = Stem;
}
);
layerId = "BDC5E74B-1A26-4A4F-8F6D-86B4D4C65685";
paths = (
{
closed = 1;
nodes = (
"526 -1 LINE",
"526 89 LINE",
"254 89 LINE",
"172 88 LINE",
"172 710 LINE",
"60 710 LINE",
"60 -1 LINE"
);
}
);
width = 556;
}
);
leftKerningGroup = N;
leftMetricsKey = N;
note = L;
unicode = 004C;
},
{
glyphname = M;
lastChange = "2024-06-23 12:30:36 +0000";
layers = (
{
hints = (
{
horizontal = 1;
place = "{-1, 21}";
target = up;
type = BottomGhost;
},
{
place = "{60, 112}";
type = Stem;
},
{
place = "{709, 112}";
type = Stem;
},
{
horizontal = 1;
place = "{-1, 129}";
type = Stem;
}
);
layerId = "BDC5E74B-1A26-4A4F-8F6D-86B4D4C65685";
paths = (
{
closed = 1;
nodes = (
"491 244 LINE SMOOTH",
"477 212 OFFCURVE",
"459 168 OFFCURVE",
"443 128 CURVE",
"427 168 OFFCURVE",
"410 212 OFFCURVE",
"396 244 CURVE SMOOTH",
"188 710 LINE",
"60 710 LINE",
"60 -1 LINE",
"172 -1 LINE",
"172 503 LINE",
"183 475 OFFCURVE",
"194 449 OFFCURVE",
"202 432 CURVE SMOOTH",
"393 -1 LINE",
"494 -1 LINE",
"685 432 LINE SMOOTH",
"691 446 OFFCURVE",
"700 466 OFFCURVE",
"709 489 CURVE",
"709 -1 LINE",
"821 -1 LINE",
"821 710 LINE",
"699 710 LINE"
);
}
);
width = 882;
}
);
leftKerningGroup = N;
leftMetricsKey = N;
note = M;
rightKerningGroup = N;
rightMetricsKey = N;
unicode = 004D;
},
{
glyphname = N;
lastChange = "2024-06-23 12:30:40 +0000";
layers = (
{
hints = (
{
horizontal = 1;
place = "{-1, 21}";
target = up;
type = BottomGhost;
},
{
place = "{60, 112}";
type = Stem;
},
{
place = "{494, 111}";
type = Stem;
}
);
layerId = "BDC5E74B-1A26-4A4F-8F6D-86B4D4C65685";
paths = (
{
closed = 1;
nodes = (
"494 188 LINE",
"482 210 OFFCURVE",
"471 228 OFFCURVE",
"462 243 CURVE SMOOTH",
"167 710 LINE",
"60 710 LINE",
"60 -1 LINE",
"172 -1 LINE",
"172 520 LINE",
"218 443 LINE",
"499 -1 LINE",
"605 -1 LINE",
"605 710 LINE",
"494 710 LINE"
);
}
);
width = 665;
}
);
note = N;
unicode = 004E;
},
{
glyphname = Ntilde;
lastChange = "2024-06-23 12:28:34 +0000";
layers = (
{
hints = (
{
horizontal = 1;
place = "{-1, 21}";
target = up;
type = BottomGhost;
},
{
place = "{60, 112}";
type = Stem;
},
{
place = "{494, 111}";
type = Stem;
}
);
layerId = "BDC5E74B-1A26-4A4F-8F6D-86B4D4C65685";
paths = (
{
closed = 1;
nodes = (
"494 188 LINE",
"482 210 OFFCURVE",
"471 228 OFFCURVE",
"462 243 CURVE SMOOTH",
"167 710 LINE",
"60 710 LINE",
"60 -1 LINE",
"172 -1 LINE",
"172 520 LINE",
"218 443 LINE",
"499 -1 LINE",
"605 -1 LINE",
"605 710 LINE",
"494 710 LINE"
);
}
);
width = 666;
}
);
leftMetricsKey = N;
note = Ntilde;
rightMetricsKey = N;
unicode = 00D1;
},
{
glyphname = O;
lastChange = "2024-06-22 14:15:31 +0000";
layers = (
{
hints = (
{
horizontal = 1;
place = "{-16, 91}";
type = Stem;
},
{
horizontal = 1;
place = "{634, 91}";
type = Stem;
},
{
place = "{32, 115}";
type = Stem;
},
{
place = "{612, 114}";
type = Stem;
}
);
layerId = "BDC5E74B-1A26-4A4F-8F6D-86B4D4C65685";
paths = (
{
closed = 1;
nodes = (
"582 -16 OFFCURVE",
"726 138 OFFCURVE",
"726 354 CURVE SMOOTH",
"726 572 OFFCURVE",
"584 725 OFFCURVE",
"379 725 CURVE SMOOTH",
"176 725 OFFCURVE",
"32 570 OFFCURVE",
"32 354 CURVE SMOOTH",
"32 139 OFFCURVE",
"177 -16 OFFCURVE",
"379 -16 CURVE SMOOTH"
);
},
{
closed = 1;
nodes = (
"147 518 OFFCURVE",
"241 634 OFFCURVE",
"378 634 CURVE SMOOTH",
"518 634 OFFCURVE",
"612 520 OFFCURVE",
"612 353 CURVE SMOOTH",
"612 190 OFFCURVE",
"516 75 OFFCURVE",
"378 75 CURVE SMOOTH",
"242 75 OFFCURVE",
"147 191 OFFCURVE",
"147 353 CURVE SMOOTH"
);
}
);
width = 758;
}
);
note = O;
unicode = 004F;
},
{
glyphname = Oacute;
lastChange = "2024-06-22 14:15:31 +0000";
layers = (
{
hints = (
{
horizontal = 1;
place = "{-16, 91}";
type = Stem;
},
{
horizontal = 1;
place = "{634, 141}";
type = Stem;
},
{
place = "{32, 115}";
type = Stem;
},
{
place = "{612, 114}";
type = Stem;
},
{
horizontal = 1;
place = "{634, 91}";
type = Stem;
}
);
layerId = "BDC5E74B-1A26-4A4F-8F6D-86B4D4C65685";
paths = (
{
closed = 1;
nodes = (
"293 775 LINE",
"342 822 LINE SMOOTH",
"373 852 OFFCURVE",
"415 888 OFFCURVE",
"415 888 CURVE",
"528 888 LINE",
"528 888 OFFCURVE",
"486 844 OFFCURVE",
"450 809 CURVE SMOOTH",
"415 775 LINE"
);
},
{
closed = 1;
nodes = (
"582 -16 OFFCURVE",
"726 138 OFFCURVE",
"726 354 CURVE SMOOTH",
"726 572 OFFCURVE",
"584 725 OFFCURVE",
"379 725 CURVE SMOOTH",
"176 725 OFFCURVE",
"32 570 OFFCURVE",
"32 354 CURVE SMOOTH",
"32 139 OFFCURVE",
"177 -16 OFFCURVE",
"379 -16 CURVE SMOOTH"
);
},
{
closed = 1;
nodes = (
"147 518 OFFCURVE",
"241 634 OFFCURVE",
"378 634 CURVE SMOOTH",
"518 634 OFFCURVE",
"612 520 OFFCURVE",
"612 353 CURVE SMOOTH",
"612 190 OFFCURVE",
"516 75 OFFCURVE",
"378 75 CURVE SMOOTH",
"242 75 OFFCURVE",
"147 191 OFFCURVE",
"147 353 CURVE SMOOTH"
);
}
);
width = 758;
}
);
note = Oacute;
unicode = 00D3;
},
{
glyphname = Ocircumflex;
lastChange = "2024-06-22 14:15:31 +0000";
layers = (
{
hints = (
{
horizontal = 1;
place = "{-16, 91}";
type = Stem;
},
{
horizontal = 1;
place = "{634, 91}";
type = Stem;
},
{
horizontal = 1;
place = "{775, 113}";
type = Stem;
},
{
place = "{32, 115}";
type = Stem;
},
{
place = "{612, 114}";
type = Stem;
},
{
horizontal = 1;
place = "{823, 65}";
type = Stem;
}
);
layerId = "BDC5E74B-1A26-4A4F-8F6D-86B4D4C65685";
paths = (
{
closed = 1;
nodes = (
"328 888 LINE",
"257 775 LINE",
"347 775 LINE",
"378 823 LINE",
"408 775 LINE",
"500 775 LINE",
"428 888 LINE"
);
},
{
closed = 1;
nodes = (
"582 -16 OFFCURVE",
"726 138 OFFCURVE",
"726 354 CURVE SMOOTH",
"726 572 OFFCURVE",
"584 725 OFFCURVE",
"379 725 CURVE SMOOTH",
"176 725 OFFCURVE",
"32 570 OFFCURVE",
"32 354 CURVE SMOOTH",
"32 139 OFFCURVE",
"177 -16 OFFCURVE",
"379 -16 CURVE SMOOTH"
);
},
{
closed = 1;
nodes = (
"147 518 OFFCURVE",
"241 634 OFFCURVE",
"378 634 CURVE SMOOTH",
"518 634 OFFCURVE",
"612 520 OFFCURVE",
"612 353 CURVE SMOOTH",
"612 190 OFFCURVE",
"516 75 OFFCURVE",
"378 75 CURVE SMOOTH",
"242 75 OFFCURVE",
"147 191 OFFCURVE",
"147 353 CURVE SMOOTH"
);
}
);
width = 758;
}
);
note = Ocircumflex;
unicode = 00D4;
},
{
glyphname = Odieresis;
lastChange = "2024-06-22 14:15:31 +0000";
layers = (
{
hints = (
{
horizontal = 1;
place = "{-16, 91}";
type = Stem;
},
{
horizontal = 1;
place = "{634, 91}";
type = Stem;
},
{
horizontal = 1;
place = "{758, 129}";
type = Stem;
},
{
place = "{32, 115}";
type = Stem;
},
{
place = "{207, 130}";
type = Stem;
},
{
place = "{396, 130}";
type = Stem;
},
{
place = "{612, 114}";
type = Stem;
}
);
layerId = "BDC5E74B-1A26-4A4F-8F6D-86B4D4C65685";
paths = (
{
closed = 1;
nodes = (
"207 785 OFFCURVE",
"236 758 OFFCURVE",
"272 758 CURVE SMOOTH",
"309 758 OFFCURVE",
"337 785 OFFCURVE",
"337 822 CURVE SMOOTH",
"337 859 OFFCURVE",
"309 887 OFFCURVE",
"272 887 CURVE SMOOTH",
"236 887 OFFCURVE",
"207 859 OFFCURVE",
"207 822 CURVE SMOOTH"
);
},
{
closed = 1;
nodes = (
"396 785 OFFCURVE",
"425 758 OFFCURVE",
"461 758 CURVE SMOOTH",
"498 758 OFFCURVE",
"526 785 OFFCURVE",
"526 822 CURVE SMOOTH",
"526 859 OFFCURVE",
"498 887 OFFCURVE",
"461 887 CURVE SMOOTH",
"425 887 OFFCURVE",
"396 859 OFFCURVE",
"396 822 CURVE SMOOTH"
);
},
{
closed = 1;
nodes = (
"582 -16 OFFCURVE",
"726 138 OFFCURVE",
"726 354 CURVE SMOOTH",
"726 572 OFFCURVE",
"584 725 OFFCURVE",
"379 725 CURVE SMOOTH",
"176 725 OFFCURVE",
"32 570 OFFCURVE",
"32 354 CURVE SMOOTH",
"32 139 OFFCURVE",
"177 -16 OFFCURVE",
"379 -16 CURVE SMOOTH"
);
},
{
closed = 1;
nodes = (
"147 518 OFFCURVE",
"241 634 OFFCURVE",
"378 634 CURVE SMOOTH",
"518 634 OFFCURVE",
"612 520 OFFCURVE",
"612 353 CURVE SMOOTH",
"612 190 OFFCURVE",
"516 75 OFFCURVE",
"378 75 CURVE SMOOTH",
"242 75 OFFCURVE",
"147 191 OFFCURVE",
"147 353 CURVE SMOOTH"
);
}
);
width = 758;
}
);
note = Odieresis;
unicode = 00D6;
},
{
glyphname = Ograve;
lastChange = "2024-06-22 14:15:31 +0000";
layers = (
{
hints = (
{
horizontal = 1;
place = "{-16, 91}";
type = Stem;
},
{
horizontal = 1;
place = "{634, 91}";
type = Stem;
},
{
place = "{32, 115}";
type = Stem;
},
{
place = "{612, 114}";
type = Stem;
},
{
horizontal = 1;
place = "{634, 140}";
type = Stem;
}
);
layerId = "BDC5E74B-1A26-4A4F-8F6D-86B4D4C65685";
paths = (
{
closed = 1;
nodes = (
"348 808 LINE SMOOTH",
"312 843 OFFCURVE",
"270 887 OFFCURVE",
"270 887 CURVE",
"383 887 LINE",
"383 887 OFFCURVE",
"425 851 OFFCURVE",
"456 821 CURVE SMOOTH",
"505 774 LINE",
"383 774 LINE"
);
},
{
closed = 1;
nodes = (
"582 -16 OFFCURVE",
"726 138 OFFCURVE",
"726 354 CURVE SMOOTH",
"726 572 OFFCURVE",
"584 725 OFFCURVE",
"379 725 CURVE SMOOTH",
"176 725 OFFCURVE",
"32 570 OFFCURVE",
"32 354 CURVE SMOOTH",
"32 139 OFFCURVE",
"177 -16 OFFCURVE",
"379 -16 CURVE SMOOTH"
);
},
{
closed = 1;
nodes = (
"147 518 OFFCURVE",
"241 634 OFFCURVE",
"378 634 CURVE SMOOTH",
"518 634 OFFCURVE",
"612 520 OFFCURVE",
"612 353 CURVE SMOOTH",
"612 190 OFFCURVE",
"516 75 OFFCURVE",
"378 75 CURVE SMOOTH",
"242 75 OFFCURVE",
"147 191 OFFCURVE",
"147 353 CURVE SMOOTH"
);
}
);
width = 758;
}
);
note = Ograve;
unicode = 00D2;
},
{
glyphname = Oslash;
lastChange = "2024-06-22 14:15:31 +0000";
layers = (
{
hints = (
{
horizontal = 1;
place = "{-16, 91}";
type = Stem;
},
{
horizontal = 1;
place = "{634, 91}";
type = Stem;
},
{
place = "{32, 115}";
type = Stem;
},
{
place = "{612, 114}";
type = Stem;
},
{
horizontal = 1;
place = "{652, 74}";
type = Stem;
}
);
layerId = "BDC5E74B-1A26-4A4F-8F6D-86B4D4C65685";
paths = (
{
closed = 1;
nodes = (
"640 726 LINE",
"526 726 LINE",
"512 701 LINE",
"471 717 OFFCURVE",
"427 725 OFFCURVE",
"379 725 CURVE SMOOTH",
"176 725 OFFCURVE",
"32 570 OFFCURVE",
"32 354 CURVE SMOOTH",
"32 237 OFFCURVE",
"75 138 OFFCURVE",
"147 72 CURVE",
"96 -16 LINE",
"210 -16 LINE",
"229 16 LINE",
"273 -5 OFFCURVE",
"324 -16 OFFCURVE",
"379 -16 CURVE SMOOTH",
"582 -16 OFFCURVE",
"726 138 OFFCURVE",
"726 354 CURVE SMOOTH",
"726 481 OFFCURVE",
"678 586 OFFCURVE",
"597 652 CURVE"
);
},
{
closed = 1;
nodes = (
"147 518 OFFCURVE",
"241 634 OFFCURVE",
"378 634 CURVE SMOOTH",
"409 634 OFFCURVE",
"438 628 OFFCURVE",
"463 618 CURVE",
"202 166 LINE",
"167 214 OFFCURVE",
"147 279 OFFCURVE",
"147 353 CURVE SMOOTH"
);
},
{
closed = 1;
nodes = (
"341 75 OFFCURVE",
"307 84 OFFCURVE",
"277 99 CURVE",
"544 560 LINE",
"587 511 OFFCURVE",
"612 439 OFFCURVE",
"612 353 CURVE SMOOTH",
"612 190 OFFCURVE",
"516 75 OFFCURVE",
"378 75 CURVE SMOOTH"
);
}
);
width = 750;
}
);
note = Oslash;
unicode = 00D8;
},
{
glyphname = Otilde;
lastChange = "2024-06-22 14:15:31 +0000";
layers = (
{
hints = (
{
horizontal = 1;
place = "{-16, 91}";
type = Stem;
},
{
horizontal = 1;
place = "{634, 91}";
type = Stem;
},
{
place = "{32, 115}";
type = Stem;
},
{
place = "{612, 114}";
type = Stem;
}
);
layerId = "BDC5E74B-1A26-4A4F-8F6D-86B4D4C65685";
paths = (
{
closed = 1;
nodes = (
"582 -16 OFFCURVE",
"726 138 OFFCURVE",
"726 354 CURVE SMOOTH",
"726 572 OFFCURVE",
"584 725 OFFCURVE",
"379 725 CURVE SMOOTH",
"176 725 OFFCURVE",
"32 570 OFFCURVE",
"32 354 CURVE SMOOTH",
"32 139 OFFCURVE",
"177 -16 OFFCURVE",
"379 -16 CURVE SMOOTH"
);
},
{
closed = 1;
nodes = (
"147 518 OFFCURVE",
"241 634 OFFCURVE",
"378 634 CURVE SMOOTH",
"518 634 OFFCURVE",
"612 520 OFFCURVE",
"612 353 CURVE SMOOTH",
"612 190 OFFCURVE",
"516 75 OFFCURVE",
"378 75 CURVE SMOOTH",
"242 75 OFFCURVE",
"147 191 OFFCURVE",
"147 353 CURVE SMOOTH"
);
}
);
width = 758;
}
);
note = Otilde;
unicode = 00D5;
},
{
glyphname = OE;
lastChange = "2024-06-23 12:31:02 +0000";
layers = (
{
hints = (
{
horizontal = 1;
place = "{0, 86}";
type = Stem;
},
{
horizontal = 1;
place = "{314, 87}";
type = Stem;
},
{
horizontal = 1;
place = "{634, 91}";
type = Stem;
},
{
place = "{32, 115}";
type = Stem;
},
{
place = "{602, 112}";
type = Stem;
},
{
horizontal = 1;
place = "{624, 86}";
type = Stem;
},
{
horizontal = 1;
place = "{-16, 91}";
type = Stem;
}
);
layerId = "BDC5E74B-1A26-4A4F-8F6D-86B4D4C65685";
paths = (
{
closed = 1;
nodes = (
"796 86 LINE",
"714 85 LINE",
"714 250 LINE",
"719 271 OFFCURVE",
"723 292 OFFCURVE",
"724 315 CURVE",
"746 315 OFFCURVE",
"777 314 OFFCURVE",
"796 314 CURVE SMOOTH",
"1059 314 LINE",
"1059 401 LINE",
"796 401 LINE SMOOTH",
"777 401 OFFCURVE",
"746 400 OFFCURVE",
"724 400 CURVE",
"722 421 OFFCURVE",
"719 440 OFFCURVE",
"714 459 CURVE",
"714 624 LINE",
"796 624 LINE",
"1069 624 LINE",
"1069 710 LINE",
"602 710 LINE",
"602 647 LINE",
"543 697 OFFCURVE",
"467 725 OFFCURVE",
"379 725 CURVE SMOOTH",
"176 725 OFFCURVE",
"32 570 OFFCURVE",
"32 354 CURVE SMOOTH",
"32 139 OFFCURVE",
"177 -16 OFFCURVE",
"379 -16 CURVE SMOOTH",
"467 -16 OFFCURVE",
"543 13 OFFCURVE",
"602 63 CURVE",
"602 0 LINE",
"1078 0 LINE",
"1078 86 LINE"
);
},
{
closed = 1;
nodes = (
"242 75 OFFCURVE",
"147 191 OFFCURVE",
"147 353 CURVE SMOOTH",
"147 518 OFFCURVE",
"241 634 OFFCURVE",
"378 634 CURVE SMOOTH",
"491 634 OFFCURVE",
"574 559 OFFCURVE",
"602 443 CURVE",
"602 266 LINE",
"574 150 OFFCURVE",
"490 75 OFFCURVE",
"378 75 CURVE SMOOTH"
);
}
);
width = 1139;
}
);
leftKerningGroup = E;
leftMetricsKey = O;
note = OE;
rightKerningGroup = E;
rightMetricsKey = E;
unicode = 0152;
},
{
glyphname = P;
lastChange = "2024-06-23 12:30:53 +0000";
layers = (
{
hints = (
{
horizontal = 1;
place = "{-1, 21}";
target = up;
type = BottomGhost;
},
{
horizontal = 1;
place = "{270, 85}";
type = Stem;
},
{
horizontal = 1;
place = "{624, 86}";
type = Stem;
},
{
place = "{60, 112}";
type = Stem;
},
{
place = "{489, 112}";
type = Stem;
}
);
layerId = "BDC5E74B-1A26-4A4F-8F6D-86B4D4C65685";
paths = (
{
closed = 1;
nodes = (
"392 270 LINE SMOOTH",
"515 270 OFFCURVE",
"601 360 OFFCURVE",
"601 490 CURVE SMOOTH",
"601 620 OFFCURVE",
"516 710 OFFCURVE",
"392 710 CURVE SMOOTH",
"60 710 LINE",
"60 -1 LINE",
"172 -1 LINE",
"172 270 LINE"
);
},
{
closed = 1;
nodes = (
"172 624 LINE",
"382 624 LINE SMOOTH",
"447 624 OFFCURVE",
"489 571 OFFCURVE",
"489 489 CURVE SMOOTH",
"489 410 OFFCURVE",
"446 355 OFFCURVE",
"382 355 CURVE SMOOTH",
"172 356 LINE"
);
}
);
width = 629;
}
);
leftKerningGroup = N;
leftMetricsKey = N;
note = P;
rightKerningGroup = B;
rightMetricsKey = B;
unicode = 0050;
},
{
glyphname = Thorn;
lastChange = "2024-06-23 12:30:53 +0000";
layers = (
{
hints = (
{
horizontal = 1;
place = "{-1, 21}";
target = up;
type = BottomGhost;
},
{
horizontal = 1;
place = "{159, 85}";
type = Stem;
},
{
horizontal = 1;
place = "{513, 86}";
type = Stem;
},
{
place = "{60, 112}";
type = Stem;
},
{
place = "{489, 112}";
type = Stem;
}
);
layerId = "BDC5E74B-1A26-4A4F-8F6D-86B4D4C65685";
paths = (
{
closed = 1;
nodes = (
"172 -1 LINE",
"172 159 LINE",
"392 159 LINE SMOOTH",
"515 159 OFFCURVE",
"601 250 OFFCURVE",
"601 379 CURVE SMOOTH",
"601 510 OFFCURVE",
"516 599 OFFCURVE",
"392 599 CURVE SMOOTH",
"172 599 LINE",
"172 710 LINE",
"60 710 LINE",
"60 -1 LINE"
);
},
{
closed = 1;
nodes = (
"172 513 LINE",
"382 513 LINE SMOOTH",
"447 513 OFFCURVE",
"489 460 OFFCURVE",
"489 378 CURVE SMOOTH",
"489 299 OFFCURVE",
"446 244 OFFCURVE",
"382 244 CURVE SMOOTH",
"172 245 LINE"
);
}
);
width = 629;
}
);
leftKerningGroup = N;
leftMetricsKey = N;
note = Thorn;
rightKerningGroup = B;
rightMetricsKey = B;
unicode = 00DE;
},
{
glyphname = Q;
lastChange = "2024-06-22 14:15:31 +0000";
layers = (
{
hints = (
{
horizontal = 1;
place = "{-16, 91}";
type = Stem;
},
{
horizontal = 1;
place = "{634, 91}";
type = Stem;
},
{
place = "{28, 115}";
type = Stem;
},
{
place = "{608, 114}";
type = Stem;
},
{
horizontal = 1;
place = "{-16, 194}";
type = Stem;
}
);
layerId = "BDC5E74B-1A26-4A4F-8F6D-86B4D4C65685";
paths = (
{
closed = 1;
nodes = (
"579 48 LINE",
"670 115 OFFCURVE",
"722 226 OFFCURVE",
"722 354 CURVE SMOOTH",
"722 572 OFFCURVE",
"580 725 OFFCURVE",
"375 725 CURVE SMOOTH",
"172 725 OFFCURVE",
"28 570 OFFCURVE",
"28 354 CURVE SMOOTH",
"28 139 OFFCURVE",
"173 -16 OFFCURVE",
"375 -16 CURVE SMOOTH",
"416 -16 OFFCURVE",
"456 -9 OFFCURVE",
"491 3 CURVE",
"537 -56 LINE",
"661 -56 LINE"
);
},
{
closed = 1;
nodes = (
"143 518 OFFCURVE",
"237 634 OFFCURVE",
"374 634 CURVE SMOOTH",
"514 634 OFFCURVE",
"608 520 OFFCURVE",
"608 353 CURVE SMOOTH",
"608 259 OFFCURVE",
"574 175 OFFCURVE",
"517 126 CURVE",
"476 178 LINE",
"353 178 LINE",
"429 81 LINE",
"412 77 OFFCURVE",
"394 75 OFFCURVE",
"374 75 CURVE SMOOTH",
"238 75 OFFCURVE",
"143 191 OFFCURVE",
"143 353 CURVE SMOOTH"
);
}
);
width = 750;
}
);
note = Q;
unicode = 0051;
},
{
glyphname = R;
lastChange = "2024-06-23 12:31:11 +0000";
layers = (
{
hints = (
{
horizontal = 1;
place = "{-1, 21}";
target = up;
type = BottomGhost;
},
{
horizontal = 1;
place = "{266, 85}";
type = Stem;
},
{
horizontal = 1;
place = "{624, 86}";
type = Stem;
},
{
place = "{60, 112}";
type = Stem;
},
{
place = "{489, 112}";
type = Stem;
}
);
layerId = "BDC5E74B-1A26-4A4F-8F6D-86B4D4C65685";
paths = (
{
closed = 1;
nodes = (
"340 266 LINE",
"526 -1 LINE",
"647 -1 LINE",
"454 275 LINE",
"544 300 OFFCURVE",
"601 382 OFFCURVE",
"601 488 CURVE SMOOTH",
"601 619 OFFCURVE",
"516 710 OFFCURVE",
"392 710 CURVE SMOOTH",
"60 710 LINE",
"60 -1 LINE",
"172 -1 LINE",
"172 266 LINE"
);
},
{
closed = 1;
nodes = (
"172 624 LINE",
"382 624 LINE SMOOTH",
"445 624 OFFCURVE",
"489 567 OFFCURVE",
"489 487 CURVE SMOOTH",
"489 409 OFFCURVE",
"444 351 OFFCURVE",
"382 351 CURVE SMOOTH",
"172 352 LINE"
);
}
);
width = 675;
}
);
leftKerningGroup = N;
leftMetricsKey = N;
note = R;
rightKerningGroup = B;
rightMetricsKey = B;
unicode = 0052;
},
{
glyphname = S;
lastChange = "2024-06-22 14:15:31 +0000";
layers = (
{
hints = (
{
horizontal = 1;
place = "{-16, 90}";
type = Stem;
},
{
horizontal = 1;
place = "{635, 91}";
type = Stem;
},
{
place = "{51, 115}";
type = Stem;
},
{
place = "{517, 115}";
type = Stem;
}
);
layerId = "BDC5E74B-1A26-4A4F-8F6D-86B4D4C65685";
paths = (
{
closed = 1;
nodes = (
"512 -22 OFFCURVE",
"632 63 OFFCURVE",
"632 197 CURVE SMOOTH",
"632 351 OFFCURVE",
"482 386 OFFCURVE",
"366 414 CURVE SMOOTH",
"246 444 OFFCURVE",
"166 469 OFFCURVE",
"166 538 CURVE SMOOTH",
"166 596 OFFCURVE",
"227 635 OFFCURVE",
"316 635 CURVE SMOOTH",
"431 635 OFFCURVE",
"490 589 OFFCURVE",
"500 493 CURVE",
"611 492 LINE",
"598 637 OFFCURVE",
"492 726 OFFCURVE",
"333 726 CURVE SMOOTH",
"160 726 OFFCURVE",
"51 650 OFFCURVE",
"51 527 CURVE SMOOTH",
"51 390 OFFCURVE",
"204 354 OFFCURVE",
"324 327 CURVE SMOOTH",
"468 295 OFFCURVE",
"518 260 OFFCURVE",
"517 192 CURVE SMOOTH",
"516 121 OFFCURVE",
"447 71 OFFCURVE",
"353 74 CURVE SMOOTH",
"217 78 OFFCURVE",
"151 130 OFFCURVE",
"139 244 CURVE",
"28 246 LINE",
"36 87 OFFCURVE",
"151 -11 OFFCURVE",
"332 -16 CURVE SMOOTH"
);
}
);
width = 660;
}
);
note = S;
unicode = 0053;
},
{
glyphname = T;
lastChange = "2024-06-23 12:31:29 +0000";
layers = (
{
hints = (
{
horizontal = 1;
place = "{-1, 21}";
target = up;
type = BottomGhost;
},
{
horizontal = 1;
place = "{624, 86}";
type = Stem;
},
{
place = "{214, 112}";
type = Stem;
}
);
layerId = "BDC5E74B-1A26-4A4F-8F6D-86B4D4C65685";
paths = (
{
closed = 1;
nodes = (
"339 -1 LINE",
"339 535 LINE SMOOTH",
"339 562 OFFCURVE",
"337 605 OFFCURVE",
"336 624 CURVE",
"559 624 LINE",
"559 710 LINE",
"5 710 LINE",
"5 624 LINE",
"228 624 LINE",
"228 605 OFFCURVE",
"227 562 OFFCURVE",
"227 535 CURVE SMOOTH",
"227 -1 LINE"
);
}
);
width = 564;
}
);
leftMetricsKey = Y;
note = T;
rightKerningGroup = T;
rightMetricsKey = Y;
unicode = 0054;
},
{
glyphname = U;
lastChange = "2024-06-23 12:31:33 +0000";
layers = (
{
hints = (
{
horizontal = 1;
place = "{-16, 91}";
type = Stem;
},
{
place = "{60, 112}";
type = Stem;
},
{
place = "{502, 111}";
type = Stem;
}
);
layerId = "BDC5E74B-1A26-4A4F-8F6D-86B4D4C65685";
paths = (
{
closed = 1;
nodes = (
"513 -16 OFFCURVE",
"613 97 OFFCURVE",
"613 296 CURVE SMOOTH",
"613 710 LINE",
"502 710 LINE",
"502 275 LINE SMOOTH",
"502 146 OFFCURVE",
"441 75 OFFCURVE",
"336 75 CURVE SMOOTH",
"232 75 OFFCURVE",
"172 147 OFFCURVE",
"172 275 CURVE SMOOTH",
"172 710 LINE",
"60 710 LINE",
"60 296 LINE SMOOTH",
"60 98 OFFCURVE",
"161 -16 OFFCURVE",
"337 -16 CURVE SMOOTH"
);
}
);
width = 674;
}
);
leftKerningGroup = N;
leftMetricsKey = N;
note = U;
rightKerningGroup = N;
rightMetricsKey = N;
unicode = 0055;
},
{
glyphname = Uacute;
lastChange = "2024-06-23 12:31:37 +0000";
layers = (
{
hints = (
{
horizontal = 1;
place = "{-16, 91}";
type = Stem;
},
{
place = "{60, 112}";
type = Stem;
},
{
place = "{502, 111}";
type = Stem;
}
);
layerId = "BDC5E74B-1A26-4A4F-8F6D-86B4D4C65685";
paths = (
{
closed = 1;
nodes = (
"320 771 LINE",
"369 818 LINE SMOOTH",
"400 848 OFFCURVE",
"442 884 OFFCURVE",
"442 884 CURVE",
"555 884 LINE",
"555 884 OFFCURVE",
"513 840 OFFCURVE",
"477 805 CURVE SMOOTH",
"442 771 LINE"
);
},
{
closed = 1;
nodes = (
"513 -16 OFFCURVE",
"613 97 OFFCURVE",
"613 296 CURVE SMOOTH",
"613 710 LINE",
"502 710 LINE",
"502 275 LINE SMOOTH",
"502 146 OFFCURVE",
"441 75 OFFCURVE",
"336 75 CURVE SMOOTH",
"232 75 OFFCURVE",
"172 147 OFFCURVE",
"172 275 CURVE SMOOTH",
"172 710 LINE",
"60 710 LINE",
"60 296 LINE SMOOTH",
"60 98 OFFCURVE",
"161 -16 OFFCURVE",
"337 -16 CURVE SMOOTH"
);
}
);
width = 674;
}
);
leftKerningGroup = N;
leftMetricsKey = N;
note = Uacute;
rightKerningGroup = N;
rightMetricsKey = N;
unicode = 00DA;
},
{
glyphname = Ucircumflex;
lastChange = "2024-06-23 12:31:37 +0000";
layers = (
{
hints = (
{
horizontal = 1;
place = "{-16, 91}";
type = Stem;
},
{
horizontal = 1;
place = "{771, 113}";
type = Stem;
},
{
place = "{60, 112}";
type = Stem;
},
{
place = "{502, 111}";
type = Stem;
},
{
horizontal = 1;
place = "{819, 65}";
type = Stem;
}
);
layerId = "BDC5E74B-1A26-4A4F-8F6D-86B4D4C65685";
paths = (
{
closed = 1;
nodes = (
"347 884 LINE",
"276 771 LINE",
"366 771 LINE",
"397 819 LINE",
"427 771 LINE",
"519 771 LINE",
"447 884 LINE"
);
},
{
closed = 1;
nodes = (
"513 -16 OFFCURVE",
"613 97 OFFCURVE",
"613 296 CURVE SMOOTH",
"613 710 LINE",
"502 710 LINE",
"502 275 LINE SMOOTH",
"502 146 OFFCURVE",
"441 75 OFFCURVE",
"336 75 CURVE SMOOTH",
"232 75 OFFCURVE",
"172 147 OFFCURVE",
"172 275 CURVE SMOOTH",
"172 710 LINE",
"60 710 LINE",
"60 296 LINE SMOOTH",
"60 98 OFFCURVE",
"161 -16 OFFCURVE",
"337 -16 CURVE SMOOTH"
);
}
);
width = 674;
}
);
leftKerningGroup = N;
leftMetricsKey = N;
note = Ucircumflex;
rightKerningGroup = N;
rightMetricsKey = N;
unicode = 00DB;
},
{
glyphname = Udieresis;
lastChange = "2024-06-23 12:31:37 +0000";
layers = (
{
hints = (
{
horizontal = 1;
place = "{-16, 91}";
type = Stem;
},
{
horizontal = 1;
place = "{757, 129}";
type = Stem;
},
{
place = "{176, 130}";
type = Stem;
},
{
place = "{365, 130}";
type = Stem;
},
{
place = "{60, 112}";
type = Stem;
},
{
place = "{502, 111}";
type = Stem;
}
);
layerId = "BDC5E74B-1A26-4A4F-8F6D-86B4D4C65685";
paths = (
{
closed = 1;
nodes = (
"176 784 OFFCURVE",
"205 757 OFFCURVE",
"241 757 CURVE SMOOTH",
"278 757 OFFCURVE",
"306 784 OFFCURVE",
"306 821 CURVE SMOOTH",
"306 858 OFFCURVE",
"278 886 OFFCURVE",
"241 886 CURVE SMOOTH",
"205 886 OFFCURVE",
"176 858 OFFCURVE",
"176 821 CURVE SMOOTH"
);
},
{
closed = 1;
nodes = (
"365 784 OFFCURVE",
"394 757 OFFCURVE",
"430 757 CURVE SMOOTH",
"467 757 OFFCURVE",
"495 784 OFFCURVE",
"495 821 CURVE SMOOTH",
"495 858 OFFCURVE",
"467 886 OFFCURVE",
"430 886 CURVE SMOOTH",
"394 886 OFFCURVE",
"365 858 OFFCURVE",
"365 821 CURVE SMOOTH"
);
},
{
closed = 1;
nodes = (
"513 -16 OFFCURVE",
"613 97 OFFCURVE",
"613 296 CURVE SMOOTH",
"613 710 LINE",
"502 710 LINE",
"502 275 LINE SMOOTH",
"502 146 OFFCURVE",
"441 75 OFFCURVE",
"336 75 CURVE SMOOTH",
"232 75 OFFCURVE",
"172 147 OFFCURVE",
"172 275 CURVE SMOOTH",
"172 710 LINE",
"60 710 LINE",
"60 296 LINE SMOOTH",
"60 98 OFFCURVE",
"161 -16 OFFCURVE",
"337 -16 CURVE SMOOTH"
);
}
);
width = 674;
}
);
leftKerningGroup = N;
leftMetricsKey = N;
note = Udieresis;
rightKerningGroup = N;
rightMetricsKey = N;
unicode = 00DC;
},
{
glyphname = Ugrave;
lastChange = "2024-06-23 12:31:37 +0000";
layers = (
{
hints = (
{
horizontal = 1;
place = "{-16, 91}";
type = Stem;
},
{
place = "{60, 112}";
type = Stem;
},
{
place = "{502, 111}";
type = Stem;
}
);
layerId = "BDC5E74B-1A26-4A4F-8F6D-86B4D4C65685";
paths = (
{
closed = 1;
nodes = (
"296 808 LINE SMOOTH",
"260 843 OFFCURVE",
"218 887 OFFCURVE",
"218 887 CURVE",
"331 887 LINE",
"331 887 OFFCURVE",
"373 851 OFFCURVE",
"404 821 CURVE SMOOTH",
"453 774 LINE",
"331 774 LINE"
);
},
{
closed = 1;
nodes = (
"513 -16 OFFCURVE",
"613 97 OFFCURVE",
"613 296 CURVE SMOOTH",
"613 710 LINE",
"502 710 LINE",
"502 275 LINE SMOOTH",
"502 146 OFFCURVE",
"441 75 OFFCURVE",
"336 75 CURVE SMOOTH",
"232 75 OFFCURVE",
"172 147 OFFCURVE",
"172 275 CURVE SMOOTH",
"172 710 LINE",
"60 710 LINE",
"60 296 LINE SMOOTH",
"60 98 OFFCURVE",
"161 -16 OFFCURVE",
"337 -16 CURVE SMOOTH"
);
}
);
width = 674;
}
);
leftKerningGroup = N;
leftMetricsKey = N;
note = Ugrave;
rightKerningGroup = N;
rightMetricsKey = N;
unicode = 00D9;
},
{
glyphname = V;
lastChange = "2024-06-23 12:27:28 +0000";
layers = (
{
hints = (
{
horizontal = 1;
place = "{-1, 21}";
target = up;
type = BottomGhost;
},
{
place = "{2, 599}";
type = Stem;
}
);
layerId = "BDC5E74B-1A26-4A4F-8F6D-86B4D4C65685";
paths = (
{
closed = 1;
nodes = (
"349 283 LINE SMOOTH",
"338 252 OFFCURVE",
"318 188 OFFCURVE",
"305 144 CURVE",
"291 188 OFFCURVE",
"272 252 OFFCURVE",
"261 283 CURVE SMOOTH",
"113 711 LINE",
"5 711 LINE",
"254 -1 LINE",
"358 -1 LINE",
"604 711 LINE",
"496 711 LINE"
);
}
);
width = 609;
}
);
note = V;
rightKerningGroup = V;
unicode = 0056;
},
{
glyphname = W;
lastChange = "2024-06-23 12:27:52 +0000";
layers = (
{
hints = (
{
horizontal = 1;
place = "{0, 21}";
target = up;
type = BottomGhost;
},
{
place = "{-10, 938}";
type = Stem;
}
);
layerId = "BDC5E74B-1A26-4A4F-8F6D-86B4D4C65685";
paths = (
{
closed = 1;
nodes = (
"708 279 LINE SMOOTH",
"701 255 OFFCURVE",
"690 212 OFFCURVE",
"681 175 CURVE",
"672 211 OFFCURVE",
"661 255 OFFCURVE",
"654 279 CURVE SMOOTH",
"525 711 LINE",
"423 711 LINE",
"294 277 LINE SMOOTH",
"287 254 OFFCURVE",
"276 210 OFFCURVE",
"267 174 CURVE",
"258 210 OFFCURVE",
"247 254 OFFCURVE",
"240 277 CURVE SMOOTH",
"113 711 LINE",
"5 711 LINE",
"217 0 LINE",
"316 0 LINE",
"474 527 LINE",
"632 0 LINE",
"730 0 LINE",
"943 711 LINE",
"835 711 LINE"
);
}
);
width = 948;
}
);
leftKerningGroup = V;
leftMetricsKey = V;
note = W;
rightKerningGroup = V;
rightMetricsKey = V;
unicode = 0057;
},
{
glyphname = Wacute;
lastChange = "2024-06-23 12:28:11 +0000";
layers = (
{
hints = (
{
horizontal = 1;
place = "{0, 21}";
target = up;
type = BottomGhost;
},
{
horizontal = 1;
place = "{771, 113}";
type = Stem;
},
{
place = "{-10, 938}";
type = Stem;
}
);
layerId = "BDC5E74B-1A26-4A4F-8F6D-86B4D4C65685";
paths = (
{
closed = 1;
nodes = (
"518 805 LINE SMOOTH",
"554 840 OFFCURVE",
"596 884 OFFCURVE",
"596 884 CURVE SMOOTH",
"483 884 LINE SMOOTH",
"483 884 OFFCURVE",
"441 848 OFFCURVE",
"410 818 CURVE SMOOTH",
"361 771 LINE",
"483 771 LINE"
);
},
{
closed = 1;
nodes = (
"708 279 LINE SMOOTH",
"701 255 OFFCURVE",
"690 212 OFFCURVE",
"681 175 CURVE",
"672 211 OFFCURVE",
"661 255 OFFCURVE",
"654 279 CURVE SMOOTH",
"525 711 LINE",
"423 711 LINE",
"294 277 LINE SMOOTH",
"287 254 OFFCURVE",
"276 210 OFFCURVE",
"267 174 CURVE",
"258 210 OFFCURVE",
"247 254 OFFCURVE",
"240 277 CURVE SMOOTH",
"113 711 LINE",
"5 711 LINE",
"217 0 LINE",
"316 0 LINE",
"474 527 LINE",
"632 0 LINE",
"730 0 LINE",
"943 711 LINE",
"835 711 LINE"
);
}
);
width = 948;
}
);
leftKerningGroup = V;
leftMetricsKey = V;
note = Wacute;
rightKerningGroup = V;
rightMetricsKey = V;
unicode = 1E82;
},
{
glyphname = Wcircumflex;
lastChange = "2024-06-23 12:28:11 +0000";
layers = (
{
hints = (
{
horizontal = 1;
place = "{0, 21}";
target = up;
type = BottomGhost;
},
{
horizontal = 1;
place = "{775, 113}";
type = Stem;
},
{
place = "{-10, 938}";
type = Stem;
},
{
horizontal = 1;
place = "{823, 65}";
type = Stem;
}
);
layerId = "BDC5E74B-1A26-4A4F-8F6D-86B4D4C65685";
paths = (
{
closed = 1;
nodes = (
"505 775 LINE",
"597 775 LINE",
"525 888 LINE",
"425 888 LINE",
"354 775 LINE",
"444 775 LINE",
"475 823 LINE"
);
},
{
closed = 1;
nodes = (
"708 279 LINE SMOOTH",
"701 255 OFFCURVE",
"690 212 OFFCURVE",
"681 175 CURVE",
"672 211 OFFCURVE",
"661 255 OFFCURVE",
"654 279 CURVE SMOOTH",
"525 711 LINE",
"423 711 LINE",
"294 277 LINE SMOOTH",
"287 254 OFFCURVE",
"276 210 OFFCURVE",
"267 174 CURVE",
"258 210 OFFCURVE",
"247 254 OFFCURVE",
"240 277 CURVE SMOOTH",
"113 711 LINE",
"5 711 LINE",
"217 0 LINE",
"316 0 LINE",
"474 527 LINE",
"632 0 LINE",
"730 0 LINE",
"943 711 LINE",
"835 711 LINE"
);
}
);
width = 948;
}
);
leftKerningGroup = V;
leftMetricsKey = V;
note = Wcircumflex;
rightKerningGroup = V;
rightMetricsKey = V;
unicode = 0174;
},
{
glyphname = Wdieresis;
lastChange = "2024-06-23 12:28:11 +0000";
layers = (
{
hints = (
{
horizontal = 1;
place = "{0, 21}";
target = up;
type = BottomGhost;
},
{
horizontal = 1;
place = "{757, 129}";
type = Stem;
},
{
place = "{300, 130}";
type = Stem;
},
{
place = "{489, 130}";
type = Stem;
}
);
layerId = "BDC5E74B-1A26-4A4F-8F6D-86B4D4C65685";
paths = (
{
closed = 1;
nodes = (
"417 757 OFFCURVE",
"445 784 OFFCURVE",
"445 821 CURVE SMOOTH",
"445 858 OFFCURVE",
"417 886 OFFCURVE",
"380 886 CURVE SMOOTH",
"344 886 OFFCURVE",
"315 858 OFFCURVE",
"315 821 CURVE SMOOTH",
"315 784 OFFCURVE",
"344 757 OFFCURVE",
"380 757 CURVE SMOOTH"
);
},
{
closed = 1;
nodes = (
"606 757 OFFCURVE",
"634 784 OFFCURVE",
"634 821 CURVE SMOOTH",
"634 858 OFFCURVE",
"606 886 OFFCURVE",
"569 886 CURVE SMOOTH",
"533 886 OFFCURVE",
"504 858 OFFCURVE",
"504 821 CURVE SMOOTH",
"504 784 OFFCURVE",
"533 757 OFFCURVE",
"569 757 CURVE SMOOTH"
);
},
{
closed = 1;
nodes = (
"708 279 LINE SMOOTH",
"701 255 OFFCURVE",
"690 212 OFFCURVE",
"681 175 CURVE",
"672 211 OFFCURVE",
"661 255 OFFCURVE",
"654 279 CURVE SMOOTH",
"525 711 LINE",
"423 711 LINE",
"294 277 LINE SMOOTH",
"287 254 OFFCURVE",
"276 210 OFFCURVE",
"267 174 CURVE",
"258 210 OFFCURVE",
"247 254 OFFCURVE",
"240 277 CURVE SMOOTH",
"113 711 LINE",
"5 711 LINE",
"217 0 LINE",
"316 0 LINE",
"474 527 LINE",
"632 0 LINE",
"730 0 LINE",
"943 711 LINE",
"835 711 LINE"
);
}
);
width = 948;
}
);
leftKerningGroup = V;
leftMetricsKey = V;
note = Wdieresis;
rightKerningGroup = V;
rightMetricsKey = V;
unicode = 1E84;
},
{
glyphname = Wgrave;
lastChange = "2024-06-23 12:28:11 +0000";
layers = (
{
hints = (
{
horizontal = 1;
place = "{0, 21}";
target = up;
type = BottomGhost;
},
{
horizontal = 1;
place = "{775, 113}";
type = Stem;
},
{
place = "{-10, 938}";
type = Stem;
}
);
layerId = "BDC5E74B-1A26-4A4F-8F6D-86B4D4C65685";
paths = (
{
closed = 1;
nodes = (
"501 775 LINE",
"623 775 LINE",
"574 822 LINE SMOOTH",
"543 852 OFFCURVE",
"501 888 OFFCURVE",
"501 888 CURVE SMOOTH",
"388 888 LINE SMOOTH",
"388 888 OFFCURVE",
"430 844 OFFCURVE",
"466 809 CURVE SMOOTH"
);
},
{
closed = 1;
nodes = (
"708 279 LINE SMOOTH",
"701 255 OFFCURVE",
"690 212 OFFCURVE",
"681 175 CURVE",
"672 211 OFFCURVE",
"661 255 OFFCURVE",
"654 279 CURVE SMOOTH",
"525 711 LINE",
"423 711 LINE",
"294 277 LINE SMOOTH",
"287 254 OFFCURVE",
"276 210 OFFCURVE",
"267 174 CURVE",
"258 210 OFFCURVE",
"247 254 OFFCURVE",
"240 277 CURVE SMOOTH",
"113 711 LINE",
"5 711 LINE",
"217 0 LINE",
"316 0 LINE",
"474 527 LINE",
"632 0 LINE",
"730 0 LINE",
"943 711 LINE",
"835 711 LINE"
);
}
);
width = 948;
}
);
leftKerningGroup = V;
leftMetricsKey = V;
note = Wgrave;
rightKerningGroup = V;
rightMetricsKey = V;
unicode = 1E80;
},
{
glyphname = X;
lastChange = "2024-06-22 14:15:31 +0000";
layers = (
{
hints = (
{
horizontal = 1;
place = "{0, 21}";
target = up;
type = BottomGhost;
},
{
place = "{10, 574}";
type = Stem;
},
{
horizontal = 1;
place = "{-1, 21}";
target = up;
type = BottomGhost;
}
);
layerId = "BDC5E74B-1A26-4A4F-8F6D-86B4D4C65685";
paths = (
{
closed = 1;
nodes = (
"185 451 LINE SMOOTH",
"199 428 OFFCURVE",
"230 380 OFFCURVE",
"239 365 CURVE",
"230 351 OFFCURVE",
"200 304 OFFCURVE",
"186 281 CURVE SMOOTH",
"10 0 LINE",
"126 0 LINE",
"296 273 LINE",
"357 175 LINE",
"468 -1 LINE",
"584 -1 LINE",
"423 257 LINE SMOOTH",
"401 292 OFFCURVE",
"351 370 OFFCURVE",
"353 369 CURVE",
"368 387 OFFCURVE",
"406 445 OFFCURVE",
"425 476 CURVE SMOOTH",
"572 711 LINE",
"456 711 LINE",
"342 531 LINE",
"296 457 LINE",
"138 710 LINE",
"22 710 LINE"
);
}
);
width = 606;
}
);
note = X;
unicode = 0058;
},
{
glyphname = Y;
lastChange = "2024-06-23 12:28:18 +0000";
layers = (
{
hints = (
{
horizontal = 1;
place = "{-1, 21}";
target = up;
type = BottomGhost;
},
{
place = "{233, 111}";
type = Stem;
}
);
layerId = "BDC5E74B-1A26-4A4F-8F6D-86B4D4C65685";
paths = (
{
closed = 1;
nodes = (
"363 -1 LINE",
"363 319 LINE",
"609 711 LINE",
"492 711 LINE",
"331 454 LINE SMOOTH",
"323 442 OFFCURVE",
"314 427 OFFCURVE",
"307 415 CURVE",
"301 427 OFFCURVE",
"292 441 OFFCURVE",
"284 453 CURVE SMOOTH",
"122 711 LINE",
"5 711 LINE",
"252 319 LINE",
"252 -1 LINE"
);
}
);
width = 614;
}
);
leftKerningGroup = V;
leftMetricsKey = V;
note = Y;
rightKerningGroup = V;
rightMetricsKey = V;
unicode = 0059;
},
{
glyphname = Yacute;
lastChange = "2024-06-23 12:28:18 +0000";
layers = (
{
hints = (
{
horizontal = 1;
place = "{-1, 21}";
target = up;
type = BottomGhost;
},
{
place = "{233, 111}";
type = Stem;
}
);
layerId = "BDC5E74B-1A26-4A4F-8F6D-86B4D4C65685";
paths = (
{
closed = 1;
nodes = (
"214 774 LINE",
"263 821 LINE SMOOTH",
"294 851 OFFCURVE",
"336 887 OFFCURVE",
"336 887 CURVE",
"449 887 LINE",
"449 887 OFFCURVE",
"407 843 OFFCURVE",
"371 808 CURVE SMOOTH",
"336 774 LINE"
);
},
{
closed = 1;
nodes = (
"363 -1 LINE",
"363 319 LINE",
"609 711 LINE",
"492 711 LINE",
"331 454 LINE SMOOTH",
"323 442 OFFCURVE",
"314 427 OFFCURVE",
"307 415 CURVE",
"301 427 OFFCURVE",
"292 441 OFFCURVE",
"284 453 CURVE SMOOTH",
"122 711 LINE",
"5 711 LINE",
"252 319 LINE",
"252 -1 LINE"
);
}
);
width = 614;
}
);
leftKerningGroup = V;
leftMetricsKey = V;
note = Yacute;
rightKerningGroup = V;
rightMetricsKey = V;
unicode = 00DD;
},
{
glyphname = Ycircumflex;
lastChange = "2024-06-23 12:28:18 +0000";
layers = (
{
hints = (
{
horizontal = 1;
place = "{-1, 21}";
target = up;
type = BottomGhost;
},
{
horizontal = 1;
place = "{775, 113}";
type = Stem;
},
{
place = "{233, 111}";
type = Stem;
},
{
horizontal = 1;
place = "{823, 65}";
type = Stem;
}
);
layerId = "BDC5E74B-1A26-4A4F-8F6D-86B4D4C65685";
paths = (
{
closed = 1;
nodes = (
"263 888 LINE",
"192 775 LINE",
"282 775 LINE",
"313 823 LINE",
"343 775 LINE",
"435 775 LINE",
"363 888 LINE"
);
},
{
closed = 1;
nodes = (
"363 -1 LINE",
"363 319 LINE",
"609 711 LINE",
"492 711 LINE",
"331 454 LINE SMOOTH",
"323 442 OFFCURVE",
"314 427 OFFCURVE",
"307 415 CURVE",
"301 427 OFFCURVE",
"292 441 OFFCURVE",
"284 453 CURVE SMOOTH",
"122 711 LINE",
"5 711 LINE",
"252 319 LINE",
"252 -1 LINE"
);
}
);
width = 614;
}
);
leftKerningGroup = V;
leftMetricsKey = V;
note = Ycircumflex;
rightKerningGroup = V;
rightMetricsKey = V;
unicode = 0176;
},
{
glyphname = Ydieresis;
lastChange = "2024-06-23 12:28:18 +0000";
layers = (
{
hints = (
{
horizontal = 1;
place = "{-1, 21}";
target = up;
type = BottomGhost;
},
{
horizontal = 1;
place = "{757, 129}";
type = Stem;
},
{
place = "{129, 130}";
type = Stem;
},
{
place = "{318, 130}";
type = Stem;
},
{
place = "{233, 111}";
type = Stem;
}
);
layerId = "BDC5E74B-1A26-4A4F-8F6D-86B4D4C65685";
paths = (
{
closed = 1;
nodes = (
"148 784 OFFCURVE",
"177 757 OFFCURVE",
"213 757 CURVE SMOOTH",
"250 757 OFFCURVE",
"278 784 OFFCURVE",
"278 821 CURVE SMOOTH",
"278 858 OFFCURVE",
"250 886 OFFCURVE",
"213 886 CURVE SMOOTH",
"177 886 OFFCURVE",
"148 858 OFFCURVE",
"148 821 CURVE SMOOTH"
);
},
{
closed = 1;
nodes = (
"337 784 OFFCURVE",
"366 757 OFFCURVE",
"402 757 CURVE SMOOTH",
"439 757 OFFCURVE",
"467 784 OFFCURVE",
"467 821 CURVE SMOOTH",
"467 858 OFFCURVE",
"439 886 OFFCURVE",
"402 886 CURVE SMOOTH",
"366 886 OFFCURVE",
"337 858 OFFCURVE",
"337 821 CURVE SMOOTH"
);
},
{
closed = 1;
nodes = (
"363 -1 LINE",
"363 319 LINE",
"609 711 LINE",
"492 711 LINE",
"331 454 LINE SMOOTH",
"323 442 OFFCURVE",
"314 427 OFFCURVE",
"307 415 CURVE",
"301 427 OFFCURVE",
"292 441 OFFCURVE",
"284 453 CURVE SMOOTH",
"122 711 LINE",
"5 711 LINE",
"252 319 LINE",
"252 -1 LINE"
);
}
);
width = 614;
}
);
leftKerningGroup = V;
leftMetricsKey = V;
note = Ydieresis;
rightKerningGroup = V;
rightMetricsKey = V;
unicode = 0178;
},
{
glyphname = Ygrave;
lastChange = "2024-06-23 12:28:18 +0000";
layers = (
{
hints = (
{
horizontal = 1;
place = "{-1, 21}";
target = up;
type = BottomGhost;
},
{
place = "{233, 111}";
type = Stem;
}
);
layerId = "BDC5E74B-1A26-4A4F-8F6D-86B4D4C65685";
paths = (
{
closed = 1;
nodes = (
"259 809 LINE SMOOTH",
"223 844 OFFCURVE",
"181 888 OFFCURVE",
"181 888 CURVE",
"294 888 LINE",
"294 888 OFFCURVE",
"336 852 OFFCURVE",
"367 822 CURVE SMOOTH",
"416 775 LINE",
"294 775 LINE"
);
},
{
closed = 1;
nodes = (
"363 -1 LINE",
"363 319 LINE",
"609 711 LINE",
"492 711 LINE",
"331 454 LINE SMOOTH",
"323 442 OFFCURVE",
"314 427 OFFCURVE",
"307 415 CURVE",
"301 427 OFFCURVE",
"292 441 OFFCURVE",
"284 453 CURVE SMOOTH",
"122 711 LINE",
"5 711 LINE",
"252 319 LINE",
"252 -1 LINE"
);
}
);
width = 614;
}
);
leftKerningGroup = V;
leftMetricsKey = V;
note = Ygrave;
rightKerningGroup = V;
rightMetricsKey = V;
unicode = 1EF2;
},
{
glyphname = Z;
lastChange = "2024-06-22 14:15:31 +0000";
layers = (
{
hints = (
{
horizontal = 1;
place = "{-1, 86}";
type = Stem;
},
{
horizontal = 1;
place = "{624, 86}";
type = Stem;
},
{
place = "{28, 553}";
type = Stem;
}
);
layerId = "BDC5E74B-1A26-4A4F-8F6D-86B4D4C65685";
paths = (
{
closed = 1;
nodes = (
"581 -1 LINE",
"581 85 LINE",
"178 85 LINE",
"581 667 LINE",
"581 710 LINE",
"28 710 LINE",
"28 624 LINE",
"432 624 LINE",
"28 43 LINE",
"28 -1 LINE"
);
}
);
width = 609;
}
);
note = Z;
rightKerningGroup = Z;
unicode = 005A;
},
{
glyphname = a;
lastChange = "2024-06-23 11:56:57 +0000";
layers = (
{
hints = (
{
horizontal = 1;
place = "{-14, 84}";
type = Stem;
},
{
horizontal = 1;
place = "{237, 71}";
type = Stem;
},
{
horizontal = 1;
place = "{445, 87}";
type = Stem;
},
{
place = "{27, 109}";
type = Stem;
},
{
place = "{356, 103}";
type = Stem;
},
{
place = "{507, 9}";
type = Stem;
},
{
horizontal = 1;
place = "{-1, 85}";
type = Stem;
}
);
layerId = "BDC5E74B-1A26-4A4F-8F6D-86B4D4C65685";
paths = (
{
closed = 1;
nodes = (
"460 361 LINE SMOOTH",
"460 465 OFFCURVE",
"378 532 OFFCURVE",
"250 532 CURVE SMOOTH",
"138 532 OFFCURVE",
"49 456 OFFCURVE",
"43 356 CURVE",
"154 356 LINE",
"156 415 OFFCURVE",
"192 445 OFFCURVE",
"261 445 CURVE SMOOTH",
"326 445 OFFCURVE",
"357 410 OFFCURVE",
"357 336 CURVE SMOOTH",
"357 308 LINE",
"330 310 OFFCURVE",
"276 313 OFFCURVE",
"226 307 CURVE SMOOTH",
"98 292 OFFCURVE",
"28 239 OFFCURVE",
"28 146 CURVE SMOOTH",
"28 60 OFFCURVE",
"110 -14 OFFCURVE",
"203 -14 CURVE SMOOTH",
"297 -14 OFFCURVE",
"343 21 OFFCURVE",
"366 46 CURVE",
"380 14 OFFCURVE",
"411 -1 OFFCURVE",
"461 -1 CURVE SMOOTH",
"494 -1 OFFCURVE",
"508 6 OFFCURVE",
"508 6 CURVE",
"517 14 LINE",
"517 92 LINE",
"473 78 OFFCURVE",
"460 80 OFFCURVE",
"460 125 CURVE SMOOTH"
);
},
{
closed = 1;
nodes = (
"137 195 OFFCURVE",
"174 230 OFFCURVE",
"239 237 CURVE SMOOTH",
"297 243 OFFCURVE",
"335 243 OFFCURVE",
"357 242 CURVE",
"358 182 LINE",
"352 123 OFFCURVE",
"292 70 OFFCURVE",
"228 70 CURVE SMOOTH",
"175 70 OFFCURVE",
"137 99 OFFCURVE",
"137 141 CURVE SMOOTH"
);
}
);
width = 541;
}
);
leftKerningGroup = a;
leftMetricsKey = S;
note = a;
rightKerningGroup = a;
unicode = 0061;
},
{
glyphname = aacute;
lastChange = "2024-06-23 12:32:10 +0000";
layers = (
{
hints = (
{
horizontal = 1;
place = "{-14, 84}";
type = Stem;
},
{
horizontal = 1;
place = "{237, 71}";
type = Stem;
},
{
horizontal = 1;
place = "{445, 157}";
type = Stem;
},
{
place = "{27, 109}";
type = Stem;
},
{
place = "{356, 103}";
type = Stem;
},
{
place = "{507, 9}";
type = Stem;
},
{
horizontal = 1;
place = "{445, 87}";
type = Stem;
},
{
horizontal = 1;
place = "{-1, 85}";
type = Stem;
}
);
layerId = "BDC5E74B-1A26-4A4F-8F6D-86B4D4C65685";
paths = (
{
closed = 1;
nodes = (
"165 602 LINE",
"214 649 LINE SMOOTH",
"245 679 OFFCURVE",
"287 715 OFFCURVE",
"287 715 CURVE",
"400 715 LINE",
"400 715 OFFCURVE",
"358 671 OFFCURVE",
"322 636 CURVE SMOOTH",
"287 602 LINE"
);
},
{
closed = 1;
nodes = (
"460 361 LINE SMOOTH",
"460 465 OFFCURVE",
"378 532 OFFCURVE",
"250 532 CURVE SMOOTH",
"138 532 OFFCURVE",
"49 456 OFFCURVE",
"43 356 CURVE",
"154 356 LINE",
"156 415 OFFCURVE",
"192 445 OFFCURVE",
"261 445 CURVE SMOOTH",
"326 445 OFFCURVE",
"357 410 OFFCURVE",
"357 336 CURVE SMOOTH",
"357 308 LINE",
"330 310 OFFCURVE",
"276 313 OFFCURVE",
"226 307 CURVE SMOOTH",
"98 292 OFFCURVE",
"28 239 OFFCURVE",
"28 146 CURVE SMOOTH",
"28 60 OFFCURVE",
"110 -14 OFFCURVE",
"203 -14 CURVE SMOOTH",
"297 -14 OFFCURVE",
"343 21 OFFCURVE",
"366 46 CURVE",
"380 14 OFFCURVE",
"411 -1 OFFCURVE",
"461 -1 CURVE SMOOTH",
"494 -1 OFFCURVE",
"508 6 OFFCURVE",
"508 6 CURVE",
"517 14 LINE",
"517 92 LINE",
"473 78 OFFCURVE",
"460 80 OFFCURVE",
"460 125 CURVE SMOOTH"
);
},
{
closed = 1;
nodes = (
"137 195 OFFCURVE",
"174 230 OFFCURVE",
"239 237 CURVE SMOOTH",
"297 243 OFFCURVE",
"335 243 OFFCURVE",
"357 242 CURVE",
"358 182 LINE",
"352 123 OFFCURVE",
"292 70 OFFCURVE",
"228 70 CURVE SMOOTH",
"175 70 OFFCURVE",
"137 99 OFFCURVE",
"137 141 CURVE SMOOTH"
);
}
);
width = 541;
}
);
leftKerningGroup = a;
leftMetricsKey = a;
note = aacute;
rightKerningGroup = a;
rightMetricsKey = a;
unicode = 00E1;
},
{
glyphname = acircumflex;
lastChange = "2024-06-23 12:32:10 +0000";
layers = (
{
hints = (
{
horizontal = 1;
place = "{-14, 84}";
type = Stem;
},
{
horizontal = 1;
place = "{237, 71}";
type = Stem;
},
{
horizontal = 1;
place = "{445, 87}";
type = Stem;
},
{
horizontal = 1;
place = "{602, 113}";
type = Stem;
},
{
place = "{27, 109}";
type = Stem;
},
{
place = "{356, 103}";
type = Stem;
},
{
place = "{507, 9}";
type = Stem;
},
{
horizontal = 1;
place = "{650, 65}";
type = Stem;
},
{
horizontal = 1;
place = "{-1, 85}";
type = Stem;
}
);
layerId = "BDC5E74B-1A26-4A4F-8F6D-86B4D4C65685";
paths = (
{
closed = 1;
nodes = (
"218 715 LINE",
"147 602 LINE",
"237 602 LINE",
"268 650 LINE",
"298 602 LINE",
"390 602 LINE",
"318 715 LINE"
);
},
{
closed = 1;
nodes = (
"460 361 LINE SMOOTH",
"460 465 OFFCURVE",
"378 532 OFFCURVE",
"250 532 CURVE SMOOTH",
"138 532 OFFCURVE",
"49 456 OFFCURVE",
"43 356 CURVE",
"154 356 LINE",
"156 415 OFFCURVE",
"192 445 OFFCURVE",
"261 445 CURVE SMOOTH",
"326 445 OFFCURVE",
"357 410 OFFCURVE",
"357 336 CURVE SMOOTH",
"357 308 LINE",
"330 310 OFFCURVE",
"276 313 OFFCURVE",
"226 307 CURVE SMOOTH",
"98 292 OFFCURVE",
"28 239 OFFCURVE",
"28 146 CURVE SMOOTH",
"28 60 OFFCURVE",
"110 -14 OFFCURVE",
"203 -14 CURVE SMOOTH",
"297 -14 OFFCURVE",
"343 21 OFFCURVE",
"366 46 CURVE",
"380 14 OFFCURVE",
"411 -1 OFFCURVE",
"461 -1 CURVE SMOOTH",
"494 -1 OFFCURVE",
"508 6 OFFCURVE",
"508 6 CURVE",
"517 14 LINE",
"517 92 LINE",
"473 78 OFFCURVE",
"460 80 OFFCURVE",
"460 125 CURVE SMOOTH"
);
},
{
closed = 1;
nodes = (
"137 195 OFFCURVE",
"174 230 OFFCURVE",
"239 237 CURVE SMOOTH",
"297 243 OFFCURVE",
"335 243 OFFCURVE",
"357 242 CURVE",
"358 182 LINE",
"352 123 OFFCURVE",
"292 70 OFFCURVE",
"228 70 CURVE SMOOTH",
"175 70 OFFCURVE",
"137 99 OFFCURVE",
"137 141 CURVE SMOOTH"
);
}
);
width = 541;
}
);
leftKerningGroup = a;
leftMetricsKey = a;
note = acircumflex;
rightKerningGroup = a;
rightMetricsKey = a;
unicode = 00E2;
},
{
glyphname = adieresis;
lastChange = "2024-06-23 12:32:10 +0000";
layers = (
{
hints = (
{
horizontal = 1;
place = "{-14, 84}";
type = Stem;
},
{
horizontal = 1;
place = "{237, 71}";
type = Stem;
},
{
horizontal = 1;
place = "{445, 87}";
type = Stem;
},
{
horizontal = 1;
place = "{586, 129}";
type = Stem;
},
{
place = "{98, 130}";
type = Stem;
},
{
place = "{287, 130}";
type = Stem;
},
{
place = "{507, 9}";
type = Stem;
},
{
place = "{27, 109}";
type = Stem;
},
{
place = "{356, 103}";
type = Stem;
},
{
horizontal = 1;
place = "{-1, 85}";
type = Stem;
}
);
layerId = "BDC5E74B-1A26-4A4F-8F6D-86B4D4C65685";
paths = (
{
closed = 1;
nodes = (
"99 613 OFFCURVE",
"128 586 OFFCURVE",
"164 586 CURVE SMOOTH",
"201 586 OFFCURVE",
"229 613 OFFCURVE",
"229 650 CURVE SMOOTH",
"229 687 OFFCURVE",
"201 715 OFFCURVE",
"164 715 CURVE SMOOTH",
"128 715 OFFCURVE",
"99 687 OFFCURVE",
"99 650 CURVE SMOOTH"
);
},
{
closed = 1;
nodes = (
"288 613 OFFCURVE",
"317 586 OFFCURVE",
"353 586 CURVE SMOOTH",
"390 586 OFFCURVE",
"418 613 OFFCURVE",
"418 650 CURVE SMOOTH",
"418 687 OFFCURVE",
"390 715 OFFCURVE",
"353 715 CURVE SMOOTH",
"317 715 OFFCURVE",
"288 687 OFFCURVE",
"288 650 CURVE SMOOTH"
);
},
{
closed = 1;
nodes = (
"460 361 LINE SMOOTH",
"460 465 OFFCURVE",
"378 532 OFFCURVE",
"250 532 CURVE SMOOTH",
"138 532 OFFCURVE",
"49 456 OFFCURVE",
"43 356 CURVE",
"154 356 LINE",
"156 415 OFFCURVE",
"192 445 OFFCURVE",
"261 445 CURVE SMOOTH",
"326 445 OFFCURVE",
"357 410 OFFCURVE",
"357 336 CURVE SMOOTH",
"357 308 LINE",
"330 310 OFFCURVE",
"276 313 OFFCURVE",
"226 307 CURVE SMOOTH",
"98 292 OFFCURVE",
"28 239 OFFCURVE",
"28 146 CURVE SMOOTH",
"28 60 OFFCURVE",
"110 -14 OFFCURVE",
"203 -14 CURVE SMOOTH",
"297 -14 OFFCURVE",
"343 21 OFFCURVE",
"366 46 CURVE",
"380 14 OFFCURVE",
"411 -1 OFFCURVE",
"461 -1 CURVE SMOOTH",
"494 -1 OFFCURVE",
"508 6 OFFCURVE",
"508 6 CURVE",
"517 14 LINE",
"517 92 LINE",
"473 78 OFFCURVE",
"460 80 OFFCURVE",
"460 125 CURVE SMOOTH"
);
},
{
closed = 1;
nodes = (
"137 195 OFFCURVE",
"174 230 OFFCURVE",
"239 237 CURVE SMOOTH",
"297 243 OFFCURVE",
"335 243 OFFCURVE",
"357 242 CURVE",
"358 182 LINE",
"352 123 OFFCURVE",
"292 70 OFFCURVE",
"228 70 CURVE SMOOTH",
"175 70 OFFCURVE",
"137 99 OFFCURVE",
"137 141 CURVE SMOOTH"
);
}
);
width = 541;
}
);
leftKerningGroup = a;
leftMetricsKey = a;
note = adieresis;
rightKerningGroup = a;
rightMetricsKey = a;
unicode = 00E4;
},
{
glyphname = agrave;
lastChange = "2024-06-23 12:32:10 +0000";
layers = (
{
hints = (
{
horizontal = 1;
place = "{-14, 84}";
type = Stem;
},
{
horizontal = 1;
place = "{237, 71}";
type = Stem;
},
{
horizontal = 1;
place = "{445, 87}";
type = Stem;
},
{
place = "{27, 109}";
type = Stem;
},
{
place = "{356, 103}";
type = Stem;
},
{
place = "{507, 9}";
type = Stem;
},
{
horizontal = 1;
place = "{445, 156}";
type = Stem;
},
{
horizontal = 1;
place = "{-1, 85}";
type = Stem;
}
);
layerId = "BDC5E74B-1A26-4A4F-8F6D-86B4D4C65685";
paths = (
{
closed = 1;
nodes = (
"231 635 LINE SMOOTH",
"195 670 OFFCURVE",
"153 714 OFFCURVE",
"153 714 CURVE",
"266 714 LINE",
"266 714 OFFCURVE",
"308 678 OFFCURVE",
"339 648 CURVE SMOOTH",
"388 601 LINE",
"266 601 LINE"
);
},
{
closed = 1;
nodes = (
"460 361 LINE SMOOTH",
"460 465 OFFCURVE",
"378 532 OFFCURVE",
"250 532 CURVE SMOOTH",
"138 532 OFFCURVE",
"49 456 OFFCURVE",
"43 356 CURVE",
"154 356 LINE",
"156 415 OFFCURVE",
"192 445 OFFCURVE",
"261 445 CURVE SMOOTH",
"326 445 OFFCURVE",
"357 410 OFFCURVE",
"357 336 CURVE SMOOTH",
"357 308 LINE",
"330 310 OFFCURVE",
"276 313 OFFCURVE",
"226 307 CURVE SMOOTH",
"98 292 OFFCURVE",
"28 239 OFFCURVE",
"28 146 CURVE SMOOTH",
"28 60 OFFCURVE",
"110 -14 OFFCURVE",
"203 -14 CURVE SMOOTH",
"297 -14 OFFCURVE",
"343 21 OFFCURVE",
"366 46 CURVE",
"380 14 OFFCURVE",
"411 -1 OFFCURVE",
"461 -1 CURVE SMOOTH",
"494 -1 OFFCURVE",
"508 6 OFFCURVE",
"508 6 CURVE",
"517 14 LINE",
"517 92 LINE",
"473 78 OFFCURVE",
"460 80 OFFCURVE",
"460 125 CURVE SMOOTH"
);
},
{
closed = 1;
nodes = (
"137 195 OFFCURVE",
"174 230 OFFCURVE",
"239 237 CURVE SMOOTH",
"297 243 OFFCURVE",
"335 243 OFFCURVE",
"357 242 CURVE",
"358 182 LINE",
"352 123 OFFCURVE",
"292 70 OFFCURVE",
"228 70 CURVE SMOOTH",
"175 70 OFFCURVE",
"137 99 OFFCURVE",
"137 141 CURVE SMOOTH"
);
}
);
width = 541;
}
);
leftKerningGroup = a;
leftMetricsKey = a;
note = agrave;
rightKerningGroup = a;
rightMetricsKey = a;
unicode = 00E0;
},
{
glyphname = aring;
lastChange = "2024-06-23 12:32:10 +0000";
layers = (
{
hints = (
{
horizontal = 1;
place = "{-14, 84}";
type = Stem;
},
{
horizontal = 1;
place = "{237, 71}";
type = Stem;
},
{
horizontal = 1;
place = "{445, 87}";
type = Stem;
},
{
horizontal = 1;
place = "{597, 46}";
type = Stem;
},
{
horizontal = 1;
place = "{686, 45}";
type = Stem;
},
{
place = "{27, 109}";
type = Stem;
},
{
place = "{190, 53}";
type = Stem;
},
{
place = "{287, 53}";
type = Stem;
},
{
place = "{356, 103}";
type = Stem;
},
{
place = "{507, 9}";
type = Stem;
},
{
horizontal = 1;
place = "{-1, 85}";
type = Stem;
}
);
layerId = "BDC5E74B-1A26-4A4F-8F6D-86B4D4C65685";
paths = (
{
closed = 1;
nodes = (
"308 597 OFFCURVE",
"341 626 OFFCURVE",
"341 664 CURVE SMOOTH",
"341 702 OFFCURVE",
"308 731 OFFCURVE",
"266 731 CURVE SMOOTH",
"224 731 OFFCURVE",
"191 702 OFFCURVE",
"191 664 CURVE SMOOTH",
"191 626 OFFCURVE",
"224 597 OFFCURVE",
"266 597 CURVE SMOOTH"
);
},
{
closed = 1;
nodes = (
"244 679 OFFCURVE",
"252 686 OFFCURVE",
"266 686 CURVE SMOOTH",
"280 686 OFFCURVE",
"288 679 OFFCURVE",
"288 664 CURVE SMOOTH",
"288 650 OFFCURVE",
"280 643 OFFCURVE",
"266 643 CURVE SMOOTH",
"252 643 OFFCURVE",
"244 650 OFFCURVE",
"244 664 CURVE SMOOTH"
);
},
{
closed = 1;
nodes = (
"460 361 LINE SMOOTH",
"460 465 OFFCURVE",
"378 532 OFFCURVE",
"250 532 CURVE SMOOTH",
"138 532 OFFCURVE",
"49 456 OFFCURVE",
"43 356 CURVE",
"154 356 LINE",
"156 415 OFFCURVE",
"192 445 OFFCURVE",
"261 445 CURVE SMOOTH",
"326 445 OFFCURVE",
"357 410 OFFCURVE",
"357 336 CURVE SMOOTH",
"357 308 LINE",
"330 310 OFFCURVE",
"276 313 OFFCURVE",
"226 307 CURVE SMOOTH",
"98 292 OFFCURVE",
"28 239 OFFCURVE",
"28 146 CURVE SMOOTH",
"28 60 OFFCURVE",
"110 -14 OFFCURVE",
"203 -14 CURVE SMOOTH",
"297 -14 OFFCURVE",
"343 21 OFFCURVE",
"366 46 CURVE",
"380 14 OFFCURVE",
"411 -1 OFFCURVE",
"461 -1 CURVE SMOOTH",
"494 -1 OFFCURVE",
"508 6 OFFCURVE",
"508 6 CURVE",
"517 14 LINE",
"517 92 LINE",
"473 78 OFFCURVE",
"460 80 OFFCURVE",
"460 125 CURVE SMOOTH"
);
},
{
closed = 1;
nodes = (
"137 195 OFFCURVE",
"174 230 OFFCURVE",
"239 237 CURVE SMOOTH",
"297 243 OFFCURVE",
"335 243 OFFCURVE",
"357 242 CURVE",
"358 182 LINE",
"352 123 OFFCURVE",
"292 70 OFFCURVE",
"228 70 CURVE SMOOTH",
"175 70 OFFCURVE",
"137 99 OFFCURVE",
"137 141 CURVE SMOOTH"
);
}
);
width = 541;
}
);
leftKerningGroup = a;
leftMetricsKey = a;
note = aring;
rightKerningGroup = a;
rightMetricsKey = a;
unicode = 00E5;
},
{
glyphname = atilde;
lastChange = "2024-06-23 12:32:10 +0000";
layers = (
{
hints = (
{
horizontal = 1;
place = "{-14, 84}";
type = Stem;
},
{
horizontal = 1;
place = "{237, 71}";
type = Stem;
},
{
horizontal = 1;
place = "{445, 87}";
type = Stem;
},
{
place = "{27, 109}";
type = Stem;
},
{
place = "{356, 103}";
type = Stem;
},
{
place = "{507, 9}";
type = Stem;
},
{
horizontal = 1;
place = "{-1, 85}";
type = Stem;
}
);
layerId = "BDC5E74B-1A26-4A4F-8F6D-86B4D4C65685";
paths = (
{
closed = 1;
nodes = (
"460 361 LINE SMOOTH",
"460 465 OFFCURVE",
"378 532 OFFCURVE",
"250 532 CURVE SMOOTH",
"138 532 OFFCURVE",
"49 456 OFFCURVE",
"43 356 CURVE",
"154 356 LINE",
"156 415 OFFCURVE",
"192 445 OFFCURVE",
"261 445 CURVE SMOOTH",
"326 445 OFFCURVE",
"357 410 OFFCURVE",
"357 336 CURVE SMOOTH",
"357 308 LINE",
"330 310 OFFCURVE",
"276 313 OFFCURVE",
"226 307 CURVE SMOOTH",
"98 292 OFFCURVE",
"28 239 OFFCURVE",
"28 146 CURVE SMOOTH",
"28 60 OFFCURVE",
"110 -14 OFFCURVE",
"203 -14 CURVE SMOOTH",
"297 -14 OFFCURVE",
"343 21 OFFCURVE",
"366 46 CURVE",
"380 14 OFFCURVE",
"411 -1 OFFCURVE",
"461 -1 CURVE SMOOTH",
"494 -1 OFFCURVE",
"508 6 OFFCURVE",
"508 6 CURVE",
"517 14 LINE",
"517 92 LINE",
"473 78 OFFCURVE",
"460 80 OFFCURVE",
"460 125 CURVE SMOOTH"
);
},
{
closed = 1;
nodes = (
"137 195 OFFCURVE",
"174 230 OFFCURVE",
"239 237 CURVE SMOOTH",
"297 243 OFFCURVE",
"335 243 OFFCURVE",
"357 242 CURVE",
"358 182 LINE",
"352 123 OFFCURVE",
"292 70 OFFCURVE",
"228 70 CURVE SMOOTH",
"175 70 OFFCURVE",
"137 99 OFFCURVE",
"137 141 CURVE SMOOTH"
);
}
);
width = 541;
}
);
leftKerningGroup = a;
leftMetricsKey = a;
note = atilde;
rightKerningGroup = a;
rightMetricsKey = a;
unicode = 00E3;
},
{
glyphname = ae;
lastChange = "2024-06-23 12:32:16 +0000";
layers = (
{
hints = (
{
horizontal = 1;
place = "{-15, 83}";
type = Stem;
},
{
horizontal = 1;
place = "{237, 80}";
type = Stem;
},
{
horizontal = 1;
place = "{449, 82}";
type = Stem;
},
{
place = "{29, 110}";
type = Stem;
},
{
place = "{359, 124}";
type = Stem;
},
{
horizontal = 1;
place = "{-16, 80}";
type = Stem;
},
{
horizontal = 1;
place = "{454, 77}";
type = Stem;
}
);
layerId = "BDC5E74B-1A26-4A4F-8F6D-86B4D4C65685";
paths = (
{
closed = 1;
nodes = (
"870 258 LINE SMOOTH",
"870 426 OFFCURVE",
"778 531 OFFCURVE",
"631 531 CURVE SMOOTH",
"554 531 OFFCURVE",
"488 501 OFFCURVE",
"442 450 CURVE",
"412 501 OFFCURVE",
"343 531 OFFCURVE",
"250 531 CURVE SMOOTH",
"130 531 OFFCURVE",
"51 464 OFFCURVE",
"43 355 CURVE",
"152 355 LINE",
"156 422 OFFCURVE",
"192 454 OFFCURVE",
"261 454 CURVE SMOOTH",
"316 454 OFFCURVE",
"356 426 OFFCURVE",
"356 387 CURVE SMOOTH",
"356 341 OFFCURVE",
"313 330 OFFCURVE",
"224 308 CURVE SMOOTH",
"117 285 OFFCURVE",
"28 260 OFFCURVE",
"28 147 CURVE SMOOTH",
"28 58 OFFCURVE",
"114 -16 OFFCURVE",
"216 -16 CURVE SMOOTH",
"315 -16 OFFCURVE",
"384 33 OFFCURVE",
"407 117 CURVE",
"450 36 OFFCURVE",
"531 -15 OFFCURVE",
"631 -15 CURVE SMOOTH",
"748 -15 OFFCURVE",
"836 55 OFFCURVE",
"861 167 CURVE",
"754 167 LINE",
"736 105 OFFCURVE",
"691 68 OFFCURVE",
"631 68 CURVE SMOOTH",
"546 68 OFFCURVE",
"490 133 OFFCURVE",
"482 238 CURVE",
"505 237 OFFCURVE",
"540 237 OFFCURVE",
"571 237 CURVE SMOOTH",
"870 237 LINE"
);
},
{
closed = 1;
nodes = (
"698 449 OFFCURVE",
"746 399 OFFCURVE",
"759 317 CURVE",
"571 317 LINE SMOOTH",
"542 317 OFFCURVE",
"510 317 OFFCURVE",
"487 316 CURVE",
"505 407 OFFCURVE",
"551 449 OFFCURVE",
"632 449 CURVE SMOOTH"
);
},
{
closed = 1;
nodes = (
"358 227 LINE SMOOTH",
"358 136 OFFCURVE",
"304 64 OFFCURVE",
"238 64 CURVE SMOOTH",
"177 64 OFFCURVE",
"138 95 OFFCURVE",
"138 143 CURVE SMOOTH",
"138 188 OFFCURVE",
"169 211 OFFCURVE",
"257 230 CURVE SMOOTH",
"293 238 OFFCURVE",
"329 246 OFFCURVE",
"358 257 CURVE"
);
}
);
width = 908;
}
);
leftKerningGroup = a;
leftMetricsKey = a;
note = ae;
rightKerningGroup = a;
rightMetricsKey = e;
unicode = 00E6;
},
{
glyphname = b;
lastChange = "2024-06-22 14:15:31 +0000";
layers = (
{
hints = (
{
horizontal = 1;
place = "{-16, 86}";
type = Stem;
},
{
horizontal = 1;
place = "{446, 85}";
type = Stem;
},
{
place = "{62, 108}";
type = Stem;
},
{
place = "{434, 109}";
type = Stem;
},
{
horizontal = 1;
place = "{-1, 71}";
type = Stem;
}
);
layerId = "BDC5E74B-1A26-4A4F-8F6D-86B4D4C65685";
paths = (
{
closed = 1;
nodes = (
"453 -16 OFFCURVE",
"543 99 OFFCURVE",
"543 258 CURVE SMOOTH",
"543 417 OFFCURVE",
"453 531 OFFCURVE",
"327 531 CURVE SMOOTH",
"259 531 OFFCURVE",
"203 503 OFFCURVE",
"170 460 CURVE",
"170 712 LINE",
"62 712 LINE",
"62 -1 LINE",
"170 -1 LINE",
"170 55 LINE",
"203 12 OFFCURVE",
"259 -16 OFFCURVE",
"327 -16 CURVE SMOOTH"
);
},
{
closed = 1;
nodes = (
"170 371 OFFCURVE",
"223 446 OFFCURVE",
"303 446 CURVE SMOOTH",
"379 446 OFFCURVE",
"434 368 OFFCURVE",
"434 257 CURVE SMOOTH",
"434 147 OFFCURVE",
"379 70 OFFCURVE",
"303 70 CURVE SMOOTH",
"223 70 OFFCURVE",
"170 144 OFFCURVE",
"170 257 CURVE SMOOTH"
);
}
);
width = 572;
}
);
note = b;
unicode = 0062;
},
{
glyphname = c;
lastChange = "2024-06-23 12:32:25 +0000";
layers = (
{
hints = (
{
horizontal = 1;
place = "{-15, 88}";
type = Stem;
},
{
horizontal = 1;
place = "{443, 88}";
type = Stem;
},
{
place = "{30, 111}";
type = Stem;
}
);
layerId = "BDC5E74B-1A26-4A4F-8F6D-86B4D4C65685";
paths = (
{
closed = 1;
nodes = (
"417 -16 OFFCURVE",
"508 59 OFFCURVE",
"527 177 CURVE",
"419 177 LINE",
"406 113 OFFCURVE",
"355 71 OFFCURVE",
"294 71 CURVE SMOOTH",
"208 71 OFFCURVE",
"147 148 OFFCURVE",
"147 255 CURVE SMOOTH",
"147 366 OFFCURVE",
"207 442 OFFCURVE",
"295 442 CURVE SMOOTH",
"354 442 OFFCURVE",
"405 399 OFFCURVE",
"419 337 CURVE",
"528 337 LINE",
"509 453 OFFCURVE",
"417 529 OFFCURVE",
"294 529 CURVE SMOOTH",
"144 529 OFFCURVE",
"37 415 OFFCURVE",
"37 256 CURVE SMOOTH",
"37 97 OFFCURVE",
"144 -16 OFFCURVE",
"294 -16 CURVE SMOOTH"
);
}
);
width = 565;
}
);
leftKerningGroup = o;
leftMetricsKey = o;
note = c;
rightKerningGroup = o;
rightMetricsKey = o;
unicode = 0063;
},
{
glyphname = ccedilla;
lastChange = "2024-06-23 12:32:25 +0000";
layers = (
{
hints = (
{
horizontal = 1;
place = "{-16, 87}";
type = Stem;
},
{
horizontal = 1;
place = "{442, 87}";
type = Stem;
},
{
place = "{29, 110}";
type = Stem;
}
);
layerId = "BDC5E74B-1A26-4A4F-8F6D-86B4D4C65685";
paths = (
{
closed = 1;
nodes = (
"417 -16 OFFCURVE",
"508 59 OFFCURVE",
"527 177 CURVE",
"419 177 LINE",
"406 113 OFFCURVE",
"355 71 OFFCURVE",
"294 71 CURVE SMOOTH",
"208 71 OFFCURVE",
"147 148 OFFCURVE",
"147 255 CURVE SMOOTH",
"147 366 OFFCURVE",
"207 442 OFFCURVE",
"295 442 CURVE SMOOTH",
"354 442 OFFCURVE",
"405 399 OFFCURVE",
"419 337 CURVE",
"528 337 LINE",
"509 453 OFFCURVE",
"417 529 OFFCURVE",
"294 529 CURVE SMOOTH",
"144 529 OFFCURVE",
"37 415 OFFCURVE",
"37 256 CURVE SMOOTH",
"37 97 OFFCURVE",
"144 -16 OFFCURVE",
"294 -16 CURVE SMOOTH"
);
}
);
width = 565;
}
);
leftKerningGroup = o;
leftMetricsKey = o;
note = ccedilla;
rightKerningGroup = o;
rightMetricsKey = o;
unicode = 00E7;
},
{
glyphname = d;
lastChange = "2024-06-23 11:48:21 +0000";
layers = (
{
hints = (
{
horizontal = 1;
place = "{-16, 86}";
type = Stem;
},
{
horizontal = 1;
place = "{446, 85}";
type = Stem;
},
{
place = "{29, 110}";
type = Stem;
},
{
place = "{403, 107}";
type = Stem;
},
{
horizontal = 1;
place = "{-1, 71}";
type = Stem;
}
);
layerId = "BDC5E74B-1A26-4A4F-8F6D-86B4D4C65685";
paths = (
{
closed = 1;
nodes = (
"321 -16 OFFCURVE",
"377 12 OFFCURVE",
"411 65 CURVE",
"411 -1 LINE",
"518 -1 LINE",
"518 712 LINE",
"411 712 LINE",
"411 450 LINE",
"377 503 OFFCURVE",
"321 531 OFFCURVE",
"253 531 CURVE SMOOTH",
"128 531 OFFCURVE",
"37 417 OFFCURVE",
"37 258 CURVE SMOOTH",
"37 99 OFFCURVE",
"128 -16 OFFCURVE",
"253 -16 CURVE SMOOTH"
);
},
{
closed = 1;
nodes = (
"147 368 OFFCURVE",
"201 446 OFFCURVE",
"278 446 CURVE SMOOTH",
"358 446 OFFCURVE",
"411 371 OFFCURVE",
"411 257 CURVE SMOOTH",
"411 144 OFFCURVE",
"357 70 OFFCURVE",
"278 70 CURVE SMOOTH",
"201 70 OFFCURVE",
"147 147 OFFCURVE",
"147 257 CURVE SMOOTH"
);
}
);
width = 588;
}
);
leftKerningGroup = o;
leftMetricsKey = o;
note = d;
rightKerningGroup = n;
rightMetricsKey = n;
unicode = 0064;
},
{
glyphname = e;
lastChange = "2024-06-22 14:17:38 +0000";
layers = (
{
hints = (
{
horizontal = 1;
place = "{-14, 84}";
type = Stem;
},
{
horizontal = 1;
place = "{238, 81}";
type = Stem;
},
{
horizontal = 1;
place = "{450, 83}";
type = Stem;
},
{
place = "{38, 109}";
type = Stem;
}
);
layerId = "BDC5E74B-1A26-4A4F-8F6D-86B4D4C65685";
paths = (
{
closed = 1;
nodes = (
"412 -15 OFFCURVE",
"500 55 OFFCURVE",
"525 167 CURVE",
"418 167 LINE",
"400 105 OFFCURVE",
"355 68 OFFCURVE",
"295 68 CURVE SMOOTH",
"210 68 OFFCURVE",
"154 133 OFFCURVE",
"146 238 CURVE",
"169 237 OFFCURVE",
"204 237 OFFCURVE",
"235 237 CURVE SMOOTH",
"534 237 LINE",
"534 258 LINE SMOOTH",
"534 426 OFFCURVE",
"442 531 OFFCURVE",
"295 531 CURVE SMOOTH",
"145 531 OFFCURVE",
"38 417 OFFCURVE",
"38 258 CURVE SMOOTH",
"38 99 OFFCURVE",
"145 -15 OFFCURVE",
"295 -15 CURVE SMOOTH"
);
},
{
closed = 1;
nodes = (
"169 407 OFFCURVE",
"215 449 OFFCURVE",
"296 449 CURVE SMOOTH",
"362 449 OFFCURVE",
"410 399 OFFCURVE",
"423 317 CURVE",
"235 317 LINE SMOOTH",
"206 317 OFFCURVE",
"174 317 OFFCURVE",
"151 316 CURVE"
);
}
);
width = 572;
}
);
leftKerningGroup = o;
note = e;
rightKerningGroup = o;
unicode = 0065;
},
{
glyphname = eacute;
lastChange = "2024-06-22 14:15:31 +0000";
layers = (
{
hints = (
{
horizontal = 1;
place = "{-15, 83}";
type = Stem;
},
{
horizontal = 1;
place = "{237, 80}";
type = Stem;
},
{
horizontal = 1;
place = "{449, 154}";
type = Stem;
},
{
place = "{37, 108}";
type = Stem;
},
{
horizontal = 1;
place = "{449, 82}";
type = Stem;
}
);
layerId = "BDC5E74B-1A26-4A4F-8F6D-86B4D4C65685";
paths = (
{
closed = 1;
nodes = (
"191 603 LINE",
"240 650 LINE SMOOTH",
"271 680 OFFCURVE",
"313 716 OFFCURVE",
"313 716 CURVE",
"426 716 LINE",
"426 716 OFFCURVE",
"384 672 OFFCURVE",
"348 637 CURVE SMOOTH",
"313 603 LINE"
);
},
{
closed = 1;
nodes = (
"411 -15 OFFCURVE",
"499 55 OFFCURVE",
"524 167 CURVE",
"417 167 LINE",
"399 105 OFFCURVE",
"354 68 OFFCURVE",
"294 68 CURVE SMOOTH",
"209 68 OFFCURVE",
"153 133 OFFCURVE",
"145 238 CURVE",
"168 237 OFFCURVE",
"203 237 OFFCURVE",
"234 237 CURVE SMOOTH",
"533 237 LINE",
"533 258 LINE SMOOTH",
"533 426 OFFCURVE",
"441 531 OFFCURVE",
"294 531 CURVE SMOOTH",
"144 531 OFFCURVE",
"37 417 OFFCURVE",
"37 258 CURVE SMOOTH",
"37 99 OFFCURVE",
"144 -15 OFFCURVE",
"294 -15 CURVE SMOOTH"
);
},
{
closed = 1;
nodes = (
"168 407 OFFCURVE",
"214 449 OFFCURVE",
"295 449 CURVE SMOOTH",
"361 449 OFFCURVE",
"409 399 OFFCURVE",
"422 317 CURVE",
"234 317 LINE SMOOTH",
"205 317 OFFCURVE",
"173 317 OFFCURVE",
"150 316 CURVE"
);
}
);
width = 570;
}
);
note = eacute;
unicode = 00E9;
},
{
glyphname = ecircumflex;
lastChange = "2024-06-23 12:32:43 +0000";
layers = (
{
hints = (
{
horizontal = 1;
place = "{-15, 83}";
type = Stem;
},
{
horizontal = 1;
place = "{237, 80}";
type = Stem;
},
{
horizontal = 1;
place = "{449, 82}";
type = Stem;
},
{
horizontal = 1;
place = "{598, 113}";
type = Stem;
},
{
place = "{37, 108}";
type = Stem;
},
{
horizontal = 1;
place = "{646, 65}";
type = Stem;
}
);
layerId = "BDC5E74B-1A26-4A4F-8F6D-86B4D4C65685";
paths = (
{
closed = 1;
nodes = (
"264 711 LINE",
"193 598 LINE",
"283 598 LINE",
"314 646 LINE",
"344 598 LINE",
"436 598 LINE",
"364 711 LINE"
);
},
{
closed = 1;
nodes = (
"412 -15 OFFCURVE",
"500 55 OFFCURVE",
"525 167 CURVE",
"418 167 LINE",
"400 105 OFFCURVE",
"355 68 OFFCURVE",
"295 68 CURVE SMOOTH",
"210 68 OFFCURVE",
"154 133 OFFCURVE",
"146 238 CURVE",
"169 237 OFFCURVE",
"204 237 OFFCURVE",
"235 237 CURVE SMOOTH",
"534 237 LINE",
"534 258 LINE SMOOTH",
"534 426 OFFCURVE",
"442 531 OFFCURVE",
"295 531 CURVE SMOOTH",
"145 531 OFFCURVE",
"38 417 OFFCURVE",
"38 258 CURVE SMOOTH",
"38 99 OFFCURVE",
"145 -15 OFFCURVE",
"295 -15 CURVE SMOOTH"
);
},
{
closed = 1;
nodes = (
"169 407 OFFCURVE",
"215 449 OFFCURVE",
"296 449 CURVE SMOOTH",
"362 449 OFFCURVE",
"410 399 OFFCURVE",
"423 317 CURVE",
"235 317 LINE SMOOTH",
"206 317 OFFCURVE",
"174 317 OFFCURVE",
"151 316 CURVE"
);
}
);
width = 572;
}
);
leftKerningGroup = e;
leftMetricsKey = e;
note = ecircumflex;
rightKerningGroup = e;
rightMetricsKey = e;
unicode = 00EA;
},
{
glyphname = edieresis;
lastChange = "2024-06-23 12:32:43 +0000";
layers = (
{
hints = (
{
horizontal = 1;
place = "{-15, 83}";
type = Stem;
},
{
horizontal = 1;
place = "{237, 80}";
type = Stem;
},
{
horizontal = 1;
place = "{449, 82}";
type = Stem;
},
{
horizontal = 1;
place = "{601, 129}";
type = Stem;
},
{
place = "{98, 130}";
type = Stem;
},
{
place = "{287, 130}";
type = Stem;
},
{
place = "{37, 108}";
type = Stem;
}
);
layerId = "BDC5E74B-1A26-4A4F-8F6D-86B4D4C65685";
paths = (
{
closed = 1;
nodes = (
"99 628 OFFCURVE",
"128 601 OFFCURVE",
"164 601 CURVE SMOOTH",
"201 601 OFFCURVE",
"229 628 OFFCURVE",
"229 665 CURVE SMOOTH",
"229 702 OFFCURVE",
"201 730 OFFCURVE",
"164 730 CURVE SMOOTH",
"128 730 OFFCURVE",
"99 702 OFFCURVE",
"99 665 CURVE SMOOTH"
);
},
{
closed = 1;
nodes = (
"288 628 OFFCURVE",
"317 601 OFFCURVE",
"353 601 CURVE SMOOTH",
"390 601 OFFCURVE",
"418 628 OFFCURVE",
"418 665 CURVE SMOOTH",
"418 702 OFFCURVE",
"390 730 OFFCURVE",
"353 730 CURVE SMOOTH",
"317 730 OFFCURVE",
"288 702 OFFCURVE",
"288 665 CURVE SMOOTH"
);
},
{
closed = 1;
nodes = (
"412 -15 OFFCURVE",
"500 55 OFFCURVE",
"525 167 CURVE",
"418 167 LINE",
"400 105 OFFCURVE",
"355 68 OFFCURVE",
"295 68 CURVE SMOOTH",
"210 68 OFFCURVE",
"154 133 OFFCURVE",
"146 238 CURVE",
"169 237 OFFCURVE",
"204 237 OFFCURVE",
"235 237 CURVE SMOOTH",
"534 237 LINE",
"534 258 LINE SMOOTH",
"534 426 OFFCURVE",
"442 531 OFFCURVE",
"295 531 CURVE SMOOTH",
"145 531 OFFCURVE",
"38 417 OFFCURVE",
"38 258 CURVE SMOOTH",
"38 99 OFFCURVE",
"145 -15 OFFCURVE",
"295 -15 CURVE SMOOTH"
);
},
{
closed = 1;
nodes = (
"169 407 OFFCURVE",
"215 449 OFFCURVE",
"296 449 CURVE SMOOTH",
"362 449 OFFCURVE",
"410 399 OFFCURVE",
"423 317 CURVE",
"235 317 LINE SMOOTH",
"206 317 OFFCURVE",
"174 317 OFFCURVE",
"151 316 CURVE"
);
}
);
width = 572;
}
);
leftKerningGroup = e;
leftMetricsKey = e;
note = edieresis;
rightKerningGroup = e;
rightMetricsKey = e;
unicode = 00EB;
},
{
glyphname = egrave;
lastChange = "2024-06-23 12:32:43 +0000";
layers = (
{
hints = (
{
horizontal = 1;
place = "{-15, 83}";
type = Stem;
},
{
horizontal = 1;
place = "{237, 80}";
type = Stem;
},
{
horizontal = 1;
place = "{449, 82}";
type = Stem;
},
{
place = "{37, 108}";
type = Stem;
},
{
horizontal = 1;
place = "{449, 154}";
type = Stem;
}
);
layerId = "BDC5E74B-1A26-4A4F-8F6D-86B4D4C65685";
paths = (
{
closed = 1;
nodes = (
"238 637 LINE SMOOTH",
"202 672 OFFCURVE",
"160 716 OFFCURVE",
"160 716 CURVE",
"273 716 LINE",
"273 716 OFFCURVE",
"315 680 OFFCURVE",
"346 650 CURVE SMOOTH",
"395 603 LINE",
"273 603 LINE"
);
},
{
closed = 1;
nodes = (
"412 -15 OFFCURVE",
"500 55 OFFCURVE",
"525 167 CURVE",
"418 167 LINE",
"400 105 OFFCURVE",
"355 68 OFFCURVE",
"295 68 CURVE SMOOTH",
"210 68 OFFCURVE",
"154 133 OFFCURVE",
"146 238 CURVE",
"169 237 OFFCURVE",
"204 237 OFFCURVE",
"235 237 CURVE SMOOTH",
"534 237 LINE",
"534 258 LINE SMOOTH",
"534 426 OFFCURVE",
"442 531 OFFCURVE",
"295 531 CURVE SMOOTH",
"145 531 OFFCURVE",
"38 417 OFFCURVE",
"38 258 CURVE SMOOTH",
"38 99 OFFCURVE",
"145 -15 OFFCURVE",
"295 -15 CURVE SMOOTH"
);
},
{
closed = 1;
nodes = (
"169 407 OFFCURVE",
"215 449 OFFCURVE",
"296 449 CURVE SMOOTH",
"362 449 OFFCURVE",
"410 399 OFFCURVE",
"423 317 CURVE",
"235 317 LINE SMOOTH",
"206 317 OFFCURVE",
"174 317 OFFCURVE",
"151 316 CURVE"
);
}
);
width = 572;
}
);
leftKerningGroup = e;
leftMetricsKey = e;
note = egrave;
rightKerningGroup = e;
rightMetricsKey = e;
unicode = 00E8;
},
{
glyphname = f;
lastChange = "2024-06-23 13:20:06 +0000";
layers = (
{
hints = (
{
horizontal = 1;
place = "{-1, 21}";
target = up;
type = BottomGhost;
},
{
horizontal = 1;
place = "{436, 82}";
type = Stem;
},
{
horizontal = 1;
place = "{624, 87}";
type = Stem;
},
{
place = "{106, 107}";
type = Stem;
}
);
layerId = "BDC5E74B-1A26-4A4F-8F6D-86B4D4C65685";
paths = (
{
closed = 1;
nodes = (
"221 -1 LINE",
"221 359 LINE",
"220 437 LINE",
"251 436 LINE",
"340 436 LINE",
"340 518 LINE",
"251 518 LINE SMOOTH",
"242 518 OFFCURVE",
"230 518 OFFCURVE",
"221 517 CURVE",
"221 569 LINE SMOOTH",
"221 614 OFFCURVE",
"248 628 OFFCURVE",
"277 628 CURVE SMOOTH",
"304 628 OFFCURVE",
"340 617 OFFCURVE",
"340 617 CURVE",
"340 699 LINE",
"340 699 OFFCURVE",
"308 711 OFFCURVE",
"249 711 CURVE SMOOTH",
"162 711 OFFCURVE",
"113 656 OFFCURVE",
"114 582 CURVE SMOOTH",
"115 517 LINE",
"86 518 LINE",
"25 518 LINE",
"25 436 LINE",
"86 436 LINE SMOOTH",
"94 436 OFFCURVE",
"106 436 OFFCURVE",
"115 437 CURVE",
"114 359 LINE",
"114 -1 LINE"
);
}
);
width = 365;
}
);
note = f;
unicode = 0066;
},
{
glyphname = g;
lastChange = "2024-06-23 11:43:41 +0000";
layers = (
{
hints = (
{
horizontal = 1;
place = "{-177, 87}";
type = Stem;
},
{
horizontal = 1;
place = "{186, 87}";
type = Stem;
},
{
horizontal = 1;
place = "{445, 87}";
type = Stem;
},
{
place = "{37, 108}";
type = Stem;
},
{
place = "{415, 108}";
type = Stem;
},
{
place = "{77, 94}";
type = Stem;
},
{
place = "{363, 108}";
type = Stem;
},
{
place = "{68, 108}";
type = Stem;
}
);
layerId = "BDC5E74B-1A26-4A4F-8F6D-86B4D4C65685";
paths = (
{
closed = 1;
nodes = (
"438 -177 OFFCURVE",
"527 -118 OFFCURVE",
"528 -19 CURVE SMOOTH",
"528 88 OFFCURVE",
"440 142 OFFCURVE",
"282 138 CURVE SMOOTH",
"207 136 OFFCURVE",
"176 144 OFFCURVE",
"176 169 CURVE SMOOTH",
"176 183 OFFCURVE",
"181 196 OFFCURVE",
"190 204 CURVE",
"227 190 OFFCURVE",
"251 186 OFFCURVE",
"274 186 CURVE SMOOTH",
"387 186 OFFCURVE",
"476 262 OFFCURVE",
"476 360 CURVE SMOOTH",
"476 396 OFFCURVE",
"464 428 OFFCURVE",
"436 465 CURVE",
"460 479 OFFCURVE",
"492 482 OFFCURVE",
"508 477 CURVE",
"508 552 LINE",
"508 552 OFFCURVE",
"490 562 OFFCURVE",
"461 562 CURVE SMOOTH",
"426 562 OFFCURVE",
"393 542 OFFCURVE",
"382 505 CURVE",
"343 524 OFFCURVE",
"308 532 OFFCURVE",
"274 532 CURVE SMOOTH",
"161 532 OFFCURVE",
"73 457 OFFCURVE",
"73 360 CURVE SMOOTH",
"73 315 OFFCURVE",
"92 274 OFFCURVE",
"138 233 CURVE",
"98 225 OFFCURVE",
"82 201 OFFCURVE",
"82 169 CURVE SMOOTH",
"82 146 OFFCURVE",
"90 126 OFFCURVE",
"107 107 CURVE",
"63 80 OFFCURVE",
"42 40 OFFCURVE",
"42 -18 CURVE SMOOTH",
"42 -118 OFFCURVE",
"135 -177 OFFCURVE",
"287 -177 CURVE SMOOTH"
);
},
{
closed = 1;
nodes = (
"150 33 OFFCURVE",
"184 51 OFFCURVE",
"285 51 CURVE SMOOTH",
"378 51 OFFCURVE",
"420 29 OFFCURVE",
"420 -18 CURVE SMOOTH",
"420 -64 OFFCURVE",
"374 -90 OFFCURVE",
"288 -90 CURVE SMOOTH",
"200 -90 OFFCURVE",
"150 -63 OFFCURVE",
"150 -18 CURVE SMOOTH"
);
},
{
closed = 1;
nodes = (
"181 411 OFFCURVE",
"218 445 OFFCURVE",
"275 445 CURVE SMOOTH",
"332 445 OFFCURVE",
"368 412 OFFCURVE",
"368 359 CURVE SMOOTH",
"368 305 OFFCURVE",
"333 273 OFFCURVE",
"275 273 CURVE SMOOTH",
"217 273 OFFCURVE",
"182 306 OFFCURVE",
"181 359 CURVE"
);
}
);
width = 560;
}
);
leftKerningGroup = g;
leftMetricsKey = s;
note = g;
rightKerningGroup = g;
rightMetricsKey = "=s-10";
unicode = 0067;
},
{
glyphname = h;
lastChange = "2024-06-22 14:22:25 +0000";
layers = (
{
hints = (
{
horizontal = 1;
place = "{-1, 21}";
target = up;
type = BottomGhost;
},
{
horizontal = 1;
place = "{446, 86}";
type = Stem;
},
{
place = "{62, 108}";
type = Stem;
},
{
place = "{392, 108}";
type = Stem;
}
);
layerId = "BDC5E74B-1A26-4A4F-8F6D-86B4D4C65685";
paths = (
{
closed = 1;
nodes = (
"178 331 LINE SMOOTH",
"178 391 OFFCURVE",
"239 446 OFFCURVE",
"310 446 CURVE SMOOTH",
"372 446 OFFCURVE",
"400 412 OFFCURVE",
"400 336 CURVE SMOOTH",
"400 -1 LINE",
"508 -1 LINE",
"508 371 LINE SMOOTH",
"508 465 OFFCURVE",
"436 532 OFFCURVE",
"334 532 CURVE SMOOTH",
"267 532 OFFCURVE",
"211 502 OFFCURVE",
"178 454 CURVE",
"178 711 LINE",
"70 711 LINE",
"70 -1 LINE",
"178 -1 LINE"
);
}
);
width = 578;
}
);
leftKerningGroup = n;
leftMetricsKey = n;
note = h;
rightKerningGroup = n;
rightMetricsKey = n;
unicode = 0068;
},
{
glyphname = i;
lastChange = "2024-06-22 14:22:10 +0000";
layers = (
{
hints = (
{
place = "{55, 81}";
type = Stem;
}
);
layerId = "BDC5E74B-1A26-4A4F-8F6D-86B4D4C65685";
paths = (
{
closed = 1;
nodes = (
"70 616 OFFCURVE",
"99 589 OFFCURVE",
"135 589 CURVE SMOOTH",
"172 589 OFFCURVE",
"200 616 OFFCURVE",
"200 653 CURVE SMOOTH",
"200 690 OFFCURVE",
"172 718 OFFCURVE",
"135 718 CURVE SMOOTH",
"99 718 OFFCURVE",
"70 690 OFFCURVE",
"70 653 CURVE SMOOTH"
);
},
{
closed = 1;
nodes = (
"193 -1 LINE",
"193 518 LINE",
"85 518 LINE",
"85 -1 LINE"
);
}
);
width = 270;
}
);
leftKerningGroup = n;
leftMetricsKey = n;
note = i;
rightKerningGroup = n;
rightMetricsKey = n;
unicode = 0069;
},
{
glyphname = iacute;
lastChange = "2024-06-23 12:32:51 +0000";
layers = (
{
hints = (
{
horizontal = 1;
place = "{-1, 21}";
target = up;
type = BottomGhost;
},
{
horizontal = 1;
place = "{518, -20}";
target = down;
type = TopGhost;
},
{
place = "{134, 108}";
type = Stem;
}
);
layerId = "BDC5E74B-1A26-4A4F-8F6D-86B4D4C65685";
paths = (
{
closed = 1;
nodes = (
"70 602 LINE",
"119 649 LINE SMOOTH",
"150 679 OFFCURVE",
"192 715 OFFCURVE",
"192 715 CURVE",
"305 715 LINE",
"305 715 OFFCURVE",
"263 671 OFFCURVE",
"227 636 CURVE SMOOTH",
"192 602 LINE"
);
},
{
closed = 1;
nodes = (
"245 -1 LINE",
"245 518 LINE",
"137 518 LINE",
"137 -1 LINE"
);
}
);
width = 375;
}
);
leftKerningGroup = i;
leftMetricsKey = i;
note = iacute;
rightKerningGroup = i;
rightMetricsKey = i;
unicode = 00ED;
},
{
glyphname = icircumflex;
lastChange = "2024-06-23 12:32:51 +0000";
layers = (
{
hints = (
{
horizontal = 1;
place = "{-1, 21}";
target = up;
type = BottomGhost;
},
{
horizontal = 1;
place = "{518, -20}";
target = down;
type = TopGhost;
},
{
horizontal = 1;
place = "{603, 113}";
type = Stem;
},
{
place = "{62, 108}";
type = Stem;
},
{
horizontal = 1;
place = "{651, 65}";
type = Stem;
}
);
layerId = "BDC5E74B-1A26-4A4F-8F6D-86B4D4C65685";
paths = (
{
closed = 1;
nodes = (
"141 716 LINE",
"70 603 LINE",
"160 603 LINE",
"191 651 LINE",
"221 603 LINE",
"313 603 LINE",
"241 716 LINE"
);
},
{
closed = 1;
nodes = (
"245 -1 LINE",
"245 518 LINE",
"137 518 LINE",
"137 -1 LINE"
);
}
);
width = 383;
}
);
leftKerningGroup = i;
leftMetricsKey = i;
note = icircumflex;
rightKerningGroup = i;
rightMetricsKey = i;
unicode = 00EE;
},
{
glyphname = idieresis;
lastChange = "2024-06-23 12:32:51 +0000";
layers = (
{
hints = (
{
horizontal = 1;
place = "{-1, 21}";
target = up;
type = BottomGhost;
},
{
horizontal = 1;
place = "{518, -20}";
target = down;
type = TopGhost;
},
{
horizontal = 1;
place = "{585, 129}";
type = Stem;
},
{
place = "{-49, 130}";
type = Stem;
},
{
place = "{140, 130}";
type = Stem;
},
{
place = "{62, 108}";
type = Stem;
}
);
layerId = "BDC5E74B-1A26-4A4F-8F6D-86B4D4C65685";
paths = (
{
closed = 1;
nodes = (
"70 612 OFFCURVE",
"99 585 OFFCURVE",
"135 585 CURVE SMOOTH",
"172 585 OFFCURVE",
"200 612 OFFCURVE",
"200 649 CURVE SMOOTH",
"200 686 OFFCURVE",
"172 714 OFFCURVE",
"135 714 CURVE SMOOTH",
"99 714 OFFCURVE",
"70 686 OFFCURVE",
"70 649 CURVE SMOOTH"
);
},
{
closed = 1;
nodes = (
"259 612 OFFCURVE",
"288 585 OFFCURVE",
"324 585 CURVE SMOOTH",
"361 585 OFFCURVE",
"389 612 OFFCURVE",
"389 649 CURVE SMOOTH",
"389 686 OFFCURVE",
"361 714 OFFCURVE",
"324 714 CURVE SMOOTH",
"288 714 OFFCURVE",
"259 686 OFFCURVE",
"259 649 CURVE SMOOTH"
);
},
{
closed = 1;
nodes = (
"289 -1 LINE",
"289 518 LINE",
"181 518 LINE",
"181 -1 LINE"
);
}
);
width = 459;
}
);
leftKerningGroup = i;
leftMetricsKey = i;
note = idieresis;
rightKerningGroup = i;
rightMetricsKey = i;
unicode = 00EF;
},
{
glyphname = igrave;
lastChange = "2024-06-23 12:32:51 +0000";
layers = (
{
hints = (
{
horizontal = 1;
place = "{-1, 21}";
target = up;
type = BottomGhost;
},
{
horizontal = 1;
place = "{518, -20}";
target = down;
type = TopGhost;
},
{
place = "{113, 108}";
type = Stem;
}
);
layerId = "BDC5E74B-1A26-4A4F-8F6D-86B4D4C65685";
paths = (
{
closed = 1;
nodes = (
"148 637 LINE SMOOTH",
"112 672 OFFCURVE",
"70 716 OFFCURVE",
"70 716 CURVE",
"183 716 LINE",
"183 716 OFFCURVE",
"225 680 OFFCURVE",
"256 650 CURVE SMOOTH",
"305 603 LINE",
"183 603 LINE"
);
},
{
closed = 1;
nodes = (
"237 -1 LINE",
"237 518 LINE",
"129 518 LINE",
"129 -1 LINE"
);
}
);
width = 375;
}
);
leftKerningGroup = i;
leftMetricsKey = i;
note = igrave;
rightKerningGroup = i;
rightMetricsKey = i;
unicode = 00EC;
},
{
glyphname = j;
lastChange = "2024-06-23 11:44:52 +0000";
layers = (
{
hints = (
{
horizontal = 1;
place = "{-91, 67}";
type = Stem;
}
);
layerId = "BDC5E74B-1A26-4A4F-8F6D-86B4D4C65685";
paths = (
{
closed = 1;
nodes = (
"54 616 OFFCURVE",
"83 589 OFFCURVE",
"119 589 CURVE SMOOTH",
"156 589 OFFCURVE",
"184 616 OFFCURVE",
"184 653 CURVE SMOOTH",
"184 690 OFFCURVE",
"156 718 OFFCURVE",
"119 718 CURVE SMOOTH",
"83 718 OFFCURVE",
"54 690 OFFCURVE",
"54 653 CURVE SMOOTH"
);
},
{
closed = 1;
nodes = (
"173 518 LINE",
"65 518 LINE",
"65 -21 LINE SMOOTH",
"65 -63 OFFCURVE",
"56 -75 OFFCURVE",
"25 -75 CURVE SMOOTH",
"-9 -75 OFFCURVE",
"-38 -66 OFFCURVE",
"-52 -62 CURVE",
"-52 -142 LINE",
"-52 -142 OFFCURVE",
"-32 -160 OFFCURVE",
"44 -160 CURVE SMOOTH",
"125 -160 OFFCURVE",
"170 -123 OFFCURVE",
"173 -57 CURVE"
);
}
);
width = 224;
}
);
leftKerningGroup = j;
note = j;
rightKerningGroup = n;
rightMetricsKey = f;
unicode = 006A;
},
{
glyphname = k;
lastChange = "2024-06-23 16:10:55 +0000";
layers = (
{
hints = (
{
horizontal = 1;
place = "{0, 21}";
target = up;
type = BottomGhost;
},
{
horizontal = 1;
place = "{517, -20}";
target = down;
type = TopGhost;
},
{
place = "{63, 108}";
type = Stem;
},
{
horizontal = 1;
place = "{-1, 21}";
target = up;
type = BottomGhost;
}
);
layerId = "BDC5E74B-1A26-4A4F-8F6D-86B4D4C65685";
paths = (
{
closed = 1;
nodes = (
"178 197 LINE",
"211 232 LINE",
"242 189 LINE",
"380 -1 LINE",
"500 -1 LINE",
"277 303 LINE",
"472 517 LINE",
"353 517 LINE",
"213 365 LINE SMOOTH",
"203 354 OFFCURVE",
"189 340 OFFCURVE",
"178 327 CURVE",
"178 712 LINE",
"71 712 LINE",
"70 -1 LINE",
"178 0 LINE"
);
}
);
width = 517;
}
);
leftMetricsKey = n;
note = k;
rightKerningGroup = x;
rightMetricsKey = x;
unicode = 006B;
},
{
glyphname = l;
lastChange = "2024-06-23 16:01:28 +0000";
layers = (
{
hints = (
{
horizontal = 1;
place = "{-1, 21}";
target = up;
type = BottomGhost;
},
{
place = "{62, 108}";
type = Stem;
}
);
layerId = "BDC5E74B-1A26-4A4F-8F6D-86B4D4C65685";
paths = (
{
closed = 1;
nodes = (
"73 19 OFFCURVE",
"118 -18 OFFCURVE",
"199 -18 CURVE SMOOTH",
"231 -18 OFFCURVE",
"263 -11 OFFCURVE",
"263 -11 CURVE",
"263 69 LINE",
"249 67 OFFCURVE",
"236 67 OFFCURVE",
"218 67 CURVE SMOOTH",
"187 67 OFFCURVE",
"178 79 OFFCURVE",
"178 121 CURVE SMOOTH",
"178 711 LINE",
"70 711 LINE",
"70 85 LINE"
);
}
);
width = 298;
}
);
leftKerningGroup = n;
leftMetricsKey = n;
note = l;
rightKerningGroup = n;
rightMetricsKey = t;
unicode = 006C;
},
{
glyphname = m;
lastChange = "2024-06-23 12:33:06 +0000";
layers = (
{
hints = (
{
horizontal = 1;
place = "{-1, 21}";
target = up;
type = BottomGhost;
},
{
horizontal = 1;
place = "{446, 72}";
type = Stem;
},
{
place = "{62, 108}";
type = Stem;
},
{
place = "{362, 108}";
type = Stem;
},
{
place = "{662, 107}";
type = Stem;
},
{
horizontal = 1;
place = "{446, 86}";
type = Stem;
}
);
layerId = "BDC5E74B-1A26-4A4F-8F6D-86B4D4C65685";
paths = (
{
closed = 1;
nodes = (
"478 331 LINE SMOOTH",
"478 397 OFFCURVE",
"525 446 OFFCURVE",
"592 446 CURVE SMOOTH",
"644 446 OFFCURVE",
"670 412 OFFCURVE",
"670 336 CURVE SMOOTH",
"670 263 OFFCURVE",
"670 190 OFFCURVE",
"670 117 CURVE SMOOTH",
"670 -1 LINE",
"777 -1 LINE",
"777 371 LINE SMOOTH",
"777 465 OFFCURVE",
"710 532 OFFCURVE",
"616 532 CURVE SMOOTH",
"544 532 OFFCURVE",
"484 499 OFFCURVE",
"451 464 CURVE",
"422 506 OFFCURVE",
"372 532 OFFCURVE",
"317 532 CURVE SMOOTH",
"251 532 OFFCURVE",
"206 504 OFFCURVE",
"178 467 CURVE",
"178 518 LINE",
"70 518 LINE",
"70 -1 LINE",
"178 -1 LINE",
"178 331 LINE SMOOTH",
"178 397 OFFCURVE",
"225 446 OFFCURVE",
"292 446 CURVE SMOOTH",
"345 446 OFFCURVE",
"370 412 OFFCURVE",
"370 336 CURVE SMOOTH",
"370 -1 LINE",
"478 -1 LINE"
);
}
);
width = 847;
}
);
leftKerningGroup = n;
leftMetricsKey = n;
note = m;
rightKerningGroup = n;
rightMetricsKey = n;
unicode = 006D;
},
{
glyphname = n;
lastChange = "2024-06-23 11:44:18 +0000";
layers = (
{
hints = (
{
horizontal = 1;
place = "{449, 68}";
type = Stem;
},
{
place = "{55, 81}";
type = Stem;
},
{
place = "{385, 81}";
type = Stem;
}
);
layerId = "BDC5E74B-1A26-4A4F-8F6D-86B4D4C65685";
paths = (
{
closed = 1;
nodes = (
"178 331 LINE SMOOTH",
"178 391 OFFCURVE",
"239 446 OFFCURVE",
"310 446 CURVE SMOOTH",
"372 446 OFFCURVE",
"400 412 OFFCURVE",
"400 336 CURVE SMOOTH",
"400 -1 LINE",
"508 -1 LINE",
"508 371 LINE SMOOTH",
"508 465 OFFCURVE",
"436 532 OFFCURVE",
"334 532 CURVE SMOOTH",
"267 532 OFFCURVE",
"211 502 OFFCURVE",
"178 454 CURVE",
"178 518 LINE",
"70 518 LINE",
"70 -1 LINE",
"178 -1 LINE"
);
}
);
width = 578;
}
);
leftKerningGroup = n;
note = n;
unicode = 006E;
},
{
glyphname = ntilde;
lastChange = "2024-06-23 12:33:17 +0000";
layers = (
{
hints = (
{
horizontal = 1;
place = "{449, 68}";
type = Stem;
},
{
place = "{55, 81}";
type = Stem;
},
{
place = "{385, 81}";
type = Stem;
}
);
layerId = "BDC5E74B-1A26-4A4F-8F6D-86B4D4C65685";
paths = (
{
closed = 1;
nodes = (
"178 331 LINE SMOOTH",
"178 391 OFFCURVE",
"239 446 OFFCURVE",
"310 446 CURVE SMOOTH",
"372 446 OFFCURVE",
"400 412 OFFCURVE",
"400 336 CURVE SMOOTH",
"400 -1 LINE",
"508 -1 LINE",
"508 371 LINE SMOOTH",
"508 465 OFFCURVE",
"436 532 OFFCURVE",
"334 532 CURVE SMOOTH",
"267 532 OFFCURVE",
"211 502 OFFCURVE",
"178 454 CURVE",
"178 518 LINE",
"70 518 LINE",
"70 -1 LINE",
"178 -1 LINE"
);
}
);
width = 578;
}
);
leftKerningGroup = n;
leftMetricsKey = n;
note = ntilde;
rightKerningGroup = n;
rightMetricsKey = n;
unicode = 00F1;
},
{
glyphname = o;
lastChange = "2024-06-23 11:49:46 +0000";
layers = (
{
hints = (
{
horizontal = 1;
place = "{-12, 81}";
type = Stem;
},
{
horizontal = 1;
place = "{439, 77}";
type = Stem;
},
{
place = "{23, 83}";
type = Stem;
},
{
place = "{427, 83}";
type = Stem;
}
);
layerId = "BDC5E74B-1A26-4A4F-8F6D-86B4D4C65685";
paths = (
{
closed = 1;
nodes = (
"445 -15 OFFCURVE",
"550 99 OFFCURVE",
"550 258 CURVE SMOOTH",
"550 419 OFFCURVE",
"446 531 OFFCURVE",
"294 531 CURVE SMOOTH",
"144 531 OFFCURVE",
"37 417 OFFCURVE",
"37 258 CURVE SMOOTH",
"37 99 OFFCURVE",
"144 -15 OFFCURVE",
"294 -15 CURVE SMOOTH"
);
},
{
closed = 1;
nodes = (
"147 368 OFFCURVE",
"207 444 OFFCURVE",
"294 444 CURVE SMOOTH",
"383 444 OFFCURVE",
"442 369 OFFCURVE",
"442 258 CURVE SMOOTH",
"442 149 OFFCURVE",
"381 73 OFFCURVE",
"294 73 CURVE SMOOTH",
"208 73 OFFCURVE",
"147 150 OFFCURVE",
"147 258 CURVE SMOOTH"
);
}
);
width = 587;
}
);
leftKerningGroup = o;
note = o;
rightKerningGroup = o;
unicode = 006F;
},
{
glyphname = oacute;
lastChange = "2024-06-23 12:33:26 +0000";
layers = (
{
hints = (
{
horizontal = 1;
place = "{-12, 81}";
type = Stem;
},
{
horizontal = 1;
place = "{439, 77}";
type = Stem;
},
{
horizontal = 1;
place = "{602, 113}";
type = Stem;
},
{
place = "{23, 83}";
type = Stem;
},
{
place = "{175, 235}";
type = Stem;
},
{
place = "{427, 83}";
type = Stem;
}
);
layerId = "BDC5E74B-1A26-4A4F-8F6D-86B4D4C65685";
paths = (
{
closed = 1;
nodes = (
"224 649 LINE SMOOTH",
"255 679 OFFCURVE",
"297 715 OFFCURVE",
"297 715 CURVE",
"410 715 LINE",
"410 715 OFFCURVE",
"368 671 OFFCURVE",
"332 636 CURVE SMOOTH",
"297 602 LINE",
"175 602 LINE"
);
},
{
closed = 1;
nodes = (
"445 -15 OFFCURVE",
"550 99 OFFCURVE",
"550 258 CURVE SMOOTH",
"550 419 OFFCURVE",
"446 531 OFFCURVE",
"294 531 CURVE SMOOTH",
"144 531 OFFCURVE",
"37 417 OFFCURVE",
"37 258 CURVE SMOOTH",
"37 99 OFFCURVE",
"144 -15 OFFCURVE",
"294 -15 CURVE SMOOTH"
);
},
{
closed = 1;
nodes = (
"147 368 OFFCURVE",
"207 444 OFFCURVE",
"294 444 CURVE SMOOTH",
"383 444 OFFCURVE",
"442 369 OFFCURVE",
"442 258 CURVE SMOOTH",
"442 149 OFFCURVE",
"381 73 OFFCURVE",
"294 73 CURVE SMOOTH",
"208 73 OFFCURVE",
"147 150 OFFCURVE",
"147 258 CURVE SMOOTH"
);
}
);
width = 587;
}
);
leftKerningGroup = o;
leftMetricsKey = o;
note = oacute;
rightKerningGroup = o;
rightMetricsKey = o;
unicode = 00F3;
},
{
glyphname = ocircumflex;
lastChange = "2024-06-23 12:33:26 +0000";
layers = (
{
hints = (
{
horizontal = 1;
place = "{-12, 81}";
type = Stem;
},
{
horizontal = 1;
place = "{439, 77}";
type = Stem;
},
{
horizontal = 1;
place = "{603, 113}";
type = Stem;
},
{
place = "{23, 83}";
type = Stem;
},
{
place = "{154, 243}";
type = Stem;
},
{
place = "{427, 83}";
type = Stem;
},
{
horizontal = 1;
place = "{651, 65}";
type = Stem;
}
);
layerId = "BDC5E74B-1A26-4A4F-8F6D-86B4D4C65685";
paths = (
{
closed = 1;
nodes = (
"226 716 LINE",
"154 603 LINE",
"246 603 LINE",
"276 651 LINE",
"307 603 LINE",
"397 603 LINE",
"326 716 LINE"
);
},
{
closed = 1;
nodes = (
"445 -15 OFFCURVE",
"550 99 OFFCURVE",
"550 258 CURVE SMOOTH",
"550 419 OFFCURVE",
"446 531 OFFCURVE",
"294 531 CURVE SMOOTH",
"144 531 OFFCURVE",
"37 417 OFFCURVE",
"37 258 CURVE SMOOTH",
"37 99 OFFCURVE",
"144 -15 OFFCURVE",
"294 -15 CURVE SMOOTH"
);
},
{
closed = 1;
nodes = (
"147 368 OFFCURVE",
"207 444 OFFCURVE",
"294 444 CURVE SMOOTH",
"383 444 OFFCURVE",
"442 369 OFFCURVE",
"442 258 CURVE SMOOTH",
"442 149 OFFCURVE",
"381 73 OFFCURVE",
"294 73 CURVE SMOOTH",
"208 73 OFFCURVE",
"147 150 OFFCURVE",
"147 258 CURVE SMOOTH"
);
}
);
width = 587;
}
);
leftKerningGroup = o;
leftMetricsKey = o;
note = ocircumflex;
rightKerningGroup = o;
rightMetricsKey = o;
unicode = 00F4;
},
{
glyphname = odieresis;
lastChange = "2024-06-23 12:33:26 +0000";
layers = (
{
hints = (
{
horizontal = 1;
place = "{-12, 81}";
type = Stem;
},
{
horizontal = 1;
place = "{439, 77}";
type = Stem;
},
{
horizontal = 1;
place = "{585, 129}";
type = Stem;
},
{
place = "{23, 83}";
type = Stem;
},
{
place = "{116, 130}";
type = Stem;
},
{
place = "{427, 83}";
type = Stem;
},
{
place = "{305, 130}";
type = Stem;
}
);
layerId = "BDC5E74B-1A26-4A4F-8F6D-86B4D4C65685";
paths = (
{
closed = 1;
nodes = (
"116 612 OFFCURVE",
"145 585 OFFCURVE",
"181 585 CURVE SMOOTH",
"218 585 OFFCURVE",
"246 612 OFFCURVE",
"246 649 CURVE SMOOTH",
"246 686 OFFCURVE",
"218 714 OFFCURVE",
"181 714 CURVE SMOOTH",
"145 714 OFFCURVE",
"116 686 OFFCURVE",
"116 649 CURVE SMOOTH"
);
},
{
closed = 1;
nodes = (
"305 612 OFFCURVE",
"334 585 OFFCURVE",
"370 585 CURVE SMOOTH",
"407 585 OFFCURVE",
"435 612 OFFCURVE",
"435 649 CURVE SMOOTH",
"435 686 OFFCURVE",
"407 714 OFFCURVE",
"370 714 CURVE SMOOTH",
"334 714 OFFCURVE",
"305 686 OFFCURVE",
"305 649 CURVE SMOOTH"
);
},
{
closed = 1;
nodes = (
"445 -15 OFFCURVE",
"550 99 OFFCURVE",
"550 258 CURVE SMOOTH",
"550 419 OFFCURVE",
"446 531 OFFCURVE",
"294 531 CURVE SMOOTH",
"144 531 OFFCURVE",
"37 417 OFFCURVE",
"37 258 CURVE SMOOTH",
"37 99 OFFCURVE",
"144 -15 OFFCURVE",
"294 -15 CURVE SMOOTH"
);
},
{
closed = 1;
nodes = (
"147 368 OFFCURVE",
"207 444 OFFCURVE",
"294 444 CURVE SMOOTH",
"383 444 OFFCURVE",
"442 369 OFFCURVE",
"442 258 CURVE SMOOTH",
"442 149 OFFCURVE",
"381 73 OFFCURVE",
"294 73 CURVE SMOOTH",
"208 73 OFFCURVE",
"147 150 OFFCURVE",
"147 258 CURVE SMOOTH"
);
}
);
width = 587;
}
);
leftKerningGroup = o;
leftMetricsKey = o;
note = odieresis;
rightKerningGroup = o;
rightMetricsKey = o;
unicode = 00F6;
},
{
glyphname = ograve;
lastChange = "2024-06-23 12:33:26 +0000";
layers = (
{
hints = (
{
horizontal = 1;
place = "{-12, 81}";
type = Stem;
},
{
horizontal = 1;
place = "{439, 77}";
type = Stem;
},
{
horizontal = 1;
place = "{603, 113}";
type = Stem;
},
{
place = "{160, 83}";
type = Stem;
},
{
place = "{564, 83}";
type = Stem;
},
{
place = "{158, 235}";
type = Stem;
}
);
layerId = "BDC5E74B-1A26-4A4F-8F6D-86B4D4C65685";
paths = (
{
closed = 1;
nodes = (
"207 650 LINE SMOOTH",
"238 680 OFFCURVE",
"280 716 OFFCURVE",
"280 716 CURVE",
"393 716 LINE",
"393 716 OFFCURVE",
"351 672 OFFCURVE",
"315 637 CURVE SMOOTH",
"280 603 LINE",
"158 603 LINE"
);
},
{
closed = 1;
nodes = (
"443 -15 OFFCURVE",
"550 99 OFFCURVE",
"550 258 CURVE SMOOTH",
"550 417 OFFCURVE",
"443 531 OFFCURVE",
"293 531 CURVE SMOOTH",
"141 531 OFFCURVE",
"37 419 OFFCURVE",
"37 258 CURVE SMOOTH",
"37 99 OFFCURVE",
"142 -15 OFFCURVE",
"293 -15 CURVE SMOOTH"
);
},
{
closed = 1;
nodes = (
"440 150 OFFCURVE",
"379 73 OFFCURVE",
"293 73 CURVE SMOOTH",
"206 73 OFFCURVE",
"145 149 OFFCURVE",
"145 258 CURVE SMOOTH",
"145 369 OFFCURVE",
"204 444 OFFCURVE",
"293 444 CURVE SMOOTH",
"380 444 OFFCURVE",
"440 368 OFFCURVE",
"440 258 CURVE SMOOTH"
);
}
);
width = 587;
}
);
leftKerningGroup = o;
leftMetricsKey = o;
note = ograve;
rightKerningGroup = o;
rightMetricsKey = o;
unicode = 00F2;
},
{
glyphname = oslash;
lastChange = "2024-06-23 12:33:26 +0000";
layers = (
{
hints = (
{
horizontal = 1;
place = "{-93, 21}";
target = up;
type = BottomGhost;
},
{
horizontal = 1;
place = "{-12, 81}";
type = Stem;
},
{
horizontal = 1;
place = "{439, 77}";
type = Stem;
},
{
horizontal = 1;
place = "{649, -20}";
target = down;
type = TopGhost;
},
{
place = "{23, 83}";
type = Stem;
},
{
place = "{427, 83}";
type = Stem;
}
);
layerId = "BDC5E74B-1A26-4A4F-8F6D-86B4D4C65685";
paths = (
{
closed = 1;
nodes = (
"581 649 LINE",
"467 649 LINE",
"391 518 LINE",
"365 526 OFFCURVE",
"336 531 OFFCURVE",
"305 531 CURVE SMOOTH",
"155 531 OFFCURVE",
"48 417 OFFCURVE",
"48 258 CURVE SMOOTH",
"48 176 OFFCURVE",
"76 106 OFFCURVE",
"124 58 CURVE",
"37 -93 LINE",
"151 -93 LINE",
"207 3 LINE",
"237 -9 OFFCURVE",
"270 -15 OFFCURVE",
"305 -15 CURVE SMOOTH",
"456 -15 OFFCURVE",
"561 99 OFFCURVE",
"561 258 CURVE SMOOTH",
"561 346 OFFCURVE",
"530 420 OFFCURVE",
"476 468 CURVE"
);
},
{
closed = 1;
nodes = (
"158 368 OFFCURVE",
"218 444 OFFCURVE",
"305 444 CURVE SMOOTH",
"319 444 OFFCURVE",
"333 442 OFFCURVE",
"345 438 CURVE",
"181 155 LINE",
"166 183 OFFCURVE",
"158 219 OFFCURVE",
"158 258 CURVE SMOOTH"
);
},
{
closed = 1;
nodes = (
"286 73 OFFCURVE",
"269 77 OFFCURVE",
"253 83 CURVE",
"423 377 LINE",
"442 346 OFFCURVE",
"453 305 OFFCURVE",
"453 258 CURVE SMOOTH",
"453 149 OFFCURVE",
"392 73 OFFCURVE",
"305 73 CURVE SMOOTH"
);
}
);
width = 618;
}
);
leftKerningGroup = o;
leftMetricsKey = o;
note = oslash;
rightKerningGroup = o;
rightMetricsKey = o;
unicode = 00F8;
},
{
glyphname = otilde;
lastChange = "2024-06-23 12:33:26 +0000";
layers = (
{
hints = (
{
horizontal = 1;
place = "{-12, 81}";
type = Stem;
},
{
horizontal = 1;
place = "{439, 77}";
type = Stem;
},
{
place = "{23, 83}";
type = Stem;
},
{
place = "{427, 83}";
type = Stem;
}
);
layerId = "BDC5E74B-1A26-4A4F-8F6D-86B4D4C65685";
paths = (
{
closed = 1;
nodes = (
"445 -15 OFFCURVE",
"550 99 OFFCURVE",
"550 258 CURVE SMOOTH",
"550 419 OFFCURVE",
"446 531 OFFCURVE",
"294 531 CURVE SMOOTH",
"144 531 OFFCURVE",
"37 417 OFFCURVE",
"37 258 CURVE SMOOTH",
"37 99 OFFCURVE",
"144 -15 OFFCURVE",
"294 -15 CURVE SMOOTH"
);
},
{
closed = 1;
nodes = (
"147 368 OFFCURVE",
"207 444 OFFCURVE",
"294 444 CURVE SMOOTH",
"383 444 OFFCURVE",
"442 369 OFFCURVE",
"442 258 CURVE SMOOTH",
"442 149 OFFCURVE",
"381 73 OFFCURVE",
"294 73 CURVE SMOOTH",
"208 73 OFFCURVE",
"147 150 OFFCURVE",
"147 258 CURVE SMOOTH"
);
}
);
width = 587;
}
);
leftKerningGroup = o;
leftMetricsKey = o;
note = otilde;
rightKerningGroup = o;
rightMetricsKey = o;
unicode = 00F5;
},
{
glyphname = oe;
lastChange = "2024-06-23 12:33:34 +0000";
layers = (
{
hints = (
{
horizontal = 1;
place = "{-12, 81}";
type = Stem;
},
{
horizontal = 1;
place = "{439, 77}";
type = Stem;
},
{
place = "{23, 83}";
type = Stem;
},
{
place = "{427, 83}";
type = Stem;
}
);
layerId = "BDC5E74B-1A26-4A4F-8F6D-86B4D4C65685";
paths = (
{
closed = 1;
nodes = (
"818 -15 OFFCURVE",
"905 56 OFFCURVE",
"930 173 CURVE",
"822 172 LINE",
"805 105 OFFCURVE",
"760 68 OFFCURVE",
"700 68 CURVE SMOOTH",
"615 68 OFFCURVE",
"559 132 OFFCURVE",
"551 235 CURVE",
"574 234 OFFCURVE",
"608 234 OFFCURVE",
"640 234 CURVE SMOOTH",
"938 234 LINE",
"938 258 LINE SMOOTH",
"938 426 OFFCURVE",
"847 531 OFFCURVE",
"700 531 CURVE SMOOTH",
"607 531 OFFCURVE",
"536 487 OFFCURVE",
"497 408 CURVE",
"459 488 OFFCURVE",
"389 531 OFFCURVE",
"294 531 CURVE SMOOTH",
"144 531 OFFCURVE",
"37 417 OFFCURVE",
"37 258 CURVE SMOOTH",
"37 99 OFFCURVE",
"144 -15 OFFCURVE",
"294 -15 CURVE SMOOTH",
"388 -15 OFFCURVE",
"458 28 OFFCURVE",
"497 109 CURVE",
"536 29 OFFCURVE",
"606 -15 OFFCURVE",
"700 -15 CURVE SMOOTH"
);
},
{
closed = 1;
nodes = (
"573 406 OFFCURVE",
"619 449 OFFCURVE",
"701 449 CURVE SMOOTH",
"767 449 OFFCURVE",
"815 398 OFFCURVE",
"827 314 CURVE",
"640 314 LINE SMOOTH",
"610 314 OFFCURVE",
"578 314 OFFCURVE",
"556 313 CURVE"
);
},
{
closed = 1;
nodes = (
"147 368 OFFCURVE",
"207 444 OFFCURVE",
"294 444 CURVE SMOOTH",
"383 444 OFFCURVE",
"442 369 OFFCURVE",
"442 258 CURVE SMOOTH",
"442 149 OFFCURVE",
"381 73 OFFCURVE",
"294 73 CURVE SMOOTH",
"208 73 OFFCURVE",
"147 150 OFFCURVE",
"147 258 CURVE SMOOTH"
);
}
);
width = 976;
}
);
leftKerningGroup = o;
leftMetricsKey = o;
note = oe;
rightKerningGroup = e;
rightMetricsKey = e;
unicode = 0153;
},
{
glyphname = p;
lastChange = "2024-06-23 11:48:30 +0000";
layers = (
{
hints = (
{
horizontal = 1;
place = "{-15, 86}";
type = Stem;
},
{
horizontal = 1;
place = "{446, 87}";
type = Stem;
},
{
place = "{63, 109}";
type = Stem;
},
{
place = "{436, 109}";
type = Stem;
},
{
horizontal = 1;
place = "{446, 74}";
type = Stem;
}
);
layerId = "BDC5E74B-1A26-4A4F-8F6D-86B4D4C65685";
paths = (
{
closed = 1;
nodes = (
"178 -162 LINE",
"178 65 LINE",
"211 12 OFFCURVE",
"267 -16 OFFCURVE",
"335 -16 CURVE SMOOTH",
"461 -16 OFFCURVE",
"551 98 OFFCURVE",
"551 257 CURVE SMOOTH",
"551 416 OFFCURVE",
"461 531 OFFCURVE",
"335 531 CURVE SMOOTH",
"267 531 OFFCURVE",
"211 503 OFFCURVE",
"178 450 CURVE",
"178 518 LINE",
"70 518 LINE",
"70 -162 LINE"
);
},
{
closed = 1;
nodes = (
"178 371 OFFCURVE",
"231 445 OFFCURVE",
"311 445 CURVE SMOOTH",
"388 445 OFFCURVE",
"443 368 OFFCURVE",
"443 258 CURVE SMOOTH",
"443 147 OFFCURVE",
"387 69 OFFCURVE",
"311 69 CURVE SMOOTH",
"231 69 OFFCURVE",
"178 144 OFFCURVE",
"178 258 CURVE SMOOTH"
);
}
);
width = 588;
}
);
leftKerningGroup = n;
leftMetricsKey = n;
note = p;
rightKerningGroup = o;
rightMetricsKey = o;
unicode = 0070;
},
{
glyphname = thorn;
lastChange = "2024-06-23 12:33:40 +0000";
layers = (
{
hints = (
{
horizontal = 1;
place = "{-16, 85}";
type = Stem;
},
{
horizontal = 1;
place = "{445, 86}";
type = Stem;
},
{
place = "{62, 108}";
type = Stem;
},
{
place = "{435, 108}";
type = Stem;
}
);
layerId = "BDC5E74B-1A26-4A4F-8F6D-86B4D4C65685";
paths = (
{
closed = 1;
nodes = (
"178 -162 LINE",
"178 45 LINE",
"211 12 OFFCURVE",
"267 -16 OFFCURVE",
"335 -16 CURVE SMOOTH",
"461 -16 OFFCURVE",
"551 98 OFFCURVE",
"551 257 CURVE SMOOTH",
"551 416 OFFCURVE",
"461 531 OFFCURVE",
"335 531 CURVE SMOOTH",
"267 531 OFFCURVE",
"211 503 OFFCURVE",
"178 470 CURVE",
"178 711 LINE",
"70 711 LINE",
"70 -162 LINE"
);
},
{
closed = 1;
nodes = (
"178 371 OFFCURVE",
"231 445 OFFCURVE",
"311 445 CURVE SMOOTH",
"388 445 OFFCURVE",
"443 368 OFFCURVE",
"443 258 CURVE SMOOTH",
"443 147 OFFCURVE",
"387 69 OFFCURVE",
"311 69 CURVE SMOOTH",
"231 69 OFFCURVE",
"178 144 OFFCURVE",
"178 258 CURVE SMOOTH"
);
}
);
width = 588;
}
);
leftKerningGroup = p;
leftMetricsKey = p;
note = thorn;
rightKerningGroup = p;
rightMetricsKey = p;
unicode = 00FE;
},
{
glyphname = q;
lastChange = "2024-06-22 14:19:11 +0000";
layers = (
{
hints = (
{
horizontal = 1;
place = "{-16, 85}";
type = Stem;
},
{
horizontal = 1;
place = "{445, 86}";
type = Stem;
},
{
place = "{29, 109}";
type = Stem;
},
{
place = "{403, 107}";
type = Stem;
},
{
horizontal = 1;
place = "{445, 73}";
type = Stem;
}
);
layerId = "BDC5E74B-1A26-4A4F-8F6D-86B4D4C65685";
paths = (
{
closed = 1;
nodes = (
"518 -162 LINE",
"518 518 LINE",
"411 518 LINE",
"411 450 LINE",
"377 503 OFFCURVE",
"321 531 OFFCURVE",
"253 531 CURVE SMOOTH",
"128 531 OFFCURVE",
"37 416 OFFCURVE",
"37 257 CURVE SMOOTH",
"37 98 OFFCURVE",
"128 -16 OFFCURVE",
"253 -16 CURVE SMOOTH",
"321 -16 OFFCURVE",
"377 12 OFFCURVE",
"411 65 CURVE",
"411 -162 LINE"
);
},
{
closed = 1;
nodes = (
"146 368 OFFCURVE",
"201 445 OFFCURVE",
"278 445 CURVE SMOOTH",
"357 445 OFFCURVE",
"411 371 OFFCURVE",
"411 258 CURVE SMOOTH",
"411 144 OFFCURVE",
"358 69 OFFCURVE",
"278 69 CURVE SMOOTH",
"201 69 OFFCURVE",
"146 147 OFFCURVE",
"146 258 CURVE SMOOTH"
);
}
);
width = 588;
}
);
leftKerningGroup = o;
leftMetricsKey = o;
note = q;
rightKerningGroup = n;
rightMetricsKey = n;
unicode = 0071;
},
{
glyphname = r;
lastChange = "2024-06-23 11:54:37 +0000";
layers = (
{
hints = (
{
horizontal = 1;
place = "{-1, 21}";
target = up;
type = BottomGhost;
},
{
horizontal = 1;
place = "{531, -20}";
target = down;
type = TopGhost;
},
{
place = "{62, 108}";
type = Stem;
},
{
horizontal = 1;
place = "{518, -20}";
target = down;
type = TopGhost;
},
{
horizontal = 1;
place = "{446, 85}";
type = Stem;
}
);
layerId = "BDC5E74B-1A26-4A4F-8F6D-86B4D4C65685";
paths = (
{
closed = 1;
nodes = (
"341 531 LINE",
"267 536 OFFCURVE",
"205 504 OFFCURVE",
"170 454 CURVE",
"170 518 LINE",
"62 518 LINE",
"62 -1 LINE",
"170 -1 LINE",
"170 331 LINE SMOOTH",
"170 398 OFFCURVE",
"255 452 OFFCURVE",
"341 446 CURVE"
);
}
);
width = 361;
}
);
leftKerningGroup = n;
leftMetricsKey = h;
note = r;
rightKerningGroup = r;
rightMetricsKey = "=f-5";
unicode = 0072;
},
{
glyphname = s;
lastChange = "2024-06-23 11:44:00 +0000";
layers = (
{
hints = (
{
horizontal = 1;
place = "{-16, 86}";
type = Stem;
},
{
horizontal = 1;
place = "{445, 86}";
type = Stem;
},
{
place = "{53, 108}";
type = Stem;
},
{
place = "{376, 108}";
type = Stem;
}
);
layerId = "BDC5E74B-1A26-4A4F-8F6D-86B4D4C65685";
paths = (
{
closed = 1;
nodes = (
"388 -16 OFFCURVE",
"481 50 OFFCURVE",
"481 146 CURVE SMOOTH",
"481 260 OFFCURVE",
"392 284 OFFCURVE",
"285 308 CURVE SMOOTH",
"196 331 OFFCURVE",
"158 341 OFFCURVE",
"158 386 CURVE SMOOTH",
"158 422 OFFCURVE",
"195 445 OFFCURVE",
"256 445 CURVE SMOOTH",
"323 445 OFFCURVE",
"360 414 OFFCURVE",
"362 356 CURVE",
"473 356 LINE",
"467 458 OFFCURVE",
"378 531 OFFCURVE",
"259 531 CURVE SMOOTH",
"136 531 OFFCURVE",
"50 472 OFFCURVE",
"50 386 CURVE SMOOTH",
"50 275 OFFCURVE",
"149 245 OFFCURVE",
"252 223 CURVE SMOOTH",
"345 203 OFFCURVE",
"373 184 OFFCURVE",
"373 145 CURVE SMOOTH",
"373 97 OFFCURVE",
"331 70 OFFCURVE",
"257 70 CURVE SMOOTH",
"189 70 OFFCURVE",
"152 101 OFFCURVE",
"150 159 CURVE",
"39 159 LINE",
"45 57 OFFCURVE",
"135 -16 OFFCURVE",
"254 -16 CURVE SMOOTH"
);
}
);
width = 523;
}
);
leftKerningGroup = s;
note = s;
rightKerningGroup = s;
unicode = 0073;
},
{
glyphname = germandbls;
lastChange = "2024-06-23 12:33:47 +0000";
layers = (
{
hints = (
{
horizontal = 1;
place = "{-1, 21}";
target = up;
type = BottomGhost;
},
{
horizontal = 1;
place = "{334, 86}";
type = Stem;
},
{
horizontal = 1;
place = "{635, 91}";
type = Stem;
},
{
place = "{60, 112}";
type = Stem;
},
{
place = "{384, 113}";
type = Stem;
},
{
horizontal = 1;
place = "{-16, 93}";
type = Stem;
},
{
place = "{419, 113}";
type = Stem;
},
{
horizontal = 1;
place = "{-7, 21}";
target = up;
type = BottomGhost;
}
);
layerId = "BDC5E74B-1A26-4A4F-8F6D-86B4D4C65685";
paths = (
{
closed = 1;
nodes = (
"172 -1 LINE",
"172 520 LINE SMOOTH",
"172 584 OFFCURVE",
"218 635 OFFCURVE",
"274 635 CURVE SMOOTH",
"340 635 OFFCURVE",
"384 592 OFFCURVE",
"384 529 CURVE SMOOTH",
"384 463 OFFCURVE",
"335 420 OFFCURVE",
"260 420 CURVE SMOOTH",
"240 420 LINE",
"240 334 LINE",
"277 334 LINE SMOOTH",
"360 334 OFFCURVE",
"419 279 OFFCURVE",
"419 203 CURVE SMOOTH",
"419 127 OFFCURVE",
"374 77 OFFCURVE",
"305 77 CURVE SMOOTH",
"264 77 OFFCURVE",
"233 85 OFFCURVE",
"233 85 CURVE",
"233 -7 LINE",
"233 -7 OFFCURVE",
"264 -16 OFFCURVE",
"318 -16 CURVE SMOOTH",
"445 -16 OFFCURVE",
"532 73 OFFCURVE",
"532 203 CURVE SMOOTH",
"532 286 OFFCURVE",
"486 350 OFFCURVE",
"406 380 CURVE",
"465 410 OFFCURVE",
"497 462 OFFCURVE",
"497 529 CURVE SMOOTH",
"497 641 OFFCURVE",
"401 726 OFFCURVE",
"274 726 CURVE SMOOTH",
"150 726 OFFCURVE",
"60 640 OFFCURVE",
"60 525 CURVE SMOOTH",
"61 -1 LINE"
);
}
);
width = 560;
}
);
leftMetricsKey = N;
note = germandbls;
rightMetricsKey = B;
unicode = 00DF;
},
{
glyphname = t;
lastChange = "2024-06-23 16:01:12 +0000";
layers = (
{
hints = (
{
horizontal = 1;
place = "{-4, 85}";
type = Stem;
},
{
horizontal = 1;
place = "{436, 82}";
type = Stem;
},
{
place = "{112, 107}";
type = Stem;
}
);
layerId = "BDC5E74B-1A26-4A4F-8F6D-86B4D4C65685";
paths = (
{
closed = 1;
nodes = (
"311 -4 OFFCURVE",
"331 14 OFFCURVE",
"331 14 CURVE",
"331 94 LINE",
"317 90 OFFCURVE",
"288 81 OFFCURVE",
"254 81 CURVE SMOOTH",
"223 81 OFFCURVE",
"214 93 OFFCURVE",
"214 135 CURVE SMOOTH",
"214 436 LINE",
"334 436 LINE",
"334 518 LINE",
"241 518 LINE SMOOTH",
"233 518 OFFCURVE",
"222 518 OFFCURVE",
"214 517 CURVE",
"214 653 LINE",
"107 653 LINE",
"107 621 LINE",
"108 517 LINE",
"98 518 OFFCURVE",
"86 518 OFFCURVE",
"79 518 CURVE SMOOTH",
"17 518 LINE",
"17 436 LINE",
"107 436 LINE",
"107 96 LINE",
"110 30 OFFCURVE",
"154 -4 OFFCURVE",
"235 -4 CURVE SMOOTH"
);
}
);
width = 369;
}
);
leftKerningGroup = f;
leftMetricsKey = f;
note = t;
rightKerningGroup = f;
rightMetricsKey = "=f+10";
unicode = 0074;
},
{
glyphname = u;
lastChange = "2024-06-23 12:26:47 +0000";
layers = (
{
hints = (
{
horizontal = 1;
place = "{-15, 86}";
type = Stem;
},
{
horizontal = 1;
place = "{518, -20}";
target = down;
type = TopGhost;
},
{
place = "{62, 108}";
type = Stem;
},
{
place = "{383, 108}";
type = Stem;
},
{
horizontal = 1;
place = "{-1, 72}";
type = Stem;
}
);
layerId = "BDC5E74B-1A26-4A4F-8F6D-86B4D4C65685";
paths = (
{
closed = 1;
nodes = (
"318 -15 OFFCURVE",
"363 11 OFFCURVE",
"391 68 CURVE",
"391 -1 LINE",
"499 -1 LINE",
"499 518 LINE",
"391 518 LINE",
"391 178 LINE SMOOTH",
"391 125 OFFCURVE",
"336 71 OFFCURVE",
"281 71 CURVE SMOOTH",
"207 71 OFFCURVE",
"178 104 OFFCURVE",
"178 191 CURVE SMOOTH",
"178 518 LINE",
"70 518 LINE",
"70 167 LINE SMOOTH",
"70 55 OFFCURVE",
"141 -15 OFFCURVE",
"256 -15 CURVE SMOOTH"
);
}
);
width = 569;
}
);
leftKerningGroup = n;
leftMetricsKey = n;
note = u;
rightKerningGroup = n;
rightMetricsKey = n;
unicode = 0075;
},
{
glyphname = uacute;
lastChange = "2024-06-23 12:33:54 +0000";
layers = (
{
hints = (
{
horizontal = 1;
place = "{-15, 86}";
type = Stem;
},
{
horizontal = 1;
place = "{518, -20}";
target = down;
type = TopGhost;
},
{
place = "{62, 108}";
type = Stem;
},
{
place = "{383, 108}";
type = Stem;
},
{
horizontal = 1;
place = "{-1, 72}";
type = Stem;
}
);
layerId = "BDC5E74B-1A26-4A4F-8F6D-86B4D4C65685";
paths = (
{
closed = 1;
nodes = (
"259 645 LINE SMOOTH",
"290 675 OFFCURVE",
"332 711 OFFCURVE",
"332 711 CURVE",
"445 711 LINE",
"445 711 OFFCURVE",
"403 667 OFFCURVE",
"367 632 CURVE SMOOTH",
"332 598 LINE",
"210 598 LINE"
);
},
{
closed = 1;
nodes = (
"318 -15 OFFCURVE",
"363 11 OFFCURVE",
"391 68 CURVE",
"391 -1 LINE",
"499 -1 LINE",
"499 518 LINE",
"391 518 LINE",
"391 178 LINE SMOOTH",
"391 125 OFFCURVE",
"336 71 OFFCURVE",
"281 71 CURVE SMOOTH",
"207 71 OFFCURVE",
"178 104 OFFCURVE",
"178 191 CURVE SMOOTH",
"178 518 LINE",
"70 518 LINE",
"70 167 LINE SMOOTH",
"70 55 OFFCURVE",
"141 -15 OFFCURVE",
"256 -15 CURVE SMOOTH"
);
}
);
width = 569;
}
);
leftKerningGroup = u;
leftMetricsKey = u;
note = uacute;
rightKerningGroup = u;
rightMetricsKey = u;
unicode = 00FA;
},
{
glyphname = ucircumflex;
lastChange = "2024-06-23 12:33:54 +0000";
layers = (
{
hints = (
{
horizontal = 1;
place = "{-15, 86}";
type = Stem;
},
{
horizontal = 1;
place = "{518, -20}";
target = down;
type = TopGhost;
},
{
horizontal = 1;
place = "{603, 113}";
type = Stem;
},
{
place = "{62, 108}";
type = Stem;
},
{
place = "{383, 108}";
type = Stem;
},
{
horizontal = 1;
place = "{651, 65}";
type = Stem;
},
{
horizontal = 1;
place = "{-1, 72}";
type = Stem;
}
);
layerId = "BDC5E74B-1A26-4A4F-8F6D-86B4D4C65685";
paths = (
{
closed = 1;
nodes = (
"162 603 LINE",
"252 603 LINE",
"283 651 LINE",
"313 603 LINE",
"405 603 LINE",
"333 716 LINE",
"233 716 LINE"
);
},
{
closed = 1;
nodes = (
"318 -15 OFFCURVE",
"363 11 OFFCURVE",
"391 68 CURVE",
"391 -1 LINE",
"499 -1 LINE",
"499 518 LINE",
"391 518 LINE",
"391 178 LINE SMOOTH",
"391 125 OFFCURVE",
"336 71 OFFCURVE",
"281 71 CURVE SMOOTH",
"207 71 OFFCURVE",
"178 104 OFFCURVE",
"178 191 CURVE SMOOTH",
"178 518 LINE",
"70 518 LINE",
"70 167 LINE SMOOTH",
"70 55 OFFCURVE",
"141 -15 OFFCURVE",
"256 -15 CURVE SMOOTH"
);
}
);
width = 569;
}
);
leftKerningGroup = u;
leftMetricsKey = u;
note = ucircumflex;
rightKerningGroup = u;
rightMetricsKey = u;
unicode = 00FB;
},
{
glyphname = udieresis;
lastChange = "2024-06-23 12:33:54 +0000";
layers = (
{
hints = (
{
horizontal = 1;
place = "{-15, 86}";
type = Stem;
},
{
horizontal = 1;
place = "{518, -20}";
target = down;
type = TopGhost;
},
{
horizontal = 1;
place = "{586, 129}";
type = Stem;
},
{
place = "{106, 64}";
type = Stem;
},
{
place = "{383, 108}";
type = Stem;
},
{
place = "{106, 130}";
type = Stem;
},
{
place = "{62, 108}";
type = Stem;
},
{
place = "{295, 130}";
type = Stem;
},
{
horizontal = 1;
place = "{-1, 72}";
type = Stem;
}
);
layerId = "BDC5E74B-1A26-4A4F-8F6D-86B4D4C65685";
paths = (
{
closed = 1;
nodes = (
"114 613 OFFCURVE",
"143 586 OFFCURVE",
"179 586 CURVE SMOOTH",
"216 586 OFFCURVE",
"244 613 OFFCURVE",
"244 650 CURVE SMOOTH",
"244 687 OFFCURVE",
"216 715 OFFCURVE",
"179 715 CURVE SMOOTH",
"143 715 OFFCURVE",
"114 687 OFFCURVE",
"114 650 CURVE SMOOTH"
);
},
{
closed = 1;
nodes = (
"303 613 OFFCURVE",
"332 586 OFFCURVE",
"368 586 CURVE SMOOTH",
"405 586 OFFCURVE",
"433 613 OFFCURVE",
"433 650 CURVE SMOOTH",
"433 687 OFFCURVE",
"405 715 OFFCURVE",
"368 715 CURVE SMOOTH",
"332 715 OFFCURVE",
"303 687 OFFCURVE",
"303 650 CURVE SMOOTH"
);
},
{
closed = 1;
nodes = (
"318 -15 OFFCURVE",
"363 11 OFFCURVE",
"391 68 CURVE",
"391 -1 LINE",
"499 -1 LINE",
"499 518 LINE",
"391 518 LINE",
"391 178 LINE SMOOTH",
"391 125 OFFCURVE",
"336 71 OFFCURVE",
"281 71 CURVE SMOOTH",
"207 71 OFFCURVE",
"178 104 OFFCURVE",
"178 191 CURVE SMOOTH",
"178 518 LINE",
"70 518 LINE",
"70 167 LINE SMOOTH",
"70 55 OFFCURVE",
"141 -15 OFFCURVE",
"256 -15 CURVE SMOOTH"
);
}
);
width = 569;
}
);
leftKerningGroup = u;
leftMetricsKey = u;
note = udieresis;
rightKerningGroup = u;
rightMetricsKey = u;
unicode = 00FC;
},
{
glyphname = ugrave;
lastChange = "2024-06-23 12:33:54 +0000";
layers = (
{
hints = (
{
horizontal = 1;
place = "{-15, 86}";
type = Stem;
},
{
horizontal = 1;
place = "{518, -20}";
target = down;
type = TopGhost;
},
{
place = "{62, 108}";
type = Stem;
},
{
place = "{383, 108}";
type = Stem;
},
{
horizontal = 1;
place = "{-1, 72}";
type = Stem;
}
);
layerId = "BDC5E74B-1A26-4A4F-8F6D-86B4D4C65685";
paths = (
{
closed = 1;
nodes = (
"400 602 LINE",
"278 602 LINE",
"243 636 LINE SMOOTH",
"207 671 OFFCURVE",
"165 715 OFFCURVE",
"165 715 CURVE",
"278 715 LINE",
"278 715 OFFCURVE",
"320 679 OFFCURVE",
"351 649 CURVE SMOOTH"
);
},
{
closed = 1;
nodes = (
"318 -15 OFFCURVE",
"363 11 OFFCURVE",
"391 68 CURVE",
"391 -1 LINE",
"499 -1 LINE",
"499 518 LINE",
"391 518 LINE",
"391 178 LINE SMOOTH",
"391 125 OFFCURVE",
"336 71 OFFCURVE",
"281 71 CURVE SMOOTH",
"207 71 OFFCURVE",
"178 104 OFFCURVE",
"178 191 CURVE SMOOTH",
"178 518 LINE",
"70 518 LINE",
"70 167 LINE SMOOTH",
"70 55 OFFCURVE",
"141 -15 OFFCURVE",
"256 -15 CURVE SMOOTH"
);
}
);
width = 569;
}
);
leftKerningGroup = u;
leftMetricsKey = u;
note = ugrave;
rightKerningGroup = u;
rightMetricsKey = u;
unicode = 00F9;
},
{
glyphname = v;
lastChange = "2024-06-23 11:52:30 +0000";
layers = (
{
hints = (
{
horizontal = 1;
place = "{4, 81}";
type = Stem;
}
);
layerId = "BDC5E74B-1A26-4A4F-8F6D-86B4D4C65685";
paths = (
{
closed = 1;
nodes = (
"298 1 LINE",
"480 518 LINE",
"367 518 LINE SMOOTH",
"367 518 OFFCURVE",
"298 314 OFFCURVE",
"268 213 CURVE SMOOTH",
"244 134 LINE",
"220 215 LINE SMOOTH",
"190 314 OFFCURVE",
"123 518 OFFCURVE",
"123 518 CURVE SMOOTH",
"10 518 LINE",
"191 1 LINE"
);
}
);
width = 490;
}
);
leftKerningGroup = v;
note = v;
rightKerningGroup = v;
unicode = 0076;
},
{
glyphname = w;
lastChange = "2024-06-22 14:19:21 +0000";
layers = (
{
hints = (
{
horizontal = 1;
place = "{2, 81}";
type = Stem;
},
{
horizontal = 1;
place = "{426, 77}";
type = Stem;
}
);
layerId = "BDC5E74B-1A26-4A4F-8F6D-86B4D4C65685";
paths = (
{
closed = 1;
nodes = (
"298 -1 LINE",
"410 380 LINE",
"521 -1 LINE",
"628 -1 LINE",
"800 518 LINE",
"686 518 LINE SMOOTH",
"686 518 OFFCURVE",
"622 311 OFFCURVE",
"595 212 CURVE SMOOTH",
"575 136 LINE",
"567 161 OFFCURVE",
"559 189 OFFCURVE",
"554 210 CURVE SMOOTH",
"527 312 OFFCURVE",
"462 518 OFFCURVE",
"462 518 CURVE SMOOTH",
"356 518 LINE SMOOTH",
"356 518 OFFCURVE",
"290 311 OFFCURVE",
"264 212 CURVE SMOOTH",
"244 139 LINE",
"223 214 LINE SMOOTH",
"195 313 OFFCURVE",
"132 518 OFFCURVE",
"132 518 CURVE SMOOTH",
"20 518 LINE",
"190 -1 LINE"
);
}
);
width = 820;
}
);
leftKerningGroup = v;
leftMetricsKey = v;
note = w;
rightKerningGroup = v;
rightMetricsKey = v;
unicode = 0077;
},
{
glyphname = wacute;
lastChange = "2024-06-23 12:34:01 +0000";
layers = (
{
hints = (
{
horizontal = 1;
place = "{2, 81}";
type = Stem;
},
{
horizontal = 1;
place = "{426, 77}";
type = Stem;
},
{
horizontal = 1;
place = "{602, 113}";
type = Stem;
},
{
place = "{300, 235}";
type = Stem;
}
);
layerId = "BDC5E74B-1A26-4A4F-8F6D-86B4D4C65685";
paths = (
{
closed = 1;
nodes = (
"360 649 LINE SMOOTH",
"391 679 OFFCURVE",
"433 715 OFFCURVE",
"433 715 CURVE",
"546 715 LINE",
"546 715 OFFCURVE",
"504 671 OFFCURVE",
"468 636 CURVE SMOOTH",
"433 602 LINE",
"311 602 LINE"
);
},
{
closed = 1;
nodes = (
"298 -1 LINE",
"410 380 LINE",
"521 -1 LINE",
"628 -1 LINE",
"800 518 LINE",
"686 518 LINE SMOOTH",
"686 518 OFFCURVE",
"622 311 OFFCURVE",
"595 212 CURVE SMOOTH",
"575 136 LINE",
"567 161 OFFCURVE",
"559 189 OFFCURVE",
"554 210 CURVE SMOOTH",
"527 312 OFFCURVE",
"462 518 OFFCURVE",
"462 518 CURVE SMOOTH",
"356 518 LINE SMOOTH",
"356 518 OFFCURVE",
"290 311 OFFCURVE",
"264 212 CURVE SMOOTH",
"244 139 LINE",
"223 214 LINE SMOOTH",
"195 313 OFFCURVE",
"132 518 OFFCURVE",
"132 518 CURVE SMOOTH",
"20 518 LINE",
"190 -1 LINE"
);
}
);
width = 820;
}
);
leftKerningGroup = w;
leftMetricsKey = w;
note = wacute;
rightKerningGroup = w;
rightMetricsKey = w;
unicode = 1E83;
},
{
glyphname = wcircumflex;
lastChange = "2024-06-23 12:34:01 +0000";
layers = (
{
hints = (
{
horizontal = 1;
place = "{2, 81}";
type = Stem;
},
{
horizontal = 1;
place = "{426, 77}";
type = Stem;
},
{
horizontal = 1;
place = "{604, 113}";
type = Stem;
},
{
place = "{283, 243}";
type = Stem;
},
{
horizontal = 1;
place = "{652, 65}";
type = Stem;
}
);
layerId = "BDC5E74B-1A26-4A4F-8F6D-86B4D4C65685";
paths = (
{
closed = 1;
nodes = (
"384 604 LINE",
"415 652 LINE",
"445 604 LINE",
"537 604 LINE",
"465 717 LINE",
"365 717 LINE",
"294 604 LINE"
);
},
{
closed = 1;
nodes = (
"298 -1 LINE",
"410 380 LINE",
"521 -1 LINE",
"628 -1 LINE",
"800 518 LINE",
"686 518 LINE SMOOTH",
"686 518 OFFCURVE",
"622 311 OFFCURVE",
"595 212 CURVE SMOOTH",
"575 136 LINE",
"567 161 OFFCURVE",
"559 189 OFFCURVE",
"554 210 CURVE SMOOTH",
"527 312 OFFCURVE",
"462 518 OFFCURVE",
"462 518 CURVE SMOOTH",
"356 518 LINE SMOOTH",
"356 518 OFFCURVE",
"290 311 OFFCURVE",
"264 212 CURVE SMOOTH",
"244 139 LINE",
"223 214 LINE SMOOTH",
"195 313 OFFCURVE",
"132 518 OFFCURVE",
"132 518 CURVE SMOOTH",
"20 518 LINE",
"190 -1 LINE"
);
}
);
width = 820;
}
);
leftKerningGroup = w;
leftMetricsKey = w;
note = wcircumflex;
rightKerningGroup = w;
rightMetricsKey = w;
unicode = 0175;
},
{
glyphname = wdieresis;
lastChange = "2024-06-23 12:34:01 +0000";
layers = (
{
hints = (
{
horizontal = 1;
place = "{2, 81}";
type = Stem;
},
{
horizontal = 1;
place = "{426, 77}";
type = Stem;
},
{
horizontal = 1;
place = "{601, 129}";
type = Stem;
},
{
place = "{235, 130}";
type = Stem;
},
{
place = "{424, 130}";
type = Stem;
}
);
layerId = "BDC5E74B-1A26-4A4F-8F6D-86B4D4C65685";
paths = (
{
closed = 1;
nodes = (
"246 628 OFFCURVE",
"275 601 OFFCURVE",
"311 601 CURVE SMOOTH",
"348 601 OFFCURVE",
"376 628 OFFCURVE",
"376 665 CURVE SMOOTH",
"376 702 OFFCURVE",
"348 730 OFFCURVE",
"311 730 CURVE SMOOTH",
"275 730 OFFCURVE",
"246 702 OFFCURVE",
"246 665 CURVE SMOOTH"
);
},
{
closed = 1;
nodes = (
"435 628 OFFCURVE",
"464 601 OFFCURVE",
"500 601 CURVE SMOOTH",
"537 601 OFFCURVE",
"565 628 OFFCURVE",
"565 665 CURVE SMOOTH",
"565 702 OFFCURVE",
"537 730 OFFCURVE",
"500 730 CURVE SMOOTH",
"464 730 OFFCURVE",
"435 702 OFFCURVE",
"435 665 CURVE SMOOTH"
);
},
{
closed = 1;
nodes = (
"298 -1 LINE",
"410 380 LINE",
"521 -1 LINE",
"628 -1 LINE",
"800 518 LINE",
"686 518 LINE SMOOTH",
"686 518 OFFCURVE",
"622 311 OFFCURVE",
"595 212 CURVE SMOOTH",
"575 136 LINE",
"567 161 OFFCURVE",
"559 189 OFFCURVE",
"554 210 CURVE SMOOTH",
"527 312 OFFCURVE",
"462 518 OFFCURVE",
"462 518 CURVE SMOOTH",
"356 518 LINE SMOOTH",
"356 518 OFFCURVE",
"290 311 OFFCURVE",
"264 212 CURVE SMOOTH",
"244 139 LINE",
"223 214 LINE SMOOTH",
"195 313 OFFCURVE",
"132 518 OFFCURVE",
"132 518 CURVE SMOOTH",
"20 518 LINE",
"190 -1 LINE"
);
}
);
width = 820;
}
);
leftKerningGroup = w;
leftMetricsKey = w;
note = wdieresis;
rightKerningGroup = w;
rightMetricsKey = w;
unicode = 1E85;
},
{
glyphname = wgrave;
lastChange = "2024-06-23 12:34:01 +0000";
layers = (
{
hints = (
{
horizontal = 1;
place = "{2, 81}";
type = Stem;
},
{
horizontal = 1;
place = "{426, 77}";
type = Stem;
},
{
horizontal = 1;
place = "{603, 113}";
type = Stem;
},
{
place = "{288, 235}";
type = Stem;
}
);
layerId = "BDC5E74B-1A26-4A4F-8F6D-86B4D4C65685";
paths = (
{
closed = 1;
nodes = (
"485 650 LINE",
"534 603 LINE",
"412 603 LINE",
"377 637 LINE SMOOTH",
"341 672 OFFCURVE",
"299 716 OFFCURVE",
"299 716 CURVE",
"412 716 LINE"
);
},
{
closed = 1;
nodes = (
"298 -1 LINE",
"410 380 LINE",
"521 -1 LINE",
"628 -1 LINE",
"800 518 LINE",
"686 518 LINE SMOOTH",
"686 518 OFFCURVE",
"622 311 OFFCURVE",
"595 212 CURVE SMOOTH",
"575 136 LINE",
"567 161 OFFCURVE",
"559 189 OFFCURVE",
"554 210 CURVE SMOOTH",
"527 312 OFFCURVE",
"462 518 OFFCURVE",
"462 518 CURVE SMOOTH",
"356 518 LINE SMOOTH",
"356 518 OFFCURVE",
"290 311 OFFCURVE",
"264 212 CURVE SMOOTH",
"244 139 LINE",
"223 214 LINE SMOOTH",
"195 313 OFFCURVE",
"132 518 OFFCURVE",
"132 518 CURVE SMOOTH",
"20 518 LINE",
"190 -1 LINE"
);
}
);
width = 820;
}
);
leftKerningGroup = w;
leftMetricsKey = w;
note = wgrave;
rightKerningGroup = w;
rightMetricsKey = w;
unicode = 1E81;
},
{
glyphname = x;
lastChange = "2024-06-23 16:10:45 +0000";
layers = (
{
hints = (
{
horizontal = 1;
place = "{-1, 21}";
target = up;
type = BottomGhost;
},
{
horizontal = 1;
place = "{518, -20}";
target = down;
type = TopGhost;
},
{
place = "{17, 481}";
type = Stem;
}
);
layerId = "BDC5E74B-1A26-4A4F-8F6D-86B4D4C65685";
paths = (
{
closed = 1;
nodes = (
"135 -1 LINE",
"226 129 LINE SMOOTH",
"233 139 OFFCURVE",
"237 145 OFFCURVE",
"248 160 CURVE",
"257 175 LINE",
"289 128 LINE",
"380 -1 LINE",
"498 -1 LINE",
"355 205 LINE SMOOTH",
"349 212 OFFCURVE",
"340 225 OFFCURVE",
"333 235 CURVE",
"324 246 OFFCURVE",
"320 252 OFFCURVE",
"315 259 CURVE",
"320 266 OFFCURVE",
"324 272 OFFCURVE",
"333 283 CURVE",
"340 293 OFFCURVE",
"349 306 OFFCURVE",
"355 313 CURVE",
"498 518 LINE",
"380 518 LINE",
"288 386 LINE",
"267 355 LINE",
"264 351 OFFCURVE",
"261 346 OFFCURVE",
"257 341 CURVE",
"254 346 OFFCURVE",
"251 351 OFFCURVE",
"248 355 CURVE",
"227 386 LINE",
"135 518 LINE",
"17 518 LINE",
"164 308 LINE",
"184 281 LINE",
"192 271 OFFCURVE",
"196 266 OFFCURVE",
"200 259 CURVE",
"165 211 LINE",
"17 -1 LINE"
);
}
);
width = 515;
}
);
leftKerningGroup = x;
note = x;
rightKerningGroup = x;
unicode = 0078;
},
{
glyphname = y;
lastChange = "2024-06-23 09:47:15 +0000";
layers = (
{
hints = (
{
horizontal = 1;
place = "{-177, 86}";
type = Stem;
},
{
horizontal = 1;
place = "{518, -20}";
target = down;
type = TopGhost;
},
{
place = "{8, 469}";
type = Stem;
},
{
horizontal = 1;
place = "{-166, 21}";
target = up;
type = BottomGhost;
}
);
layerId = "BDC5E74B-1A26-4A4F-8F6D-86B4D4C65685";
paths = (
{
closed = 1;
nodes = (
"494 518 LINE",
"382 518 LINE SMOOTH",
"382 518 OFFCURVE",
"314 314 OFFCURVE",
"283 213 CURVE SMOOTH",
"259 134 LINE",
"235 215 LINE SMOOTH",
"206 314 OFFCURVE",
"138 518 OFFCURVE",
"138 518 CURVE SMOOTH",
"25 518 LINE",
"203 10 LINE",
"182 -46 LINE SMOOTH",
"170 -77 OFFCURVE",
"161 -92 OFFCURVE",
"130 -92 CURVE SMOOTH",
"96 -92 OFFCURVE",
"67 -83 OFFCURVE",
"53 -79 CURVE",
"53 -159 LINE",
"53 -159 OFFCURVE",
"73 -177 OFFCURVE",
"149 -177 CURVE SMOOTH",
"230 -177 OFFCURVE",
"270 -130 OFFCURVE",
"294 -60 CURVE SMOOTH"
);
}
);
width = 519;
}
);
leftKerningGroup = v;
leftMetricsKey = v;
note = y;
rightKerningGroup = v;
rightMetricsKey = v;
unicode = 0079;
},
{
glyphname = yacute;
lastChange = "2024-06-23 12:34:08 +0000";
layers = (
{
hints = (
{
horizontal = 1;
place = "{-166, 21}";
target = up;
type = BottomGhost;
},
{
horizontal = 1;
place = "{518, -20}";
target = down;
type = TopGhost;
},
{
place = "{8, 469}";
type = Stem;
},
{
horizontal = 1;
place = "{-177, 86}";
type = Stem;
}
);
layerId = "BDC5E74B-1A26-4A4F-8F6D-86B4D4C65685";
paths = (
{
closed = 1;
nodes = (
"200 650 LINE SMOOTH",
"231 680 OFFCURVE",
"273 716 OFFCURVE",
"273 716 CURVE",
"386 716 LINE",
"386 716 OFFCURVE",
"344 672 OFFCURVE",
"308 637 CURVE SMOOTH",
"273 603 LINE",
"151 603 LINE"
);
},
{
closed = 1;
nodes = (
"182 -46 LINE SMOOTH",
"169 -80 OFFCURVE",
"157 -91 OFFCURVE",
"132 -91 CURVE SMOOTH",
"114 -91 OFFCURVE",
"72 -84 OFFCURVE",
"72 -84 CURVE",
"72 -166 LINE",
"72 -166 OFFCURVE",
"103 -177 OFFCURVE",
"149 -177 CURVE SMOOTH",
"214 -177 OFFCURVE",
"262 -137 OFFCURVE",
"294 -60 CURVE",
"494 518 LINE",
"382 518 LINE SMOOTH",
"382 518 OFFCURVE",
"313 314 OFFCURVE",
"283 213 CURVE SMOOTH",
"259 134 LINE",
"235 215 LINE SMOOTH",
"205 314 OFFCURVE",
"138 518 OFFCURVE",
"138 518 CURVE SMOOTH",
"25 518 LINE",
"203 10 LINE"
);
}
);
width = 519;
}
);
leftKerningGroup = y;
leftMetricsKey = y;
note = yacute;
rightKerningGroup = y;
rightMetricsKey = y;
unicode = 00FD;
},
{
glyphname = ycircumflex;
lastChange = "2024-06-23 12:34:08 +0000";
layers = (
{
hints = (
{
horizontal = 1;
place = "{-166, 21}";
target = up;
type = BottomGhost;
},
{
horizontal = 1;
place = "{518, -20}";
target = down;
type = TopGhost;
},
{
horizontal = 1;
place = "{603, 113}";
type = Stem;
},
{
place = "{8, 469}";
type = Stem;
},
{
horizontal = 1;
place = "{651, 65}";
type = Stem;
},
{
horizontal = 1;
place = "{-177, 86}";
type = Stem;
}
);
layerId = "BDC5E74B-1A26-4A4F-8F6D-86B4D4C65685";
paths = (
{
closed = 1;
nodes = (
"236 603 LINE",
"267 651 LINE",
"297 603 LINE",
"389 603 LINE",
"317 716 LINE",
"217 716 LINE",
"146 603 LINE"
);
},
{
closed = 1;
nodes = (
"182 -46 LINE SMOOTH",
"169 -80 OFFCURVE",
"157 -91 OFFCURVE",
"132 -91 CURVE SMOOTH",
"114 -91 OFFCURVE",
"72 -84 OFFCURVE",
"72 -84 CURVE",
"72 -166 LINE",
"72 -166 OFFCURVE",
"103 -177 OFFCURVE",
"149 -177 CURVE SMOOTH",
"214 -177 OFFCURVE",
"262 -137 OFFCURVE",
"294 -60 CURVE",
"494 518 LINE",
"382 518 LINE SMOOTH",
"382 518 OFFCURVE",
"313 314 OFFCURVE",
"283 213 CURVE SMOOTH",
"259 134 LINE",
"235 215 LINE SMOOTH",
"205 314 OFFCURVE",
"138 518 OFFCURVE",
"138 518 CURVE SMOOTH",
"25 518 LINE",
"203 10 LINE"
);
}
);
width = 519;
}
);
leftKerningGroup = y;
leftMetricsKey = y;
note = ycircumflex;
rightKerningGroup = y;
rightMetricsKey = y;
unicode = 0177;
},
{
glyphname = ydieresis;
lastChange = "2024-06-23 12:34:08 +0000";
layers = (
{
hints = (
{
horizontal = 1;
place = "{-166, 21}";
target = up;
type = BottomGhost;
},
{
horizontal = 1;
place = "{518, -20}";
target = down;
type = TopGhost;
},
{
horizontal = 1;
place = "{601, 129}";
type = Stem;
},
{
place = "{98, 130}";
type = Stem;
},
{
place = "{287, 130}";
type = Stem;
},
{
horizontal = 1;
place = "{-177, 86}";
type = Stem;
}
);
layerId = "BDC5E74B-1A26-4A4F-8F6D-86B4D4C65685";
paths = (
{
closed = 1;
nodes = (
"115 628 OFFCURVE",
"144 601 OFFCURVE",
"180 601 CURVE SMOOTH",
"217 601 OFFCURVE",
"245 628 OFFCURVE",
"245 665 CURVE SMOOTH",
"245 702 OFFCURVE",
"217 730 OFFCURVE",
"180 730 CURVE SMOOTH",
"144 730 OFFCURVE",
"115 702 OFFCURVE",
"115 665 CURVE SMOOTH"
);
},
{
closed = 1;
nodes = (
"304 628 OFFCURVE",
"333 601 OFFCURVE",
"369 601 CURVE SMOOTH",
"406 601 OFFCURVE",
"434 628 OFFCURVE",
"434 665 CURVE SMOOTH",
"434 702 OFFCURVE",
"406 730 OFFCURVE",
"369 730 CURVE SMOOTH",
"333 730 OFFCURVE",
"304 702 OFFCURVE",
"304 665 CURVE SMOOTH"
);
},
{
closed = 1;
nodes = (
"182 -46 LINE SMOOTH",
"169 -80 OFFCURVE",
"157 -91 OFFCURVE",
"132 -91 CURVE SMOOTH",
"114 -91 OFFCURVE",
"72 -84 OFFCURVE",
"72 -84 CURVE",
"72 -166 LINE",
"72 -166 OFFCURVE",
"103 -177 OFFCURVE",
"149 -177 CURVE SMOOTH",
"214 -177 OFFCURVE",
"262 -137 OFFCURVE",
"294 -60 CURVE",
"494 518 LINE",
"382 518 LINE SMOOTH",
"382 518 OFFCURVE",
"313 314 OFFCURVE",
"283 213 CURVE SMOOTH",
"259 134 LINE",
"235 215 LINE SMOOTH",
"205 314 OFFCURVE",
"138 518 OFFCURVE",
"138 518 CURVE SMOOTH",
"25 518 LINE",
"203 10 LINE"
);
}
);
width = 519;
}
);
leftKerningGroup = y;
leftMetricsKey = y;
note = ydieresis;
rightKerningGroup = y;
rightMetricsKey = y;
unicode = 00FF;
},
{
glyphname = ygrave;
lastChange = "2024-06-23 12:34:08 +0000";
layers = (
{
hints = (
{
horizontal = 1;
place = "{-166, 21}";
target = up;
type = BottomGhost;
},
{
horizontal = 1;
place = "{518, -20}";
target = down;
type = TopGhost;
},
{
place = "{8, 469}";
type = Stem;
},
{
horizontal = 1;
place = "{-177, 86}";
type = Stem;
}
);
layerId = "BDC5E74B-1A26-4A4F-8F6D-86B4D4C65685";
paths = (
{
closed = 1;
nodes = (
"316 650 LINE",
"365 603 LINE",
"243 603 LINE",
"208 637 LINE SMOOTH",
"172 672 OFFCURVE",
"130 716 OFFCURVE",
"130 716 CURVE",
"243 716 LINE"
);
},
{
closed = 1;
nodes = (
"182 -46 LINE SMOOTH",
"169 -80 OFFCURVE",
"157 -91 OFFCURVE",
"132 -91 CURVE SMOOTH",
"114 -91 OFFCURVE",
"72 -84 OFFCURVE",
"72 -84 CURVE",
"72 -166 LINE",
"72 -166 OFFCURVE",
"103 -177 OFFCURVE",
"149 -177 CURVE SMOOTH",
"214 -177 OFFCURVE",
"262 -137 OFFCURVE",
"294 -60 CURVE",
"494 518 LINE",
"382 518 LINE SMOOTH",
"382 518 OFFCURVE",
"313 314 OFFCURVE",
"283 213 CURVE SMOOTH",
"259 134 LINE",
"235 215 LINE SMOOTH",
"205 314 OFFCURVE",
"138 518 OFFCURVE",
"138 518 CURVE SMOOTH",
"25 518 LINE",
"203 10 LINE"
);
}
);
width = 519;
}
);
leftKerningGroup = y;
leftMetricsKey = y;
note = ygrave;
rightKerningGroup = y;
rightMetricsKey = y;
unicode = 1EF3;
},
{
glyphname = z;
lastChange = "2024-06-23 11:48:59 +0000";
layers = (
{
hints = (
{
horizontal = 1;
place = "{-1, 82}";
type = Stem;
},
{
horizontal = 1;
place = "{436, 82}";
type = Stem;
},
{
place = "{45, 423}";
type = Stem;
}
);
layerId = "BDC5E74B-1A26-4A4F-8F6D-86B4D4C65685";
paths = (
{
closed = 1;
nodes = (
"458 81 LINE",
"159 81 LINE",
"217 152 LINE",
"453 445 LINE",
"453 518 LINE",
"59 518 LINE",
"59 436 LINE",
"329 436 LINE",
"282 380 LINE",
"35 72 LINE",
"35 0 LINE",
"458 -1 LINE"
);
}
);
width = 493;
}
);
note = z;
unicode = 007A;
},
{
glyphname = a.001;
lastChange = "2024-06-23 12:34:16 +0000";
layers = (
{
hints = (
{
horizontal = 1;
place = "{-14, 84}";
type = Stem;
},
{
horizontal = 1;
place = "{445, 87}";
type = Stem;
},
{
place = "{29, 109}";
type = Stem;
},
{
place = "{359, 102}";
type = Stem;
},
{
place = "{510, 8}";
type = Stem;
},
{
place = "{352, 109}";
type = Stem;
},
{
horizontal = 1;
place = "{-4, 83}";
type = Stem;
}
);
layerId = "BDC5E74B-1A26-4A4F-8F6D-86B4D4C65685";
paths = (
{
closed = 1;
nodes = (
"460 209 LINE SMOOTH",
"460 227 OFFCURVE",
"460 248 OFFCURVE",
"460 269 CURVE SMOOTH",
"460 385 LINE",
"459 476 OFFCURVE",
"378 532 OFFCURVE",
"250 532 CURVE SMOOTH",
"138 532 OFFCURVE",
"49 456 OFFCURVE",
"43 356 CURVE",
"154 356 LINE",
"156 415 OFFCURVE",
"192 445 OFFCURVE",
"261 445 CURVE SMOOTH",
"319 445 OFFCURVE",
"351 425 OFFCURVE",
"351 388 CURVE SMOOTH",
"351 342 OFFCURVE",
"314 332 OFFCURVE",
"224 309 CURVE SMOOTH",
"117 285 OFFCURVE",
"28 261 OFFCURVE",
"28 148 CURVE SMOOTH",
"28 62 OFFCURVE",
"111 -14 OFFCURVE",
"203 -14 CURVE SMOOTH",
"298 -14 OFFCURVE",
"344 21 OFFCURVE",
"366 47 CURVE",
"382 14 OFFCURVE",
"420 -4 OFFCURVE",
"470 -4 CURVE SMOOTH",
"502 -4 OFFCURVE",
"508 -1 OFFCURVE",
"509 -1 CURVE",
"509 -1 OFFCURVE",
"508 -4 OFFCURVE",
"517 -11 CURVE",
"517 79 LINE",
"472 77 OFFCURVE",
"460 83 OFFCURVE",
"460 125 CURVE SMOOTH"
);
},
{
closed = 1;
nodes = (
"358 191 LINE SMOOTH",
"357 128 OFFCURVE",
"294 70 OFFCURVE",
"228 70 CURVE SMOOTH",
"176 70 OFFCURVE",
"137 101 OFFCURVE",
"137 144 CURVE SMOOTH",
"137 190 OFFCURVE",
"163 213 OFFCURVE",
"241 231 CURVE SMOOTH",
"288 242 OFFCURVE",
"328 255 OFFCURVE",
"357 270 CURVE",
"358 227 LINE"
);
}
);
width = 541;
}
);
leftKerningGroup = a;
leftMetricsKey = a;
note = a.001;
rightKerningGroup = a;
rightMetricsKey = a;
},
{
glyphname = g.001;
lastChange = "2024-06-23 12:34:22 +0000";
layers = (
{
hints = (
{
horizontal = 1;
place = "{-178, 84}";
type = Stem;
},
{
horizontal = 1;
place = "{16, 81}";
type = Stem;
},
{
horizontal = 1;
place = "{450, 81}";
type = Stem;
},
{
place = "{29, 109}";
type = Stem;
},
{
place = "{403, 107}";
type = Stem;
},
{
horizontal = 1;
place = "{450, 68}";
type = Stem;
}
);
layerId = "BDC5E74B-1A26-4A4F-8F6D-86B4D4C65685";
paths = (
{
closed = 1;
nodes = (
"439 -178 OFFCURVE",
"523 -91 OFFCURVE",
"523 66 CURVE SMOOTH",
"523 518 LINE",
"416 518 LINE",
"416 473 LINE",
"382 504 OFFCURVE",
"326 531 OFFCURVE",
"258 531 CURVE SMOOTH",
"134 531 OFFCURVE",
"42 423 OFFCURVE",
"42 274 CURVE SMOOTH",
"42 125 OFFCURVE",
"133 16 OFFCURVE",
"258 16 CURVE SMOOTH",
"326 16 OFFCURVE",
"382 43 OFFCURVE",
"416 74 CURVE",
"416 -46 OFFCURVE",
"377 -94 OFFCURVE",
"285 -94 CURVE SMOOTH",
"184 -94 OFFCURVE",
"178 -48 OFFCURVE",
"168 -15 CURVE",
"62 -13 LINE",
"69 -113 OFFCURVE",
"157 -178 OFFCURVE",
"285 -178 CURVE SMOOTH"
);
},
{
closed = 1;
nodes = (
"151 377 OFFCURVE",
"206 450 OFFCURVE",
"283 450 CURVE SMOOTH",
"363 450 OFFCURVE",
"416 380 OFFCURVE",
"416 275 CURVE SMOOTH",
"416 167 OFFCURVE",
"363 97 OFFCURVE",
"283 97 CURVE SMOOTH",
"206 97 OFFCURVE",
"151 170 OFFCURVE",
"151 275 CURVE SMOOTH"
);
}
);
width = 555;
}
);
leftKerningGroup = g;
leftMetricsKey = g;
note = g.001;
rightKerningGroup = g;
rightMetricsKey = g;
},
{
glyphname = zero;
lastChange = "2024-06-23 12:25:25 +0000";
layers = (
{
hints = (
{
horizontal = 1;
place = "{-16, 91}";
type = Stem;
},
{
horizontal = 1;
place = "{634, 91}";
type = Stem;
},
{
place = "{28, 114}";
type = Stem;
},
{
place = "{451, 114}";
type = Stem;
}
);
layerId = "BDC5E74B-1A26-4A4F-8F6D-86B4D4C65685";
paths = (
{
closed = 1;
nodes = (
"481 -16 OFFCURVE",
"574 114 OFFCURVE",
"574 354 CURVE SMOOTH",
"574 595 OFFCURVE",
"481 725 OFFCURVE",
"306 725 CURVE SMOOTH",
"132 725 OFFCURVE",
"37 593 OFFCURVE",
"37 354 CURVE SMOOTH",
"37 116 OFFCURVE",
"132 -16 OFFCURVE",
"306 -16 CURVE SMOOTH"
);
},
{
closed = 1;
nodes = (
"151 540 OFFCURVE",
"204 634 OFFCURVE",
"307 634 CURVE SMOOTH",
"408 634 OFFCURVE",
"460 541 OFFCURVE",
"460 353 CURVE SMOOTH",
"460 167 OFFCURVE",
"408 75 OFFCURVE",
"307 75 CURVE SMOOTH",
"204 75 OFFCURVE",
"151 168 OFFCURVE",
"151 353 CURVE SMOOTH"
);
}
);
width = 611;
}
);
leftMetricsKey = o;
note = zero;
rightMetricsKey = o;
unicode = 0030;
},
{
glyphname = one;
lastChange = "2024-06-23 12:25:21 +0000";
layers = (
{
hints = (
{
horizontal = 1;
place = "{-1, 21}";
target = up;
type = BottomGhost;
},
{
horizontal = 1;
place = "{514, 196}";
type = Stem;
},
{
place = "{166, 111}";
type = Stem;
}
);
layerId = "BDC5E74B-1A26-4A4F-8F6D-86B4D4C65685";
paths = (
{
closed = 1;
nodes = (
"279 -1 LINE",
"279 710 LINE",
"168 710 LINE",
"175 621 OFFCURVE",
"72 580 OFFCURVE",
"25 589 CURVE",
"25 514 LINE",
"168 514 LINE",
"168 -1 LINE"
);
}
);
width = 349;
}
);
leftMetricsKey = f;
note = one;
rightMetricsKey = n;
unicode = 0031;
},
{
glyphname = two;
lastChange = "2024-06-23 12:25:31 +0000";
layers = (
{
hints = (
{
horizontal = 1;
place = "{-1, 86}";
type = Stem;
},
{
horizontal = 1;
place = "{636, 91}";
type = Stem;
},
{
place = "{398, 113}";
type = Stem;
}
);
layerId = "BDC5E74B-1A26-4A4F-8F6D-86B4D4C65685";
paths = (
{
closed = 1;
nodes = (
"557 -1 LINE",
"557 85 LINE",
"215 85 LINE",
"235 158 OFFCURVE",
"282 196 OFFCURVE",
"347 249 CURVE SMOOTH",
"389 283 OFFCURVE",
"441 325 OFFCURVE",
"489 380 CURVE SMOOTH",
"536 432 OFFCURVE",
"555 480 OFFCURVE",
"555 539 CURVE SMOOTH",
"555 647 OFFCURVE",
"454 727 OFFCURVE",
"319 727 CURVE SMOOTH",
"181 727 OFFCURVE",
"77 642 OFFCURVE",
"83 531 CURVE",
"195 531 LINE",
"189 592 OFFCURVE",
"242 636 OFFCURVE",
"319 636 CURVE SMOOTH",
"394 636 OFFCURVE",
"442 595 OFFCURVE",
"442 532 CURVE SMOOTH",
"442 494 OFFCURVE",
"428 457 OFFCURVE",
"405 431 CURVE SMOOTH",
"372 391 OFFCURVE",
"336 363 OFFCURVE",
"297 333 CURVE SMOOTH",
"206 263 OFFCURVE",
"107 186 OFFCURVE",
"70 -1 CURVE"
);
}
);
width = 627;
}
);
leftMetricsKey = n;
note = two;
rightMetricsKey = n;
unicode = 0032;
},
{
glyphname = three;
lastChange = "2024-06-23 12:25:37 +0000";
layers = (
{
hints = (
{
horizontal = 1;
place = "{-16, 91}";
type = Stem;
},
{
horizontal = 1;
place = "{343, 87}";
type = Stem;
},
{
horizontal = 1;
place = "{639, 88}";
type = Stem;
},
{
place = "{414, 114}";
type = Stem;
},
{
place = "{401, 113}";
type = Stem;
}
);
layerId = "BDC5E74B-1A26-4A4F-8F6D-86B4D4C65685";
paths = (
{
closed = 1;
nodes = (
"430 -16 OFFCURVE",
"537 75 OFFCURVE",
"537 197 CURVE SMOOTH",
"537 277 OFFCURVE",
"492 347 OFFCURVE",
"417 385 CURVE",
"484 418 OFFCURVE",
"523 474 OFFCURVE",
"523 539 CURVE SMOOTH",
"523 647 OFFCURVE",
"422 727 OFFCURVE",
"286 727 CURVE SMOOTH",
"149 727 OFFCURVE",
"45 642 OFFCURVE",
"51 531 CURVE",
"163 531 LINE",
"157 593 OFFCURVE",
"211 639 OFFCURVE",
"286 639 CURVE SMOOTH",
"360 639 OFFCURVE",
"410 597 OFFCURVE",
"410 536 CURVE SMOOTH",
"410 473 OFFCURVE",
"364 430 OFFCURVE",
"296 430 CURVE SMOOTH",
"224 430 LINE",
"222 343 LINE",
"296 343 LINE SMOOTH",
"375 343 OFFCURVE",
"423 291 OFFCURVE",
"423 207 CURVE SMOOTH",
"423 127 OFFCURVE",
"369 75 OFFCURVE",
"286 75 CURVE SMOOTH",
"204 75 OFFCURVE",
"144 131 OFFCURVE",
"149 206 CURVE",
"37 206 LINE",
"32 79 OFFCURVE",
"140 -16 OFFCURVE",
"286 -16 CURVE SMOOTH"
);
}
);
width = 574;
}
);
leftMetricsKey = o;
note = three;
rightMetricsKey = o;
unicode = 0033;
},
{
glyphname = four;
lastChange = "2024-06-23 12:26:09 +0000";
layers = (
{
hints = (
{
horizontal = 1;
place = "{-1, 21}";
target = up;
type = BottomGhost;
},
{
horizontal = 1;
place = "{180, 87}";
type = Stem;
},
{
place = "{369, 111}";
type = Stem;
}
);
layerId = "BDC5E74B-1A26-4A4F-8F6D-86B4D4C65685";
paths = (
{
closed = 1;
nodes = (
"380 180 LINE",
"380 -1 LINE",
"491 -1 LINE",
"491 180 LINE",
"568 180 LINE",
"568 267 LINE",
"491 267 LINE",
"491 710 LINE",
"385 710 LINE",
"37 259 LINE",
"37 180 LINE"
);
},
{
closed = 1;
nodes = (
"380 544 LINE",
"380 267 LINE",
"168 267 LINE"
);
}
);
width = 593;
}
);
leftMetricsKey = o;
note = four;
rightMetricsKey = f;
unicode = 0034;
},
{
glyphname = five;
lastChange = "2024-06-23 12:26:06 +0000";
layers = (
{
hints = (
{
horizontal = 1;
place = "{-11, 91}";
type = Stem;
},
{
horizontal = 1;
place = "{385, 90}";
type = Stem;
},
{
horizontal = 1;
place = "{624, 86}";
type = Stem;
},
{
place = "{407, 112}";
type = Stem;
}
);
layerId = "BDC5E74B-1A26-4A4F-8F6D-86B4D4C65685";
paths = (
{
closed = 1;
nodes = (
"456 -11 OFFCURVE",
"562 93 OFFCURVE",
"562 233 CURVE SMOOTH",
"562 372 OFFCURVE",
"456 475 OFFCURVE",
"314 475 CURVE SMOOTH",
"269 475 OFFCURVE",
"225 465 OFFCURVE",
"189 445 CURVE",
"212 624 LINE",
"542 624 LINE",
"542 710 LINE",
"120 710 LINE",
"70 323 LINE",
"177 316 LINE",
"207 362 OFFCURVE",
"247 385 OFFCURVE",
"296 385 CURVE SMOOTH",
"392 385 OFFCURVE",
"450 327 OFFCURVE",
"450 233 CURVE SMOOTH",
"450 142 OFFCURVE",
"395 80 OFFCURVE",
"314 80 CURVE SMOOTH",
"251 80 OFFCURVE",
"202 116 OFFCURVE",
"181 181 CURVE",
"70 177 LINE",
"95 64 OFFCURVE",
"192 -11 OFFCURVE",
"314 -11 CURVE SMOOTH"
);
}
);
width = 599;
}
);
leftMetricsKey = n;
note = five;
rightMetricsKey = o;
unicode = 0035;
},
{
glyphname = six;
lastChange = "2024-06-23 12:25:47 +0000";
layers = (
{
hints = (
{
horizontal = 1;
place = "{-16, 91}";
type = Stem;
},
{
horizontal = 1;
place = "{380, 90}";
type = Stem;
},
{
horizontal = 1;
place = "{634, 91}";
type = Stem;
},
{
place = "{28, 109}";
type = Stem;
},
{
place = "{432, 113}";
type = Stem;
},
{
place = "{436, 112}";
type = Stem;
},
{
place = "{28, 126}";
type = Stem;
}
);
layerId = "BDC5E74B-1A26-4A4F-8F6D-86B4D4C65685";
paths = (
{
closed = 1;
nodes = (
"448 -16 OFFCURVE",
"554 88 OFFCURVE",
"554 227 CURVE SMOOTH",
"554 367 OFFCURVE",
"448 470 OFFCURVE",
"305 470 CURVE SMOOTH",
"243 470 OFFCURVE",
"189 450 OFFCURVE",
"146 413 CURVE",
"157 564 OFFCURVE",
"208 634 OFFCURVE",
"305 634 CURVE SMOOTH",
"389 634 OFFCURVE",
"440 587 OFFCURVE",
"445 503 CURVE",
"557 505 LINE",
"546 638 OFFCURVE",
"447 725 OFFCURVE",
"305 725 CURVE SMOOTH",
"130 725 OFFCURVE",
"37 595 OFFCURVE",
"37 355 CURVE SMOOTH",
"37 272 OFFCURVE",
"48 204 OFFCURVE",
"69 146 CURVE SMOOTH",
"80 114 OFFCURVE",
"98 84 OFFCURVE",
"125 56 CURVE SMOOTH",
"167 10 OFFCURVE",
"231 -16 OFFCURVE",
"305 -16 CURVE SMOOTH"
);
},
{
closed = 1;
nodes = (
"163 319 OFFCURVE",
"219 380 OFFCURVE",
"304 380 CURVE SMOOTH",
"389 380 OFFCURVE",
"441 322 OFFCURVE",
"441 227 CURVE SMOOTH",
"441 133 OFFCURVE",
"389 75 OFFCURVE",
"304 75 CURVE SMOOTH",
"219 75 OFFCURVE",
"163 135 OFFCURVE",
"163 227 CURVE SMOOTH"
);
}
);
width = 594;
}
);
leftMetricsKey = o;
note = six;
rightMetricsKey = o;
unicode = 0036;
},
{
glyphname = seven;
lastChange = "2024-06-23 12:26:32 +0000";
layers = (
{
hints = (
{
horizontal = 1;
place = "{-1, 21}";
target = up;
type = BottomGhost;
},
{
horizontal = 1;
place = "{624, 86}";
type = Stem;
},
{
place = "{104, 111}";
type = Stem;
}
);
layerId = "BDC5E74B-1A26-4A4F-8F6D-86B4D4C65685";
paths = (
{
closed = 1;
nodes = (
"209 -1 LINE",
"214 301 OFFCURVE",
"381 486 OFFCURVE",
"570 632 CURVE",
"570 710 LINE",
"17 710 LINE",
"17 624 LINE",
"425 624 LINE",
"226 466 OFFCURVE",
"94 217 OFFCURVE",
"98 -1 CURVE"
);
}
);
width = 587;
}
);
leftMetricsKey = x;
note = seven;
rightMetricsKey = x;
unicode = 0037;
},
{
glyphname = eight;
lastChange = "2024-06-23 12:25:58 +0000";
layers = (
{
hints = (
{
horizontal = 1;
place = "{-16, 91}";
type = Stem;
},
{
horizontal = 1;
place = "{358, 86}";
type = Stem;
},
{
horizontal = 1;
place = "{635, 91}";
type = Stem;
},
{
place = "{28, 114}";
type = Stem;
},
{
place = "{434, 113}";
type = Stem;
},
{
place = "{62, 114}";
type = Stem;
},
{
place = "{400, 113}";
type = Stem;
}
);
layerId = "BDC5E74B-1A26-4A4F-8F6D-86B4D4C65685";
paths = (
{
closed = 1;
nodes = (
"446 -16 OFFCURVE",
"556 78 OFFCURVE",
"556 206 CURVE SMOOTH",
"556 290 OFFCURVE",
"508 362 OFFCURVE",
"427 400 CURVE",
"488 433 OFFCURVE",
"522 485 OFFCURVE",
"522 546 CURVE SMOOTH",
"522 649 OFFCURVE",
"426 726 OFFCURVE",
"296 726 CURVE SMOOTH",
"167 726 OFFCURVE",
"71 649 OFFCURVE",
"71 546 CURVE SMOOTH",
"71 486 OFFCURVE",
"106 433 OFFCURVE",
"166 400 CURVE",
"85 362 OFFCURVE",
"37 291 OFFCURVE",
"37 206 CURVE SMOOTH",
"37 79 OFFCURVE",
"148 -16 OFFCURVE",
"296 -16 CURVE SMOOTH"
);
},
{
closed = 1;
nodes = (
"185 598 OFFCURVE",
"227 635 OFFCURVE",
"296 635 CURVE SMOOTH",
"366 635 OFFCURVE",
"409 599 OFFCURVE",
"409 539 CURVE SMOOTH",
"409 481 OFFCURVE",
"366 444 OFFCURVE",
"296 444 CURVE SMOOTH",
"228 444 OFFCURVE",
"185 481 OFFCURVE",
"185 539 CURVE SMOOTH"
);
},
{
closed = 1;
nodes = (
"151 302 OFFCURVE",
"207 358 OFFCURVE",
"296 358 CURVE SMOOTH",
"386 358 OFFCURVE",
"443 302 OFFCURVE",
"443 215 CURVE SMOOTH",
"443 130 OFFCURVE",
"385 75 OFFCURVE",
"296 75 CURVE SMOOTH",
"208 75 OFFCURVE",
"151 131 OFFCURVE",
"151 215 CURVE SMOOTH"
);
}
);
width = 593;
}
);
leftMetricsKey = o;
note = eight;
rightMetricsKey = o;
unicode = 0038;
},
{
glyphname = nine;
lastChange = "2024-06-23 12:26:02 +0000";
layers = (
{
hints = (
{
horizontal = 1;
place = "{7, 90}";
type = Stem;
},
{
horizontal = 1;
place = "{261, 90}";
type = Stem;
},
{
horizontal = 1;
place = "{657, 90}";
type = Stem;
},
{
place = "{30, 114}";
type = Stem;
},
{
place = "{439, 108}";
type = Stem;
},
{
place = "{27, 112}";
type = Stem;
},
{
place = "{421, 126}";
type = Stem;
}
);
layerId = "BDC5E74B-1A26-4A4F-8F6D-86B4D4C65685";
paths = (
{
closed = 1;
nodes = (
"146 747 OFFCURVE",
"40 644 OFFCURVE",
"40 504 CURVE SMOOTH",
"40 364 OFFCURVE",
"146 261 OFFCURVE",
"289 261 CURVE SMOOTH",
"351 261 OFFCURVE",
"406 281 OFFCURVE",
"449 319 CURVE",
"438 167 OFFCURVE",
"386 97 OFFCURVE",
"289 97 CURVE SMOOTH",
"206 97 OFFCURVE",
"155 145 OFFCURVE",
"149 228 CURVE",
"37 227 LINE",
"48 93 OFFCURVE",
"147 7 OFFCURVE",
"289 7 CURVE SMOOTH",
"464 7 OFFCURVE",
"557 136 OFFCURVE",
"557 376 CURVE SMOOTH",
"557 460 OFFCURVE",
"547 527 OFFCURVE",
"525 585 CURVE",
"515 617 OFFCURVE",
"496 648 OFFCURVE",
"470 675 CURVE SMOOTH",
"427 722 OFFCURVE",
"364 747 OFFCURVE",
"289 747 CURVE SMOOTH"
);
},
{
closed = 1;
nodes = (
"154 598 OFFCURVE",
"206 657 OFFCURVE",
"290 657 CURVE SMOOTH",
"375 657 OFFCURVE",
"431 596 OFFCURVE",
"431 504 CURVE SMOOTH",
"431 412 OFFCURVE",
"376 351 OFFCURVE",
"290 351 CURVE SMOOTH",
"205 351 OFFCURVE",
"154 410 OFFCURVE",
"154 504 CURVE SMOOTH"
);
}
);
width = 594;
}
);
leftMetricsKey = o;
note = nine;
rightMetricsKey = o;
unicode = 0039;
},
{
glyphname = fraction;
lastChange = "2024-06-23 12:26:19 +0000";
layers = (
{
hints = (
{
horizontal = 1;
place = "{-16, 21}";
target = up;
type = BottomGhost;
},
{
horizontal = 1;
place = "{726, -20}";
target = down;
type = TopGhost;
},
{
place = "{55, 544}";
type = Stem;
}
);
layerId = "BDC5E74B-1A26-4A4F-8F6D-86B4D4C65685";
paths = (
{
closed = 1;
nodes = (
"131 -16 LINE",
"561 726 LINE",
"447 726 LINE",
"17 -16 LINE"
);
}
);
width = 578;
}
);
leftMetricsKey = x;
note = fraction;
rightMetricsKey = x;
unicode = 2044;
},
{
glyphname = period;
lastChange = "2024-06-23 12:20:51 +0000";
layers = (
{
hints = (
{
horizontal = 1;
place = "{-15, 142}";
type = Stem;
},
{
place = "{59, 143}";
type = Stem;
}
);
layerId = "BDC5E74B-1A26-4A4F-8F6D-86B4D4C65685";
paths = (
{
closed = 1;
nodes = (
"37 15 OFFCURVE",
"68 -15 OFFCURVE",
"108 -15 CURVE SMOOTH",
"149 -15 OFFCURVE",
"180 15 OFFCURVE",
"180 55 CURVE SMOOTH",
"180 96 OFFCURVE",
"149 127 OFFCURVE",
"108 127 CURVE SMOOTH",
"68 127 OFFCURVE",
"37 96 OFFCURVE",
"37 55 CURVE SMOOTH"
);
}
);
width = 250;
}
);
leftMetricsKey = o;
note = period;
rightMetricsKey = n;
unicode = 002E;
},
{
glyphname = comma;
lastChange = "2024-06-23 12:24:46 +0000";
layers = (
{
hints = (
{
horizontal = 1;
place = "{-14, 21}";
target = up;
type = BottomGhost;
},
{
place = "{12, 135}";
type = Stem;
},
{
place = "{3, 144}";
type = Stem;
}
);
layerId = "BDC5E74B-1A26-4A4F-8F6D-86B4D4C65685";
paths = (
{
closed = 1;
nodes = (
"213 53 LINE",
"213 55 LINE SMOOTH",
"213 96 OFFCURVE",
"182 127 OFFCURVE",
"141 127 CURVE SMOOTH",
"101 127 OFFCURVE",
"70 96 OFFCURVE",
"70 55 CURVE SMOOTH",
"70 19 OFFCURVE",
"95 -9 OFFCURVE",
"129 -14 CURVE",
"122 -34 OFFCURVE",
"103 -50 OFFCURVE",
"79 -45 CURVE",
"79 -120 LINE",
"161 -128 OFFCURVE",
"214 -68 OFFCURVE",
"214 54 CURVE"
);
}
);
width = 284;
}
);
leftMetricsKey = n;
note = comma;
rightMetricsKey = n;
unicode = 002C;
},
{
glyphname = colon;
lastChange = "2024-06-23 12:24:38 +0000";
layers = (
{
hints = (
{
horizontal = 1;
place = "{-18, 129}";
type = Stem;
},
{
horizontal = 1;
place = "{264, 129}";
type = Stem;
},
{
place = "{58, 130}";
type = Stem;
}
);
layerId = "BDC5E74B-1A26-4A4F-8F6D-86B4D4C65685";
paths = (
{
closed = 1;
nodes = (
"70 291 OFFCURVE",
"99 264 OFFCURVE",
"135 264 CURVE SMOOTH",
"172 264 OFFCURVE",
"200 291 OFFCURVE",
"200 328 CURVE SMOOTH",
"200 365 OFFCURVE",
"172 393 OFFCURVE",
"135 393 CURVE SMOOTH",
"99 393 OFFCURVE",
"70 365 OFFCURVE",
"70 328 CURVE SMOOTH"
);
},
{
closed = 1;
nodes = (
"70 9 OFFCURVE",
"99 -18 OFFCURVE",
"135 -18 CURVE SMOOTH",
"172 -18 OFFCURVE",
"200 9 OFFCURVE",
"200 46 CURVE SMOOTH",
"200 83 OFFCURVE",
"172 111 OFFCURVE",
"135 111 CURVE SMOOTH",
"99 111 OFFCURVE",
"70 83 OFFCURVE",
"70 46 CURVE SMOOTH"
);
}
);
width = 270;
}
);
leftMetricsKey = n;
note = colon;
rightMetricsKey = n;
unicode = 003A;
},
{
glyphname = semicolon;
lastChange = "2024-06-23 12:24:43 +0000";
layers = (
{
hints = (
{
horizontal = 1;
place = "{-14, 21}";
target = up;
type = BottomGhost;
},
{
horizontal = 1;
place = "{194, 129}";
type = Stem;
},
{
place = "{62, 130}";
type = Stem;
},
{
place = "{64, 135}";
type = Stem;
},
{
place = "{55, 144}";
type = Stem;
}
);
layerId = "BDC5E74B-1A26-4A4F-8F6D-86B4D4C65685";
paths = (
{
closed = 1;
nodes = (
"179 194 OFFCURVE",
"207 221 OFFCURVE",
"207 258 CURVE SMOOTH",
"207 295 OFFCURVE",
"179 323 OFFCURVE",
"142 323 CURVE SMOOTH",
"106 323 OFFCURVE",
"77 295 OFFCURVE",
"77 258 CURVE SMOOTH",
"77 221 OFFCURVE",
"106 194 OFFCURVE",
"142 194 CURVE SMOOTH"
);
},
{
closed = 1;
nodes = (
"213 53 LINE",
"213 55 LINE SMOOTH",
"213 96 OFFCURVE",
"182 127 OFFCURVE",
"141 127 CURVE SMOOTH",
"101 127 OFFCURVE",
"70 96 OFFCURVE",
"70 55 CURVE SMOOTH",
"70 19 OFFCURVE",
"95 -9 OFFCURVE",
"129 -14 CURVE",
"122 -34 OFFCURVE",
"103 -50 OFFCURVE",
"79 -45 CURVE",
"79 -120 LINE",
"161 -128 OFFCURVE",
"214 -68 OFFCURVE",
"214 54 CURVE"
);
}
);
width = 284;
}
);
leftMetricsKey = n;
note = semicolon;
rightMetricsKey = n;
unicode = 003B;
},
{
glyphname = ellipsis;
lastChange = "2024-06-23 12:24:49 +0000";
layers = (
{
hints = (
{
horizontal = 1;
place = "{-15, 142}";
type = Stem;
},
{
place = "{59, 143}";
type = Stem;
}
);
layerId = "BDC5E74B-1A26-4A4F-8F6D-86B4D4C65685";
paths = (
{
closed = 1;
nodes = (
"101 127 OFFCURVE",
"70 96 OFFCURVE",
"70 55 CURVE SMOOTH",
"70 15 OFFCURVE",
"101 -15 OFFCURVE",
"141 -15 CURVE SMOOTH",
"182 -15 OFFCURVE",
"213 15 OFFCURVE",
"213 55 CURVE SMOOTH",
"213 96 OFFCURVE",
"182 127 OFFCURVE",
"141 127 CURVE SMOOTH"
);
}
);
width = 283;
}
);
leftMetricsKey = n;
note = ellipsis;
rightMetricsKey = n;
unicode = 2026;
},
{
glyphname = exclam;
lastChange = "2024-06-23 12:21:10 +0000";
layers = (
{
hints = (
{
horizontal = 1;
place = "{-11, 129}";
type = Stem;
},
{
place = "{67, 112}";
type = Stem;
},
{
place = "{58, 130}";
type = Stem;
}
);
layerId = "BDC5E74B-1A26-4A4F-8F6D-86B4D4C65685";
paths = (
{
closed = 1;
nodes = (
"191 192 LINE",
"191 711 LINE",
"79 711 LINE",
"79 192 LINE"
);
},
{
closed = 1;
nodes = (
"70 16 OFFCURVE",
"99 -11 OFFCURVE",
"135 -11 CURVE SMOOTH",
"172 -11 OFFCURVE",
"200 16 OFFCURVE",
"200 53 CURVE SMOOTH",
"200 90 OFFCURVE",
"172 118 OFFCURVE",
"135 118 CURVE SMOOTH",
"99 118 OFFCURVE",
"70 90 OFFCURVE",
"70 53 CURVE SMOOTH"
);
}
);
width = 270;
}
);
leftMetricsKey = n;
note = exclam;
rightMetricsKey = n;
unicode = 0021;
},
{
glyphname = exclamdown;
lastChange = "2024-06-23 12:21:04 +0000";
layers = (
{
hints = (
{
horizontal = 1;
place = "{416, 129}";
type = Stem;
},
{
place = "{63, 130}";
type = Stem;
},
{
place = "{72, 111}";
type = Stem;
}
);
layerId = "BDC5E74B-1A26-4A4F-8F6D-86B4D4C65685";
paths = (
{
closed = 1;
nodes = (
"200 518 OFFCURVE",
"171 545 OFFCURVE",
"135 545 CURVE SMOOTH",
"98 545 OFFCURVE",
"70 518 OFFCURVE",
"70 481 CURVE SMOOTH",
"70 444 OFFCURVE",
"98 416 OFFCURVE",
"135 416 CURVE SMOOTH",
"171 416 OFFCURVE",
"200 444 OFFCURVE",
"200 481 CURVE SMOOTH"
);
},
{
closed = 1;
nodes = (
"79 357 LINE",
"79 -162 LINE",
"190 -162 LINE",
"190 357 LINE"
);
}
);
width = 270;
}
);
leftMetricsKey = n;
note = exclamdown;
rightMetricsKey = n;
unicode = 00A1;
},
{
glyphname = question;
lastChange = "2024-06-23 12:20:59 +0000";
layers = (
{
hints = (
{
horizontal = 1;
place = "{-13, 129}";
type = Stem;
},
{
horizontal = 1;
place = "{632, 91}";
type = Stem;
},
{
place = "{60, 108}";
type = Stem;
},
{
place = "{217, 111}";
type = Stem;
},
{
place = "{402, 113}";
type = Stem;
},
{
place = "{209, 130}";
type = Stem;
}
);
layerId = "BDC5E74B-1A26-4A4F-8F6D-86B4D4C65685";
paths = (
{
closed = 1;
nodes = (
"305 187 LINE",
"303 260 OFFCURVE",
"321 299 OFFCURVE",
"374 335 CURVE SMOOTH",
"448 385 OFFCURVE",
"492 454 OFFCURVE",
"492 524 CURVE SMOOTH",
"492 643 OFFCURVE",
"404 723 OFFCURVE",
"271 723 CURVE SMOOTH",
"129 723 OFFCURVE",
"33 626 OFFCURVE",
"37 482 CURVE",
"145 482 LINE",
"141 577 OFFCURVE",
"188 632 OFFCURVE",
"271 632 CURVE SMOOTH",
"336 632 OFFCURVE",
"379 594 OFFCURVE",
"379 535 CURVE SMOOTH",
"379 471 OFFCURVE",
"358 432 OFFCURVE",
"302 393 CURVE SMOOTH",
"228 341 OFFCURVE",
"191 271 OFFCURVE",
"194 187 CURVE"
);
},
{
closed = 1;
nodes = (
"186 14 OFFCURVE",
"215 -13 OFFCURVE",
"251 -13 CURVE SMOOTH",
"288 -13 OFFCURVE",
"316 14 OFFCURVE",
"316 51 CURVE SMOOTH",
"316 88 OFFCURVE",
"288 116 OFFCURVE",
"251 116 CURVE SMOOTH",
"215 116 OFFCURVE",
"186 88 OFFCURVE",
"186 51 CURVE SMOOTH"
);
}
);
width = 562;
}
);
leftMetricsKey = o;
note = question;
rightMetricsKey = n;
unicode = 003F;
},
{
glyphname = questiondown;
lastChange = "2024-06-23 12:21:17 +0000";
layers = (
{
hints = (
{
horizontal = 1;
place = "{-178, 90}";
type = Stem;
},
{
horizontal = 1;
place = "{413, 129}";
type = Stem;
},
{
place = "{60, 114}";
type = Stem;
},
{
place = "{240, 130}";
type = Stem;
},
{
place = "{407, 108}";
type = Stem;
},
{
place = "{247, 112}";
type = Stem;
}
);
layerId = "BDC5E74B-1A26-4A4F-8F6D-86B4D4C65685";
paths = (
{
closed = 1;
nodes = (
"347 515 OFFCURVE",
"318 542 OFFCURVE",
"282 542 CURVE SMOOTH",
"245 542 OFFCURVE",
"217 515 OFFCURVE",
"217 478 CURVE SMOOTH",
"217 441 OFFCURVE",
"245 413 OFFCURVE",
"282 413 CURVE SMOOTH",
"318 413 OFFCURVE",
"347 441 OFFCURVE",
"347 478 CURVE SMOOTH"
);
},
{
closed = 1;
nodes = (
"224 358 LINE",
"226 284 OFFCURVE",
"208 245 OFFCURVE",
"155 209 CURVE SMOOTH",
"81 160 OFFCURVE",
"37 90 OFFCURVE",
"37 20 CURVE SMOOTH",
"37 -99 OFFCURVE",
"126 -178 OFFCURVE",
"258 -178 CURVE SMOOTH",
"400 -178 OFFCURVE",
"496 -81 OFFCURVE",
"492 62 CURVE",
"384 62 LINE",
"388 -33 OFFCURVE",
"341 -88 OFFCURVE",
"258 -88 CURVE SMOOTH",
"193 -88 OFFCURVE",
"151 -50 OFFCURVE",
"151 9 CURVE SMOOTH",
"151 73 OFFCURVE",
"172 112 OFFCURVE",
"227 151 CURVE SMOOTH",
"301 203 OFFCURVE",
"339 274 OFFCURVE",
"336 358 CURVE"
);
}
);
width = 529;
}
);
leftMetricsKey = o;
note = questiondown;
rightMetricsKey = o;
unicode = 00BF;
},
{
glyphname = periodcentered;
lastChange = "2024-06-23 12:21:24 +0000";
layers = (
{
hints = (
{
horizontal = 1;
place = "{233, 129}";
type = Stem;
},
{
place = "{60, 130}";
type = Stem;
}
);
layerId = "BDC5E74B-1A26-4A4F-8F6D-86B4D4C65685";
paths = (
{
closed = 1;
nodes = (
"70 260 OFFCURVE",
"99 233 OFFCURVE",
"135 233 CURVE SMOOTH",
"172 233 OFFCURVE",
"200 260 OFFCURVE",
"200 297 CURVE SMOOTH",
"200 334 OFFCURVE",
"172 362 OFFCURVE",
"135 362 CURVE SMOOTH",
"99 362 OFFCURVE",
"70 334 OFFCURVE",
"70 297 CURVE SMOOTH"
);
}
);
width = 270;
}
);
leftMetricsKey = n;
note = periodcentered;
rightMetricsKey = n;
unicode = 00B7;
},
{
glyphname = bullet;
lastChange = "2024-06-23 12:24:05 +0000";
layers = (
{
hints = (
{
horizontal = 1;
place = "{187, 203}";
type = Stem;
},
{
place = "{50, 205}";
type = Stem;
}
);
layerId = "BDC5E74B-1A26-4A4F-8F6D-86B4D4C65685";
paths = (
{
closed = 1;
nodes = (
"70 229 OFFCURVE",
"116 187 OFFCURVE",
"173 187 CURVE SMOOTH",
"231 187 OFFCURVE",
"275 229 OFFCURVE",
"275 288 CURVE SMOOTH",
"275 346 OFFCURVE",
"231 390 OFFCURVE",
"173 390 CURVE SMOOTH",
"116 390 OFFCURVE",
"70 346 OFFCURVE",
"70 288 CURVE SMOOTH"
);
}
);
width = 345;
}
);
leftMetricsKey = n;
note = bullet;
rightMetricsKey = n;
unicode = 2022;
},
{
glyphname = asterisk;
lastChange = "2024-06-23 12:24:15 +0000";
layers = (
{
hints = (
{
horizontal = 1;
place = "{387, 313}";
type = Stem;
},
{
place = "{174, 87}";
type = Stem;
}
);
layerId = "BDC5E74B-1A26-4A4F-8F6D-86B4D4C65685";
paths = (
{
closed = 1;
nodes = (
"186 700 LINE",
"186 615 LINE",
"110 658 LINE",
"70 590 LINE",
"151 544 LINE",
"70 498 LINE",
"110 430 LINE",
"186 474 LINE",
"186 387 LINE",
"273 387 LINE",
"273 474 LINE",
"349 430 LINE",
"388 498 LINE",
"308 544 LINE",
"388 590 LINE",
"349 658 LINE",
"273 615 LINE",
"273 700 LINE"
);
}
);
width = 458;
}
);
leftMetricsKey = n;
note = asterisk;
rightMetricsKey = n;
unicode = 002A;
},
{
glyphname = numbersign;
lastChange = "2024-06-23 12:24:11 +0000";
layers = (
{
hints = (
{
horizontal = 1;
place = "{-1, 213}";
type = Stem;
},
{
horizontal = 1;
place = "{305, 82}";
type = Stem;
},
{
place = "{47, 469}";
type = Stem;
},
{
horizontal = 1;
place = "{305, 214}";
type = Stem;
},
{
horizontal = 1;
place = "{130, 82}";
type = Stem;
}
);
layerId = "BDC5E74B-1A26-4A4F-8F6D-86B4D4C65685";
paths = (
{
closed = 1;
nodes = (
"180 387 LINE",
"100 387 LINE",
"101 305 LINE",
"166 305 LINE",
"150 212 LINE",
"70 212 LINE",
"70 130 LINE",
"136 130 LINE",
"113 -1 LINE",
"214 -1 LINE",
"237 130 LINE",
"328 130 LINE",
"305 -1 LINE",
"406 -1 LINE",
"429 130 LINE",
"509 130 LINE",
"508 212 LINE",
"443 212 LINE",
"459 305 LINE",
"539 305 LINE",
"538 387 LINE",
"473 387 LINE",
"497 519 LINE",
"396 519 LINE",
"372 387 LINE",
"281 387 LINE",
"305 519 LINE",
"204 519 LINE"
);
},
{
closed = 1;
nodes = (
"267 305 LINE",
"358 305 LINE",
"342 212 LINE",
"251 212 LINE"
);
}
);
width = 609;
}
);
leftMetricsKey = n;
note = numbersign;
rightMetricsKey = n;
unicode = 0023;
},
{
glyphname = slash;
lastChange = "2024-06-23 12:21:36 +0000";
layers = (
{
hints = (
{
horizontal = 1;
place = "{-16, 21}";
target = up;
type = BottomGhost;
},
{
horizontal = 1;
place = "{726, -20}";
target = down;
type = TopGhost;
},
{
place = "{59, 235}";
type = Stem;
}
);
layerId = "BDC5E74B-1A26-4A4F-8F6D-86B4D4C65685";
paths = (
{
closed = 1;
nodes = (
"70 -16 LINE",
"173 -16 LINE",
"305 726 LINE",
"201 726 LINE"
);
}
);
width = 375;
}
);
leftMetricsKey = n;
note = slash;
rightMetricsKey = n;
unicode = 002F;
},
{
glyphname = backslash;
lastChange = "2024-06-23 12:21:40 +0000";
layers = (
{
hints = (
{
horizontal = 1;
place = "{-16, 21}";
target = up;
type = BottomGhost;
},
{
horizontal = 1;
place = "{726, -20}";
target = down;
type = TopGhost;
},
{
place = "{58, 235}";
type = Stem;
}
);
layerId = "BDC5E74B-1A26-4A4F-8F6D-86B4D4C65685";
paths = (
{
closed = 1;
nodes = (
"70 726 LINE",
"202 -16 LINE",
"305 -16 LINE",
"174 726 LINE"
);
}
);
width = 375;
}
);
leftMetricsKey = n;
note = backslash;
rightMetricsKey = n;
unicode = 005C;
},
{
glyphname = parenleft;
lastChange = "2024-06-23 12:21:59 +0000";
layers = (
{
hints = (
{
horizontal = 1;
place = "{-35, 779}";
type = Stem;
},
{
place = "{89, 111}";
type = Stem;
}
);
layerId = "BDC5E74B-1A26-4A4F-8F6D-86B4D4C65685";
paths = (
{
closed = 1;
nodes = (
"292 27 LINE",
"193 81 OFFCURVE",
"148 193 OFFCURVE",
"148 353 CURVE SMOOTH",
"148 516 OFFCURVE",
"193 628 OFFCURVE",
"292 682 CURVE",
"244 744 LINE",
"115 688 OFFCURVE",
"37 543 OFFCURVE",
"37 354 CURVE SMOOTH",
"37 166 OFFCURVE",
"115 21 OFFCURVE",
"244 -35 CURVE"
);
}
);
width = 309;
}
);
leftMetricsKey = o;
note = parenleft;
rightMetricsKey = x;
unicode = 0028;
},
{
glyphname = parenright;
lastChange = "2024-06-23 12:22:02 +0000";
layers = (
{
hints = (
{
horizontal = 1;
place = "{-35, 779}";
type = Stem;
},
{
place = "{185, 111}";
type = Stem;
}
);
layerId = "BDC5E74B-1A26-4A4F-8F6D-86B4D4C65685";
paths = (
{
closed = 1;
nodes = (
"65 -35 LINE",
"194 21 OFFCURVE",
"272 166 OFFCURVE",
"272 354 CURVE SMOOTH",
"272 543 OFFCURVE",
"194 688 OFFCURVE",
"65 744 CURVE",
"17 682 LINE",
"116 628 OFFCURVE",
"161 516 OFFCURVE",
"161 353 CURVE SMOOTH",
"161 193 OFFCURVE",
"116 81 OFFCURVE",
"17 27 CURVE"
);
}
);
width = 309;
}
);
leftMetricsKey = x;
note = parenright;
rightMetricsKey = o;
unicode = 0029;
},
{
glyphname = braceleft;
lastChange = "2024-06-23 12:22:06 +0000";
layers = (
{
hints = (
{
horizontal = 1;
place = "{-57, 82}";
type = Stem;
},
{
horizontal = 1;
place = "{314, 81}";
type = Stem;
},
{
place = "{156, 108}";
type = Stem;
},
{
place = "{347, 13}";
type = Stem;
}
);
layerId = "BDC5E74B-1A26-4A4F-8F6D-86B4D4C65685";
paths = (
{
closed = 1;
nodes = (
"133 455 LINE SMOOTH",
"133 380 OFFCURVE",
"77 399 OFFCURVE",
"37 395 CURVE",
"37 314 LINE",
"77 310 OFFCURVE",
"133 329 OFFCURVE",
"133 254 CURVE SMOOTH",
"133 72 LINE SMOOTH",
"133 -2 OFFCURVE",
"181 -51 OFFCURVE",
"258 -57 CURVE SMOOTH",
"292 -60 OFFCURVE",
"324 -57 OFFCURVE",
"324 -57 CURVE",
"337 -49 LINE",
"337 25 LINE",
"297 28 OFFCURVE",
"242 9 OFFCURVE",
"241 84 CURVE",
"241 267 LINE SMOOTH",
"241 307 OFFCURVE",
"226 336 OFFCURVE",
"195 355 CURVE",
"226 373 OFFCURVE",
"241 402 OFFCURVE",
"241 442 CURVE SMOOTH",
"241 626 LINE SMOOTH",
"241 701 OFFCURVE",
"297 682 OFFCURVE",
"337 685 CURVE",
"337 759 LINE",
"324 767 LINE",
"324 767 OFFCURVE",
"292 770 OFFCURVE",
"258 767 CURVE SMOOTH",
"181 761 OFFCURVE",
"133 712 OFFCURVE",
"133 638 CURVE SMOOTH"
);
}
);
width = 354;
}
);
leftMetricsKey = o;
note = braceleft;
rightMetricsKey = x;
unicode = 007B;
},
{
glyphname = braceright;
lastChange = "2024-06-23 12:22:11 +0000";
layers = (
{
hints = (
{
horizontal = 1;
place = "{314, 81}";
type = Stem;
},
{
horizontal = 1;
place = "{685, 82}";
type = Stem;
},
{
place = "{156, 108}";
type = Stem;
}
);
layerId = "BDC5E74B-1A26-4A4F-8F6D-86B4D4C65685";
paths = (
{
closed = 1;
nodes = (
"221 638 LINE SMOOTH",
"221 712 OFFCURVE",
"173 761 OFFCURVE",
"96 767 CURVE SMOOTH",
"62 770 OFFCURVE",
"30 767 OFFCURVE",
"30 767 CURVE",
"17 759 LINE",
"17 685 LINE",
"57 682 OFFCURVE",
"113 701 OFFCURVE",
"113 626 CURVE SMOOTH",
"113 442 LINE SMOOTH",
"113 402 OFFCURVE",
"128 373 OFFCURVE",
"159 355 CURVE",
"128 336 OFFCURVE",
"113 307 OFFCURVE",
"113 267 CURVE SMOOTH",
"113 84 LINE SMOOTH",
"112 9 OFFCURVE",
"57 28 OFFCURVE",
"17 25 CURVE",
"17 -49 LINE",
"30 -57 LINE",
"30 -57 OFFCURVE",
"62 -60 OFFCURVE",
"96 -57 CURVE SMOOTH",
"173 -51 OFFCURVE",
"221 -2 OFFCURVE",
"221 72 CURVE SMOOTH",
"221 254 LINE SMOOTH",
"221 329 OFFCURVE",
"277 310 OFFCURVE",
"317 314 CURVE",
"317 395 LINE",
"277 399 OFFCURVE",
"221 380 OFFCURVE",
"221 455 CURVE SMOOTH"
);
}
);
width = 354;
}
);
leftMetricsKey = x;
note = braceright;
rightMetricsKey = o;
unicode = 007D;
},
{
glyphname = bracketleft;
lastChange = "2024-06-23 12:22:15 +0000";
layers = (
{
hints = (
{
horizontal = 1;
place = "{0, 86}";
type = Stem;
},
{
horizontal = 1;
place = "{625, 86}";
type = Stem;
},
{
place = "{60, 112}";
type = Stem;
}
);
layerId = "BDC5E74B-1A26-4A4F-8F6D-86B4D4C65685";
paths = (
{
closed = 1;
nodes = (
"279 0 LINE",
"279 87 LINE",
"182 85 LINE",
"182 625 LINE",
"269 624 LINE",
"269 710 LINE",
"70 710 LINE",
"70 0 LINE"
);
}
);
width = 296;
}
);
leftMetricsKey = n;
note = bracketleft;
rightMetricsKey = x;
unicode = 005B;
},
{
glyphname = bracketright;
lastChange = "2024-06-23 12:22:18 +0000";
layers = (
{
hints = (
{
horizontal = 1;
place = "{0, 86}";
type = Stem;
},
{
horizontal = 1;
place = "{625, 86}";
type = Stem;
},
{
place = "{157, 112}";
type = Stem;
}
);
layerId = "BDC5E74B-1A26-4A4F-8F6D-86B4D4C65685";
paths = (
{
closed = 1;
nodes = (
"226 710 LINE",
"27 710 LINE",
"27 624 LINE",
"114 625 LINE",
"114 85 LINE",
"17 87 LINE",
"17 0 LINE",
"226 0 LINE"
);
}
);
width = 296;
}
);
leftMetricsKey = x;
note = bracketright;
rightMetricsKey = n;
unicode = 005D;
},
{
glyphname = hyphen;
lastChange = "2024-06-23 12:22:22 +0000";
layers = (
{
hints = (
{
horizontal = 1;
place = "{213, 87}";
type = Stem;
},
{
place = "{60, 301}";
type = Stem;
}
);
layerId = "BDC5E74B-1A26-4A4F-8F6D-86B4D4C65685";
paths = (
{
closed = 1;
nodes = (
"371 213 LINE",
"371 300 LINE",
"70 300 LINE",
"70 213 LINE"
);
}
);
width = 441;
}
);
leftMetricsKey = n;
note = hyphen;
rightMetricsKey = n;
unicode = 002D;
},
{
glyphname = endash;
lastChange = "2024-06-23 12:22:25 +0000";
layers = (
{
hints = (
{
horizontal = 1;
place = "{213, 87}";
type = Stem;
},
{
place = "{60, 438}";
type = Stem;
}
);
layerId = "BDC5E74B-1A26-4A4F-8F6D-86B4D4C65685";
paths = (
{
closed = 1;
nodes = (
"508 213 LINE",
"508 300 LINE",
"70 300 LINE",
"70 213 LINE"
);
}
);
width = 578;
}
);
leftMetricsKey = n;
note = endash;
rightMetricsKey = n;
unicode = 2013;
},
{
glyphname = emdash;
lastChange = "2024-06-23 12:22:30 +0000";
layers = (
{
hints = (
{
horizontal = 1;
place = "{210, 87}";
type = Stem;
},
{
place = "{60, 706}";
type = Stem;
}
);
layerId = "BDC5E74B-1A26-4A4F-8F6D-86B4D4C65685";
paths = (
{
closed = 1;
nodes = (
"766 210 LINE",
"766 297 LINE",
"60 297 LINE",
"60 210 LINE"
);
}
);
width = 836;
}
);
leftMetricsKey = n60;
note = emdash;
rightMetricsKey = n;
unicode = 2014;
},
{
glyphname = underscore;
lastChange = "2024-06-23 12:22:34 +0000";
layers = (
{
hints = (
{
horizontal = 1;
place = "{-120, 86}";
type = Stem;
},
{
place = "{60, 438}";
type = Stem;
}
);
layerId = "BDC5E74B-1A26-4A4F-8F6D-86B4D4C65685";
paths = (
{
closed = 1;
nodes = (
"508 -120 LINE",
"508 -34 LINE",
"70 -34 LINE",
"70 -120 LINE"
);
}
);
width = 578;
}
);
leftMetricsKey = n;
note = underscore;
rightMetricsKey = n;
unicode = 005F;
},
{
glyphname = quotesinglbase;
lastChange = "2024-06-23 12:22:42 +0000";
layers = (
{
hints = (
{
horizontal = 1;
place = "{-14, 21}";
target = up;
type = BottomGhost;
},
{
place = "{12, 135}";
type = Stem;
},
{
place = "{3, 144}";
type = Stem;
}
);
layerId = "BDC5E74B-1A26-4A4F-8F6D-86B4D4C65685";
paths = (
{
closed = 1;
nodes = (
"180 53 LINE",
"180 55 LINE SMOOTH",
"180 96 OFFCURVE",
"149 127 OFFCURVE",
"108 127 CURVE SMOOTH",
"68 127 OFFCURVE",
"37 96 OFFCURVE",
"37 55 CURVE SMOOTH",
"37 19 OFFCURVE",
"62 -9 OFFCURVE",
"96 -14 CURVE",
"89 -34 OFFCURVE",
"70 -50 OFFCURVE",
"46 -45 CURVE",
"46 -120 LINE",
"128 -128 OFFCURVE",
"181 -68 OFFCURVE",
"181 54 CURVE"
);
}
);
width = 251;
}
);
leftMetricsKey = o;
note = quotesinglbase;
rightMetricsKey = n;
unicode = 201A;
},
{
glyphname = quotedblbase;
lastChange = "2024-06-23 12:22:50 +0000";
layers = (
{
hints = (
{
horizontal = 1;
place = "{-14, 21}";
target = up;
type = BottomGhost;
},
{
place = "{12, 135}";
type = Stem;
},
{
place = "{3, 144}";
type = Stem;
}
);
layerId = "BDC5E74B-1A26-4A4F-8F6D-86B4D4C65685";
paths = (
{
closed = 1;
nodes = (
"180 53 LINE",
"180 55 LINE SMOOTH",
"180 96 OFFCURVE",
"149 127 OFFCURVE",
"108 127 CURVE SMOOTH",
"68 127 OFFCURVE",
"37 96 OFFCURVE",
"37 55 CURVE SMOOTH",
"37 19 OFFCURVE",
"62 -9 OFFCURVE",
"96 -14 CURVE",
"89 -34 OFFCURVE",
"70 -50 OFFCURVE",
"46 -45 CURVE",
"46 -120 LINE",
"128 -128 OFFCURVE",
"181 -68 OFFCURVE",
"181 54 CURVE"
);
},
{
closed = 1;
nodes = (
"390 53 LINE",
"390 55 LINE SMOOTH",
"390 96 OFFCURVE",
"359 127 OFFCURVE",
"318 127 CURVE SMOOTH",
"278 127 OFFCURVE",
"247 96 OFFCURVE",
"247 55 CURVE SMOOTH",
"247 19 OFFCURVE",
"272 -9 OFFCURVE",
"306 -14 CURVE",
"299 -34 OFFCURVE",
"280 -50 OFFCURVE",
"256 -45 CURVE",
"256 -120 LINE",
"338 -128 OFFCURVE",
"391 -68 OFFCURVE",
"391 54 CURVE"
);
}
);
width = 461;
}
);
leftMetricsKey = o;
note = quotedblbase;
rightMetricsKey = n;
unicode = 201E;
},
{
glyphname = quotedblleft;
lastChange = "2024-06-23 12:23:35 +0000";
layers = (
{
hints = (
{
horizontal = 1;
place = "{489, 250}";
type = Stem;
},
{
place = "{17, 120}";
type = Stem;
}
);
layerId = "BDC5E74B-1A26-4A4F-8F6D-86B4D4C65685";
paths = (
{
closed = 1;
nodes = (
"157 672 LINE",
"147 729 LINE",
"37 729 LINE",
"47 669 LINE",
"113 479 LINE",
"149 479 LINE"
);
},
{
closed = 1;
nodes = (
"332 672 LINE",
"322 729 LINE",
"212 729 LINE",
"222 669 LINE",
"288 479 LINE",
"324 479 LINE"
);
}
);
width = 402;
}
);
leftMetricsKey = o;
note = quotedblleft;
rightMetricsKey = n;
unicode = 201C;
},
{
glyphname = quotedblright;
lastChange = "2024-06-23 12:23:38 +0000";
layers = (
{
hints = (
{
horizontal = 1;
place = "{722, -20}";
target = down;
type = TopGhost;
},
{
place = "{39, 120}";
type = Stem;
}
);
layerId = "BDC5E74B-1A26-4A4F-8F6D-86B4D4C65685";
paths = (
{
closed = 1;
nodes = (
"289 481 LINE",
"355 671 LINE",
"365 731 LINE",
"255 731 LINE",
"245 674 LINE",
"253 481 LINE"
);
},
{
closed = 1;
nodes = (
"114 481 LINE",
"180 671 LINE",
"190 731 LINE",
"80 731 LINE",
"70 674 LINE",
"78 481 LINE"
);
}
);
width = 402;
}
);
leftMetricsKey = n;
note = quotedblright;
rightMetricsKey = o;
unicode = 201D;
},
{
glyphname = quoteleft;
lastChange = "2024-06-23 12:23:41 +0000";
layers = (
{
hints = (
{
horizontal = 1;
place = "{489, 250}";
type = Stem;
},
{
place = "{17, 120}";
type = Stem;
}
);
layerId = "BDC5E74B-1A26-4A4F-8F6D-86B4D4C65685";
paths = (
{
closed = 1;
nodes = (
"17 731 LINE",
"27 671 LINE",
"93 481 LINE",
"129 481 LINE",
"137 674 LINE",
"127 731 LINE"
);
}
);
width = 176;
}
);
note = quoteleft;
unicode = 2018;
},
{
glyphname = quoteright;
lastChange = "2024-06-23 12:23:43 +0000";
layers = (
{
hints = (
{
horizontal = 1;
place = "{722, -20}";
target = down;
type = TopGhost;
},
{
place = "{39, 120}";
type = Stem;
}
);
layerId = "BDC5E74B-1A26-4A4F-8F6D-86B4D4C65685";
paths = (
{
closed = 1;
nodes = (
"39 673 LINE",
"47 480 LINE",
"83 480 LINE",
"149 670 LINE",
"159 730 LINE",
"49 730 LINE"
);
}
);
width = 176;
}
);
note = quoteright;
unicode = 2019;
},
{
glyphname = guillemetleft;
lastChange = "2024-06-23 12:22:57 +0000";
layers = (
{
hints = (
{
horizontal = 1;
place = "{-13, 21}";
target = up;
type = BottomGhost;
},
{
horizontal = 1;
place = "{530, -20}";
target = down;
type = TopGhost;
},
{
place = "{12, 360}";
type = Stem;
}
);
layerId = "BDC5E74B-1A26-4A4F-8F6D-86B4D4C65685";
paths = (
{
closed = 1;
nodes = (
"37 307 LINE",
"37 210 LINE",
"397 -13 LINE",
"397 100 LINE",
"143 259 LINE",
"397 417 LINE",
"397 530 LINE"
);
}
);
width = 414;
}
);
leftMetricsKey = o;
note = guillemotleft;
rightMetricsKey = x;
unicode = 00AB;
},
{
glyphname = guillemetright;
lastChange = "2024-06-23 12:23:02 +0000";
layers = (
{
hints = (
{
horizontal = 1;
place = "{-13, 21}";
target = up;
type = BottomGhost;
},
{
horizontal = 1;
place = "{530, -20}";
target = down;
type = TopGhost;
},
{
place = "{62, 360}";
type = Stem;
}
);
layerId = "BDC5E74B-1A26-4A4F-8F6D-86B4D4C65685";
paths = (
{
closed = 1;
nodes = (
"17 417 LINE",
"271 259 LINE",
"17 100 LINE",
"17 -13 LINE",
"377 210 LINE",
"377 307 LINE",
"17 530 LINE"
);
}
);
width = 414;
}
);
leftMetricsKey = x;
note = guillemotright;
rightMetricsKey = o;
unicode = 00BB;
},
{
glyphname = guilsinglleft;
lastChange = "2024-06-23 12:23:06 +0000";
layers = (
{
hints = (
{
horizontal = 1;
place = "{-13, 21}";
target = up;
type = BottomGhost;
},
{
horizontal = 1;
place = "{530, -20}";
target = down;
type = TopGhost;
},
{
place = "{12, 360}";
type = Stem;
}
);
layerId = "BDC5E74B-1A26-4A4F-8F6D-86B4D4C65685";
paths = (
{
closed = 1;
nodes = (
"37 210 LINE",
"397 -13 LINE",
"397 100 LINE",
"143 259 LINE",
"397 417 LINE",
"397 530 LINE",
"37 307 LINE"
);
}
);
width = 414;
}
);
leftMetricsKey = o;
note = guilsinglleft;
rightMetricsKey = x;
unicode = 2039;
},
{
glyphname = guilsinglright;
lastChange = "2024-06-23 12:23:09 +0000";
layers = (
{
hints = (
{
horizontal = 1;
place = "{-13, 21}";
target = up;
type = BottomGhost;
},
{
horizontal = 1;
place = "{530, -20}";
target = down;
type = TopGhost;
},
{
place = "{62, 360}";
type = Stem;
}
);
layerId = "BDC5E74B-1A26-4A4F-8F6D-86B4D4C65685";
paths = (
{
closed = 1;
nodes = (
"17 417 LINE",
"271 259 LINE",
"17 100 LINE",
"17 -13 LINE",
"377 210 LINE",
"377 307 LINE",
"17 530 LINE"
);
}
);
width = 414;
}
);
leftMetricsKey = x;
note = guilsinglright;
rightMetricsKey = o;
unicode = 203A;
},
{
glyphname = quotedbl;
lastChange = "2024-06-23 12:23:18 +0000";
layers = (
{
hints = (
{
horizontal = 1;
place = "{494, 238}";
type = Stem;
},
{
place = "{32, 103}";
type = Stem;
},
{
place = "{199, 103}";
type = Stem;
}
);
layerId = "BDC5E74B-1A26-4A4F-8F6D-86B4D4C65685";
paths = (
{
closed = 1;
nodes = (
"37 677 LINE",
"69 494 LINE",
"108 494 LINE",
"140 677 LINE",
"140 732 LINE",
"37 732 LINE"
);
},
{
closed = 1;
nodes = (
"204 677 LINE",
"236 494 LINE",
"275 494 LINE",
"307 677 LINE",
"307 732 LINE",
"204 732 LINE"
);
}
);
width = 344;
}
);
leftMetricsKey = o;
note = quotedbl;
rightMetricsKey = o;
unicode = 0022;
},
{
glyphname = quotesingle;
lastChange = "2024-06-23 12:23:14 +0000";
layers = (
{
hints = (
{
horizontal = 1;
place = "{732, -20}";
target = down;
type = TopGhost;
},
{
place = "{32, 103}";
type = Stem;
},
{
horizontal = 1;
place = "{494, 238}";
type = Stem;
}
);
layerId = "BDC5E74B-1A26-4A4F-8F6D-86B4D4C65685";
paths = (
{
closed = 1;
nodes = (
"37 677 LINE",
"69 494 LINE",
"108 494 LINE",
"140 677 LINE",
"140 732 LINE",
"37 732 LINE"
);
}
);
width = 177;
}
);
leftMetricsKey = o;
note = quotesingle;
rightMetricsKey = o;
unicode = 0027;
},
{
glyphname = at;
lastChange = "2024-06-23 12:34:36 +0000";
layers = (
{
hints = (
{
horizontal = 1;
place = "{-108, 84}";
type = Stem;
},
{
horizontal = 1;
place = "{69, 79}";
type = Stem;
},
{
horizontal = 1;
place = "{379, 88}";
type = Stem;
},
{
horizontal = 1;
place = "{553, 79}";
type = Stem;
},
{
place = "{28, 103}";
type = Stem;
},
{
place = "{677, 103}";
type = Stem;
},
{
horizontal = 1;
place = "{379, 79}";
type = Stem;
},
{
horizontal = 1;
place = "{66, 86}";
type = Stem;
}
);
layerId = "BDC5E74B-1A26-4A4F-8F6D-86B4D4C65685";
paths = (
{
closed = 1;
nodes = (
"499 -108 OFFCURVE",
"578 -80 OFFCURVE",
"637 -29 CURVE",
"574 41 LINE",
"531 -2 OFFCURVE",
"475 -24 OFFCURVE",
"413 -24 CURVE SMOOTH",
"262 -24 OFFCURVE",
"140 104 OFFCURVE",
"140 263 CURVE SMOOTH",
"140 425 OFFCURVE",
"261 553 OFFCURVE",
"413 553 CURVE SMOOTH",
"559 553 OFFCURVE",
"686 435 OFFCURVE",
"686 303 CURVE SMOOTH",
"686 216 OFFCURVE",
"641 148 OFFCURVE",
"587 148 CURVE SMOOTH",
"572 148 OFFCURVE",
"563 160 OFFCURVE",
"566 181 CURVE SMOOTH",
"599 458 LINE",
"506 458 LINE",
"503 431 LINE",
"480 453 OFFCURVE",
"445 467 OFFCURVE",
"406 467 CURVE SMOOTH",
"313 467 OFFCURVE",
"236 383 OFFCURVE",
"222 267 CURVE SMOOTH",
"207 149 OFFCURVE",
"265 66 OFFCURVE",
"359 66 CURVE SMOOTH",
"410 66 OFFCURVE",
"449 87 OFFCURVE",
"474 111 CURVE",
"487 85 OFFCURVE",
"519 69 OFFCURVE",
"563 69 CURVE SMOOTH",
"696 69 OFFCURVE",
"789 165 OFFCURVE",
"789 302 CURVE SMOOTH",
"789 484 OFFCURVE",
"620 632 OFFCURVE",
"414 632 CURVE SMOOTH",
"198 632 OFFCURVE",
"37 474 OFFCURVE",
"37 262 CURVE SMOOTH",
"37 51 OFFCURVE",
"199 -108 OFFCURVE",
"414 -108 CURVE SMOOTH"
);
},
{
closed = 1;
nodes = (
"331 333 OFFCURVE",
"369 379 OFFCURVE",
"415 379 CURVE SMOOTH",
"460 379 OFFCURVE",
"485 334 OFFCURVE",
"478 268 CURVE SMOOTH",
"468 197 OFFCURVE",
"431 152 OFFCURVE",
"384 152 CURVE SMOOTH",
"341 152 OFFCURVE",
"314 200 OFFCURVE",
"322 266 CURVE SMOOTH"
);
}
);
width = 826;
}
);
leftKerningGroup = o;
leftMetricsKey = o;
note = at;
rightKerningGroup = o;
rightMetricsKey = o;
unicode = 0040;
},
{
glyphname = ampersand;
lastChange = "2024-06-23 12:34:46 +0000";
layers = (
{
hints = (
{
horizontal = 1;
place = "{-16, 90}";
type = Stem;
},
{
horizontal = 1;
place = "{635, 91}";
type = Stem;
},
{
place = "{10, 115}";
type = Stem;
},
{
place = "{389, 114}";
type = Stem;
},
{
place = "{85, 114}";
type = Stem;
}
);
layerId = "BDC5E74B-1A26-4A4F-8F6D-86B4D4C65685";
paths = (
{
closed = 1;
nodes = (
"28 73 OFFCURVE",
"141 -17 OFFCURVE",
"298 -16 CURVE SMOOTH",
"364 -16 OFFCURVE",
"430 8 OFFCURVE",
"484 50 CURVE",
"543 -16 LINE",
"680 -16 LINE",
"556 124 LINE",
"585 166 OFFCURVE",
"601 207 OFFCURVE",
"603 246 CURVE",
"492 244 LINE",
"491 232 OFFCURVE",
"487 219 OFFCURVE",
"482 208 CURVE",
"360 346 LINE",
"466 390 OFFCURVE",
"521 454 OFFCURVE",
"521 536 CURVE SMOOTH",
"521 641 OFFCURVE",
"423 726 OFFCURVE",
"302 726 CURVE SMOOTH",
"190 726 OFFCURVE",
"103 649 OFFCURVE",
"103 550 CURVE SMOOTH",
"103 495 OFFCURVE",
"124 452 OFFCURVE",
"180 389 CURVE",
"185 384 LINE",
"78 337 OFFCURVE",
"28 278 OFFCURVE",
"28 197 CURVE SMOOTH"
);
},
{
closed = 1;
nodes = (
"217 603 OFFCURVE",
"252 635 OFFCURVE",
"302 635 CURVE SMOOTH",
"364 635 OFFCURVE",
"407 600 OFFCURVE",
"407 548 CURVE SMOOTH",
"407 489 OFFCURVE",
"375 454 OFFCURVE",
"292 423 CURVE",
"243 478 OFFCURVE",
"217 507 OFFCURVE",
"217 555 CURVE SMOOTH"
);
},
{
closed = 1;
nodes = (
"142 243 OFFCURVE",
"174 277 OFFCURVE",
"253 308 CURVE",
"417 125 LINE",
"373 92 OFFCURVE",
"324 74 OFFCURVE",
"279 74 CURVE SMOOTH",
"188 74 OFFCURVE",
"144 147 OFFCURVE",
"143 192 CURVE SMOOTH"
);
}
);
width = 708;
}
);
leftKerningGroup = S;
leftMetricsKey = S;
note = ampersand;
rightKerningGroup = S;
rightMetricsKey = S;
unicode = 0026;
},
{
glyphname = section;
lastChange = "2024-06-23 12:34:51 +0000";
layers = (
{
hints = (
{
horizontal = 1;
place = "{-165, 92}";
type = Stem;
},
{
horizontal = 1;
place = "{636, 91}";
type = Stem;
},
{
place = "{32, 109}";
type = Stem;
},
{
place = "{355, 113}";
type = Stem;
},
{
place = "{52, 113}";
type = Stem;
},
{
place = "{379, 109}";
type = Stem;
}
);
layerId = "BDC5E74B-1A26-4A4F-8F6D-86B4D4C65685";
paths = (
{
closed = 1;
nodes = (
"444 142 OFFCURVE",
"484 186 OFFCURVE",
"484 251 CURVE SMOOTH",
"484 352 OFFCURVE",
"386 401 OFFCURVE",
"290 464 CURVE",
"288 465 OFFCURVE",
"284 467 OFFCURVE",
"274 474 CURVE",
"267 478 OFFCURVE",
"265 479 OFFCURVE",
"256 485 CURVE",
"178 532 OFFCURVE",
"161 550 OFFCURVE",
"161 581 CURVE SMOOTH",
"161 616 OFFCURVE",
"191 636 OFFCURVE",
"249 636 CURVE SMOOTH",
"319 636 OFFCURVE",
"353 607 OFFCURVE",
"355 546 CURVE",
"469 546 LINE",
"465 650 OFFCURVE",
"373 727 OFFCURVE",
"260 727 CURVE SMOOTH",
"130 727 OFFCURVE",
"48 670 OFFCURVE",
"48 577 CURVE SMOOTH",
"48 523 OFFCURVE",
"73 486 OFFCURVE",
"142 441 CURVE",
"67 421 OFFCURVE",
"28 377 OFFCURVE",
"28 311 CURVE SMOOTH",
"28 210 OFFCURVE",
"127 161 OFFCURVE",
"222 99 CURVE SMOOTH",
"230 94 OFFCURVE",
"239 88 OFFCURVE",
"261 75 CURVE SMOOTH",
"331 32 OFFCURVE",
"351 12 OFFCURVE",
"351 -18 CURVE SMOOTH",
"351 -53 OFFCURVE",
"321 -73 OFFCURVE",
"263 -73 CURVE SMOOTH",
"192 -73 OFFCURVE",
"159 -44 OFFCURVE",
"157 16 CURVE",
"43 16 LINE",
"47 -87 OFFCURVE",
"139 -165 OFFCURVE",
"252 -165 CURVE SMOOTH",
"382 -165 OFFCURVE",
"464 -108 OFFCURVE",
"464 -15 CURVE SMOOTH",
"464 41 OFFCURVE",
"438 80 OFFCURVE",
"371 122 CURVE"
);
},
{
closed = 1;
nodes = (
"269 179 LINE SMOOTH",
"171 239 OFFCURVE",
"137 275 OFFCURVE",
"137 316 CURVE SMOOTH",
"137 356 OFFCURVE",
"170 387 OFFCURVE",
"223 395 CURVE",
"247 381 LINE SMOOTH",
"341 324 OFFCURVE",
"375 287 OFFCURVE",
"375 246 CURVE SMOOTH",
"375 206 OFFCURVE",
"341 176 OFFCURVE",
"288 168 CURVE"
);
}
);
width = 512;
}
);
leftKerningGroup = S;
leftMetricsKey = S;
note = section;
rightKerningGroup = S;
rightMetricsKey = S;
unicode = 00A7;
},
{
glyphname = copyright;
lastChange = "2024-06-23 12:34:56 +0000";
layers = (
{
hints = (
{
horizontal = 1;
place = "{-108, 81}";
type = Stem;
},
{
horizontal = 1;
place = "{57, 89}";
type = Stem;
},
{
horizontal = 1;
place = "{371, 88}";
type = Stem;
},
{
horizontal = 1;
place = "{552, 80}";
type = Stem;
},
{
place = "{28, 104}";
type = Stem;
},
{
place = "{222, 104}";
type = Stem;
},
{
place = "{676, 103}";
type = Stem;
}
);
layerId = "BDC5E74B-1A26-4A4F-8F6D-86B4D4C65685";
paths = (
{
closed = 1;
nodes = (
"633 -108 OFFCURVE",
"788 46 OFFCURVE",
"788 262 CURVE SMOOTH",
"788 480 OFFCURVE",
"635 632 OFFCURVE",
"414 632 CURVE SMOOTH",
"194 632 OFFCURVE",
"37 478 OFFCURVE",
"37 262 CURVE SMOOTH",
"37 47 OFFCURVE",
"194 -108 OFFCURVE",
"414 -108 CURVE SMOOTH"
);
},
{
closed = 1;
nodes = (
"141 429 OFFCURVE",
"254 552 OFFCURVE",
"412 552 CURVE SMOOTH",
"573 552 OFFCURVE",
"685 432 OFFCURVE",
"685 261 CURVE SMOOTH",
"685 95 OFFCURVE",
"571 -27 OFFCURVE",
"412 -27 CURVE SMOOTH",
"255 -27 OFFCURVE",
"141 95 OFFCURVE",
"141 261 CURVE SMOOTH"
);
},
{
closed = 1;
nodes = (
"231 141 OFFCURVE",
"311 57 OFFCURVE",
"422 57 CURVE SMOOTH",
"516 57 OFFCURVE",
"581 116 OFFCURVE",
"599 216 CURVE",
"492 216 LINE",
"485 174 OFFCURVE",
"456 146 OFFCURVE",
"420 146 CURVE SMOOTH",
"369 146 OFFCURVE",
"335 191 OFFCURVE",
"335 257 CURVE SMOOTH",
"335 326 OFFCURVE",
"370 371 OFFCURVE",
"420 371 CURVE SMOOTH",
"455 371 OFFCURVE",
"485 342 OFFCURVE",
"492 300 CURVE",
"597 300 LINE",
"582 400 OFFCURVE",
"517 459 OFFCURVE",
"422 459 CURVE SMOOTH",
"311 459 OFFCURVE",
"231 375 OFFCURVE",
"231 258 CURVE SMOOTH"
);
}
);
width = 825;
}
);
leftKerningGroup = o;
leftMetricsKey = o;
note = copyright;
rightKerningGroup = o;
rightMetricsKey = o;
unicode = 00A9;
},
{
glyphname = trademark;
lastChange = "2024-06-23 12:35:02 +0000";
layers = (
{
hints = (
{
horizontal = 1;
place = "{-1, 21}";
target = up;
type = BottomGhost;
},
{
horizontal = 1;
place = "{624, 86}";
type = Stem;
},
{
place = "{214, 112}";
type = Stem;
},
{
place = "{598, 112}";
type = Stem;
},
{
place = "{1247, 112}";
type = Stem;
},
{
horizontal = 1;
place = "{-1, 129}";
type = Stem;
}
);
layerId = "BDC5E74B-1A26-4A4F-8F6D-86B4D4C65685";
paths = (
{
closed = 1;
nodes = (
"228 624 LINE",
"228 605 OFFCURVE",
"227 562 OFFCURVE",
"227 535 CURVE SMOOTH",
"227 -1 LINE",
"339 -1 LINE",
"339 535 LINE SMOOTH",
"339 562 OFFCURVE",
"337 605 OFFCURVE",
"336 624 CURVE",
"559 624 LINE",
"559 710 LINE",
"5 710 LINE",
"5 624 LINE"
);
},
{
closed = 1;
nodes = (
"1042 244 LINE SMOOTH",
"1028 212 OFFCURVE",
"1010 168 OFFCURVE",
"994 128 CURVE",
"978 168 OFFCURVE",
"961 212 OFFCURVE",
"947 244 CURVE SMOOTH",
"739 710 LINE",
"611 710 LINE",
"611 -1 LINE",
"723 -1 LINE",
"723 503 LINE",
"734 475 OFFCURVE",
"745 449 OFFCURVE",
"753 432 CURVE SMOOTH",
"944 -1 LINE",
"1045 -1 LINE",
"1236 432 LINE SMOOTH",
"1242 446 OFFCURVE",
"1251 466 OFFCURVE",
"1260 489 CURVE",
"1260 -1 LINE",
"1372 -1 LINE",
"1372 710 LINE",
"1250 710 LINE"
);
}
);
width = 1433;
}
);
leftKerningGroup = T;
leftMetricsKey = T;
note = trademark;
rightKerningGroup = M;
rightMetricsKey = M;
unicode = 2122;
},
{
glyphname = degree;
lastChange = "2024-06-23 12:35:07 +0000";
layers = (
{
hints = (
{
horizontal = 1;
place = "{513, 60}";
type = Stem;
},
{
horizontal = 1;
place = "{651, 60}";
type = Stem;
},
{
place = "{-13, 75}";
type = Stem;
},
{
place = "{128, 75}";
type = Stem;
}
);
layerId = "BDC5E74B-1A26-4A4F-8F6D-86B4D4C65685";
paths = (
{
closed = 1;
nodes = (
"205 513 OFFCURVE",
"253 557 OFFCURVE",
"253 612 CURVE SMOOTH",
"253 668 OFFCURVE",
"206 711 OFFCURVE",
"145 711 CURVE SMOOTH",
"84 711 OFFCURVE",
"37 668 OFFCURVE",
"37 612 CURVE SMOOTH",
"37 557 OFFCURVE",
"85 513 OFFCURVE",
"145 513 CURVE SMOOTH"
);
},
{
closed = 1;
nodes = (
"112 636 OFFCURVE",
"125 651 OFFCURVE",
"145 651 CURVE SMOOTH",
"164 651 OFFCURVE",
"178 635 OFFCURVE",
"178 612 CURVE SMOOTH",
"178 591 OFFCURVE",
"163 573 OFFCURVE",
"145 573 CURVE SMOOTH",
"126 573 OFFCURVE",
"112 590 OFFCURVE",
"112 612 CURVE SMOOTH"
);
}
);
width = 290;
}
);
leftKerningGroup = o;
leftMetricsKey = o;
note = degree;
rightKerningGroup = o;
rightMetricsKey = o;
unicode = 00B0;
},
{
glyphname = bar;
lastChange = "2024-06-23 12:35:12 +0000";
layers = (
{
hints = (
{
horizontal = 1;
place = "{-162, 873}";
type = Stem;
},
{
place = "{60, 112}";
type = Stem;
}
);
layerId = "BDC5E74B-1A26-4A4F-8F6D-86B4D4C65685";
paths = (
{
closed = 1;
nodes = (
"60 -162 LINE",
"172 -162 LINE",
"172 711 LINE",
"60 711 LINE"
);
}
);
width = 232;
}
);
leftKerningGroup = N;
leftMetricsKey = N;
note = bar;
rightKerningGroup = N;
rightMetricsKey = N;
unicode = 007C;
},
